STARTFONT 2.1
COMMENT
COMMENT Converted from OpenType font "truongsa_regular.ttf" by "otf2bdf 3.0".
COMMENT
FONT -FreeType-VPS Truong Sa Light Hoa-Medium-R-Normal--77-560-100-100-P-391-ISO10646-1
SIZE 56 100 100
FONTBOUNDINGBOX 73 106 -2 -18
STARTPROPERTIES 19
FOUNDRY "FreeType"
FAMILY_NAME "VPS Truong Sa Light Hoa"
WEIGHT_NAME "Medium"
SLANT "R"
SETWIDTH_NAME "Normal"
ADD_STYLE_NAME ""
PIXEL_SIZE 77
POINT_SIZE 560
RESOLUTION_X 100
RESOLUTION_Y 100
SPACING "P"
AVERAGE_WIDTH 391
CHARSET_REGISTRY "ISO10646"
CHARSET_ENCODING "1"
FONT_ASCENT 75
FONT_DESCENT 18
COPYRIGHT "VPS Font"
_OTF_FONTFILE "truongsa_regular.ttf"
_OTF_PSNAME "VPS Truong Sa Light Hoa"
ENDPROPERTIES
CHARS 270
STARTCHAR 0002
ENCODING 2
SWIDTH 655 0
DWIDTH 51 0
BBX 53 69 -1 -12
BITMAP
00000070000000
000000F0000000
000001F8000000
000001FC000000
000003FC000000
000003FE000000
000007FF000000
000007FF000000
00000FFF800000
00000FBF800000
00001FBFC00000
00001F1FC00000
00003F1FE00000
00003E0FE00000
00007E0FF00000
00007C07F00000
0000FC07F80000
0000F803F80000
0000F803F80000
0001F001FC0000
0001F001FC0000
0003F001FE0000
0003E000FE0000
0007E000FF0000
0007C0007F0000
0007C0007F0000
000F80007F8000
000F80003F8000
001F80003FC000
001F00001FC000
001F00001FC000
003F00001FE000
003E00000FE000
003FFFFFFFE000
007FFFFFFFF000
007FFFFFFFF000
00FFFFFFFFF000
00FC000003F800
00F8000003F800
01F8000003F800
01F0000001FC00
01F0000001FC00
03F0000001FC00
03F0000000FE00
03E0000000FE00
07E0000000FE00
07E00000007F00
07C00000007F00
0FC00000007F00
0FC00000007F80
1FC00000007F80
1FC00000007F80
1FE0000000FFC0
3FF8000001FFE0
7FFC000003FFF0
FFFC000003FFF8
7FF8000003FFF0
00000000000000
00000000000000
00000000000000
00000000000000
000007E0000000
000007F0000000
00000FF0000000
00000FF0000000
00000FF0000000
00000FF0000000
000007E0000000
000003C0000000
ENDCHAR
STARTCHAR 0003
ENCODING 3
SWIDTH 655 0
DWIDTH 51 0
BBX 53 87 -1 -12
BITMAP
000000F8000000
000001FC000000
000001FE000000
000003FE000000
000007FF000000
000007FF800000
00000F8F800000
00001F07C00000
00001E03E00000
00003C01E00000
00007800F00000
00007000780000
0000E000180000
00000000000000
00000000000000
00000000000000
00000000000000
00000000000000
00000070000000
000000F0000000
000001F8000000
000001FC000000
000003FC000000
000003FE000000
000007FF000000
000007FF000000
00000FFF800000
00000FBF800000
00001FBFC00000
00001F1FC00000
00003F1FE00000
00003E0FE00000
00007E0FF00000
00007C07F00000
0000FC07F80000
0000F803F80000
0000F803F80000
0001F001FC0000
0001F001FC0000
0003F001FE0000
0003E000FE0000
0007E000FF0000
0007C0007F0000
0007C0007F0000
000F80007F8000
000F80003F8000
001F80003FC000
001F00001FC000
001F00001FC000
003F00001FE000
003E00000FE000
003FFFFFFFE000
007FFFFFFFF000
007FFFFFFFF000
00FFFFFFFFF000
00FC000003F800
00F8000003F800
01F8000003F800
01F0000001FC00
01F0000001FC00
03F0000001FC00
03F0000000FE00
03E0000000FE00
07E0000000FE00
07E00000007F00
07C00000007F00
0FC00000007F00
0FC00000007F80
1FC00000007F80
1FC00000007F80
1FE0000000FFC0
3FF8000001FFE0
7FFC000003FFF0
FFFC000003FFF8
7FF8000003FFF0
00000000000000
00000000000000
00000000000000
00000000000000
000007E0000000
000007F0000000
00000FF0000000
00000FF0000000
00000FF0000000
00000FF0000000
000007E0000000
000003C0000000
ENDCHAR
STARTCHAR 0004
ENCODING 4
SWIDTH 655 0
DWIDTH 51 0
BBX 53 83 -1 -12
BITMAP
00008000200000
0000C000600000
0000C000600000
0000E000E00000
00007C07C00000
00007FFF800000
00003FFF800000
00001FFF000000
000007FC000000
00000000000000
00000000000000
00000000000000
00000000000000
00000000000000
00000070000000
000000F0000000
000001F8000000
000001FC000000
000003FC000000
000003FE000000
000007FF000000
000007FF000000
00000FFF800000
00000FBF800000
00001FBFC00000
00001F1FC00000
00003F1FE00000
00003E0FE00000
00007E0FF00000
00007C07F00000
0000FC07F80000
0000F803F80000
0000F803F80000
0001F001FC0000
0001F001FC0000
0003F001FE0000
0003E000FE0000
0007E000FF0000
0007C0007F0000
0007C0007F0000
000F80007F8000
000F80003F8000
001F80003FC000
001F00001FC000
001F00001FC000
003F00001FE000
003E00000FE000
003FFFFFFFE000
007FFFFFFFF000
007FFFFFFFF000
00FFFFFFFFF000
00FC000003F800
00F8000003F800
01F8000003F800
01F0000001FC00
01F0000001FC00
03F0000001FC00
03F0000000FE00
03E0000000FE00
07E0000000FE00
07E00000007F00
07C00000007F00
0FC00000007F00
0FC00000007F80
1FC00000007F80
1FC00000007F80
1FE0000000FFC0
3FF8000001FFE0
7FFC000003FFF0
FFFC000003FFF8
7FF8000003FFF0
00000000000000
00000000000000
00000000000000
00000000000000
000007E0000000
000007F0000000
00000FF0000000
00000FF0000000
00000FF0000000
00000FF0000000
000007E0000000
000003C0000000
ENDCHAR
STARTCHAR 0005
ENCODING 5
SWIDTH 604 0
DWIDTH 47 0
BBX 45 68 2 -12
BITMAP
7FFFFFFFFF80
FFFFFFFFFFC0
7FFFFFFFFFC0
3FFFFFFFFFC0
0FFE0001FFC0
07F800001FC0
07F0000007C0
07F0000003C0
07F0000001C0
07F000000000
07F000000000
07F000000000
07F000000000
07F000000000
07F000000000
07F000000000
07F000000000
07F000000000
07F000000000
07F000000000
07F000000000
07F000003000
07F00000F800
07FFFFFFF800
07FFFFFFF800
07FFFFFFF800
07FFFFFFF800
07FFFFFFF800
07F00000F800
07F000003000
07F000000000
07F000000000
07F000000000
07F000000000
07F000000000
07F000000000
07F000000000
07F000000000
07F000000000
07F000000000
07F000000000
07F000000000
07F000000000
07F000000000
07F000000000
07F000000010
07F000000038
07F000000078
07F0000001F8
07F0000003F8
0FF800001FF8
0FFF800FFFF0
3FFFFFFFFFF0
7FFFFFFFFFF0
7FFFFFFFFFF0
7FFFFFFFFFC0
000000000000
000000000000
000000000000
000000000000
00003F000000
00003F800000
00007F800000
00007F800000
00007F800000
00007F800000
00003F000000
00001E000000
ENDCHAR
STARTCHAR 0006
ENCODING 6
SWIDTH 604 0
DWIDTH 47 0
BBX 45 88 2 -13
BITMAP
000007C00000
00000FC00000
00001FE00000
00001FF00000
00003FF00000
00007FF80000
00007C7C0000
0000F83C0000
0001F01E0000
0001E00F0000
0003C0070000
000700038000
00060001C000
000000000000
000000000000
000000000000
000000000000
000000000000
000000000000
7FFFFFFFFF80
FFFFFFFFFFC0
7FFFFFFFFFC0
3FFFFFFFFFC0
0FFE0001FFC0
07F800001FC0
07F0000007C0
07F0000003C0
07F0000001C0
07F000000000
07F000000000
07F000000000
07F000000000
07F000000000
07F000000000
07F000000000
07F000000000
07F000000000
07F000000000
07F000000000
07F000000000
07F000003000
07F00000F800
07FFFFFFF800
07FFFFFFF800
07FFFFFFF800
07FFFFFFF800
07FFFFFFF800
07F00000F800
07F000003000
07F000000000
07F000000000
07F000000000
07F000000000
07F000000000
07F000000000
07F000000000
07F000000000
07F000000000
07F000000000
07F000000000
07F000000000
07F000000000
07F000000000
07F000000000
07F000000010
07F000000038
07F000000078
07F0000001F8
07F0000003F8
0FF800001FF8
0FFF800FFFF0
3FFFFFFFFFF0
7FFFFFFFFFF0
7FFFFFFFFFF0
7FFFFFFFFFC0
000000000000
000000000000
000000000000
000000000000
000000000000
000007C00000
00000FE00000
00000FE00000
00001FF00000
00001FF00000
00000FF00000
00000FE00000
000007C00000
ENDCHAR
STARTCHAR 0015
ENCODING 21
SWIDTH 707 0
DWIDTH 55 0
BBX 56 84 2 -14
BITMAP
000000000001F8
0000000000070C
00000000000706
00000000000703
00000000000003
00000000000003
00000000000003
00000000000007
00000000000006
0000000000000E
0000000000003C
000000000001F8
000000000003E0
00000000000200
FFFF00000FFFC0
FFFF00000FFFE0
FFFF00000FFFC0
7FFE000007FF80
1FF8000001FF00
0FF0000000FE00
0FF00000007E00
0FF00000007E00
0FE00000007E00
0FE00000007E00
0FE00000007E00
0FE00000003E00
0FE00000003E00
0FE00000003E00
0FE00000003E00
0FC00000003E00
0FC00000003E00
0FC00000003E00
1FC00000003E00
1FC00000003E00
1FC00000003E00
1FC00000003E00
1FC00000003E00
1FC00000003E00
1FC00000003E00
1FC00000003F00
1FC00000003F00
1FC00000003F00
1FC00000003F00
1FC00000003F00
1FC00000003F00
1FC00000003F00
1FC00000003F00
1FC00000003F00
1FC00000003F00
1FC00000003F00
1FC00000003F00
1FC00000003F00
1FC00000003E00
1FC00000003E00
0FC00000007E00
0FE00000007E00
0FE00000007E00
0FE00000007C00
07F0000000FC00
07F0000000FC00
07F8000001F800
03F8000003F800
03FC000003F000
01FE000007E000
00FF80001FE000
00FFE0007FC000
007FF803FF8000
003FFFFFFF0000
000FFFFFFC0000
0003FFFFF00000
0000FFFF800000
000001E0000000
00000000000000
00000000000000
00000000000000
00000040000000
000001F0000000
000003F8000000
000003FC000000
000007FC000000
000003FC000000
000003F8000000
000001F8000000
000000E0000000
ENDCHAR
STARTCHAR 0019
ENCODING 25
SWIDTH 655 0
DWIDTH 51 0
BBX 52 69 -1 -13
BITMAP
FFFE000003FFF0
FFFF000003FFF0
FFFE000003FFE0
7FFC000000FFC0
1FF80000007F80
0FF00000003F80
07F80000003F00
07F80000007E00
03FC0000007E00
01FC0000007C00
01FE000000F800
00FE000000F800
00FF000001F000
007F800001E000
003F800003E000
003FC00007C000
001FE000078000
000FE0000F8000
000FF0001F0000
0007F8001E0000
0003FC003E0000
0003FC007C0000
0001FE00F80000
0000FF00F80000
00007F81F00000
00007F83E00000
00003FC7E00000
00001FE7C00000
00000FFF800000
00000FFF000000
000007FF000000
000003FE000000
000003FC000000
000001FC000000
000001FC000000
000001FC000000
000001FC000000
000001FC000000
000001FC000000
000001FC000000
000001FC000000
000001FC000000
000001FC000000
000001FC000000
000001FC000000
000001FC000000
000001FC000000
000001FC000000
000001FC000000
000001FC000000
000003FC000000
000003FE000000
00000FFF800000
00001FFFC00000
00001FFFC00000
00001FFFC00000
00000000000000
00000000000000
00000000000000
00000000000000
00000078000000
000000FC000000
000001FE000000
000001FE000000
000001FE000000
000001FE000000
000001FE000000
000000FC000000
00000030000000
ENDCHAR
STARTCHAR 001C
ENCODING 28
SWIDTH 655 0
DWIDTH 51 0
BBX 53 85 -1 0
BITMAP
00000000180000
00000000180000
00000FF0380000
00003FFFF00000
00007FFFF00000
00007FFFE00000
0000F0FFC00000
0000C01F000000
0000C000000000
0000C000000000
000000F8000000
000001FC000000
000001FE000000
000003FE000000
000007FF000000
000007FF800000
00000F8F800000
00001F07C00000
00001E03E00000
00003C01E00000
00007800F00000
00007000780000
0000E000180000
00000000000000
00000000000000
00000000000000
00000000000000
00000000000000
00000070000000
000000F0000000
000001F8000000
000001FC000000
000003FC000000
000003FE000000
000007FF000000
000007FF000000
00000FFF800000
00000FBF800000
00001FBFC00000
00001F1FC00000
00003F1FE00000
00003E0FE00000
00007E0FF00000
00007C07F00000
0000FC07F80000
0000F803F80000
0000F803F80000
0001F001FC0000
0001F001FC0000
0003F001FE0000
0003E000FE0000
0007E000FF0000
0007C0007F0000
0007C0007F0000
000F80007F8000
000F80003F8000
001F80003FC000
001F00001FC000
001F00001FC000
003F00001FE000
003E00000FE000
003FFFFFFFE000
007FFFFFFFF000
007FFFFFFFF000
00FFFFFFFFF000
00FC000003F800
00F8000003F800
01F8000003F800
01F0000001FC00
01F0000001FC00
03F0000001FC00
03F0000000FE00
03E0000000FE00
07E0000000FE00
07E00000007F00
07C00000007F00
0FC00000007F00
0FC00000007F80
1FC00000007F80
1FC00000007F80
1FE0000000FFC0
3FF8000001FFE0
7FFC000003FFF0
FFFC000003FFF8
7FF8000003FFF0
ENDCHAR
STARTCHAR 001D
ENCODING 29
SWIDTH 707 0
DWIDTH 55 0
BBX 56 88 2 -2
BITMAP
00000000060000
00000000060000
000003F80C0000
00000FFFBC0000
00001FFFFC0000
00001FFFF80000
00003CFFF00000
0000300FC00000
00007000000000
00006000000000
00000000000000
00000000000000
00000000000000
00000000000000
00000000000000
00000000000000
000000000001F8
0000000000070C
00000000000706
00000000000703
00000000000003
00000000000003
00000000000003
00000000000007
00000000000006
0000000000000E
0000000000003C
000000000001F8
000000000003E0
00000000000200
FFFF00000FFFC0
FFFF00000FFFE0
FFFF00000FFFC0
7FFE000007FF80
1FF8000001FF00
0FF0000000FE00
0FF00000007E00
0FF00000007E00
0FE00000007E00
0FE00000007E00
0FE00000007E00
0FE00000003E00
0FE00000003E00
0FE00000003E00
0FE00000003E00
0FC00000003E00
0FC00000003E00
0FC00000003E00
1FC00000003E00
1FC00000003E00
1FC00000003E00
1FC00000003E00
1FC00000003E00
1FC00000003E00
1FC00000003E00
1FC00000003F00
1FC00000003F00
1FC00000003F00
1FC00000003F00
1FC00000003F00
1FC00000003F00
1FC00000003F00
1FC00000003F00
1FC00000003F00
1FC00000003F00
1FC00000003F00
1FC00000003F00
1FC00000003F00
1FC00000003E00
1FC00000003E00
0FC00000007E00
0FE00000007E00
0FE00000007E00
0FE00000007C00
07F0000000FC00
07F0000000FC00
07F8000001F800
03F8000003F800
03FC000003F000
01FE000007E000
00FF80001FE000
00FFE0007FC000
007FF803FF8000
003FFFFFFF0000
000FFFFFFC0000
0003FFFFF00000
0000FFFF800000
000001E0000000
ENDCHAR
STARTCHAR 0020
ENCODING 32
SWIDTH 270 0
DWIDTH 21 0
BBX 0 0 0 0
BITMAP
ENDCHAR
STARTCHAR 0021
ENCODING 33
SWIDTH 270 0
DWIDTH 21 0
BBX 8 58 6 -1
BITMAP
3E
7F
7F
FF
FF
FF
FF
FF
FF
7F
7F
7F
7F
7F
7F
7E
7E
7E
7E
7E
7E
7E
7E
7E
7E
3E
3E
3E
3C
3C
3C
3C
3C
3C
3C
3C
3C
3C
3C
3C
18
18
00
00
00
00
00
00
00
00
3E
7F
FF
FF
FF
FF
7F
3C
ENDCHAR
STARTCHAR 0022
ENCODING 34
SWIDTH 321 0
DWIDTH 25 0
BBX 19 23 3 33
BITMAP
100080
7C03C0
7E07E0
FE07E0
FE07E0
7E07E0
7E07E0
7C07E0
7C07E0
7C03E0
7C03E0
7C03C0
3C03C0
3C03C0
3803C0
3803C0
3801C0
3801C0
380180
380180
180180
100180
100180
ENDCHAR
STARTCHAR 0023
ENCODING 35
SWIDTH 758 0
DWIDTH 59 0
BBX 52 55 4 0
BITMAP
0000007C007C00
0000007C007C00
0000007C00F800
000000F800F800
000000F800F800
000001F801F000
000001F001F000
000001F001F000
000003E003E000
000003E003E000
000003E003E000
000007C007C000
000007C007C000
000007C007C000
00000F800F8000
00000F800F8000
00000F801F8000
00001F001F0000
03FFFFFFFFFFF0
07FFFFFFFFFFE0
07FFFFFFFFFFE0
07FFFFFFFFFFE0
00007C007C0000
00007C007C0000
00007C007C0000
0000F800F80000
0000F800F80000
0000F800F80000
0001F001F00000
0001F001F00000
0001F001F00000
0003E003E00000
0003E003E00000
7FFFFFFFFFFE00
7FFFFFFFFFFE00
7FFFFFFFFFFC00
FFFFFFFFFFFC00
000F800F800000
000F800F800000
001F001F000000
001F001F000000
001F001F000000
003E003E000000
003E003E000000
003E003E000000
007C007C000000
007C007C000000
007C00FC000000
00F800F8000000
00F800F8000000
00F801F8000000
01F001F0000000
01F001F0000000
03F003E0000000
03E003E0000000
ENDCHAR
STARTCHAR 0024
ENCODING 36
SWIDTH 540 0
DWIDTH 42 0
BBX 35 72 4 -9
BITMAP
0000400000
0000E00000
0000E00000
0000E00000
0000E00000
0000E00000
0001F80000
001FFF8000
00FFFFE000
01FFFFF000
03F8E3F800
07C0E0FC00
0F80E03E00
1F00E03E00
1E00E01E00
3E00E01E00
3E00E01F00
3E00E01E00
3C00E01E00
3E00E00400
3E00E00000
3E00E00000
3E00E00000
3F00E00000
3F80E00000
1FC0E00000
1FF0E00000
0FFCE00000
0FFFE00000
07FFE00000
03FFF80000
00FFFE0000
007FFF8000
001FFFE000
0007FFF000
0001FFFC00
0000FFFE00
0000FFFF00
0000E7FF80
0000E1FF80
0000E07FC0
0000E03FC0
0000E01FC0
0000E00FE0
0000E007E0
0000E007E0
0000E003E0
0000E003E0
7000E003E0
F000E003E0
F800E003E0
F800E003C0
F800E007C0
7C00E007C0
7C00E00F80
3E00E01F80
3F00E03F00
1F80E07E00
0FE0E1FC00
07FFFFF800
01FFFFE000
00FFFF8000
001FFC0000
0000E00000
0000E00000
0000E00000
0000E00000
0000E00000
0000E00000
0000E00000
0000E00000
0000E00000
ENDCHAR
STARTCHAR 0025
ENCODING 37
SWIDTH 861 0
DWIDTH 67 0
BBX 59 60 5 -2
BITMAP
00000000000F0000
007FE000001F0000
01FFFC00003E0000
03FDFF0000FC0000
0FC03FF003FC0000
1F801FFFFFF80000
1F000FFFFFF80000
3F0007DFFC700000
3E0007E000F00000
7E0007E000E00000
7E0003E001E00000
7E0003F003C00000
7E0003F003800000
FE0003F007800000
FE0003F007000000
7E0003F00F000000
7E0003F00E000000
7E0003F01E000000
7E0003F01C000000
7E0007E03C000000
3E0007E078000000
3F0007C070000000
1F000FC0F0000000
1F801F80E0000000
0FC03F01E0000000
07F8FE01C0000000
01FFFC03C0000000
007FE00780000000
0000000700000000
0000000F00000000
0000000E00000000
0000001E00000000
0000001C00FFE000
0000003C03FFF800
000000780FE0FC00
000000781F803E00
000000F03F001F00
000000E03E001F80
000001E07E000FC0
000001C07C000FC0
000003C0FC0007C0
00000380FC0007E0
00000780FC0007E0
00000F00FC0007E0
00000E00FC0007E0
00001E00FC0007E0
00001C00FC0007E0
00003C00FC0007E0
00003800FC0007E0
00007800FC0007E0
0000F000FC000FC0
0000F0007E000FC0
0001E0007E000F80
0001C0003F001F80
0003C0001F003F00
000380000FC07E00
0007800007FFFC00
000F000003FFF000
000F0000007FC000
0006000000000000
ENDCHAR
STARTCHAR 0026
ENCODING 38
SWIDTH 758 0
DWIDTH 59 0
BBX 56 58 2 -1
BITMAP
0000FFF0000000
0003FFFC000000
000FFFFE000000
001FF0FF000000
003F803F800000
003F000FC00000
007E0007C00000
00FC0007E00000
00FC0003E00000
00F80003E00000
00F80003E00000
01F80003E00000
01F80003E00000
01F80003E00000
01FC0007C00000
00FC0007C00000
00FC000F800000
00FE001F800000
00FE003F000000
007F00FE000000
007F81FC000000
003F87F8000000
003FCFE0000000
001FFFC0000000
000FFF00000000
000FFE0007FFF8
0007F8000FFFF8
001FFC0007FFF8
007FFC0001FFF0
00FFFE00007FC0
01F8FF00007F00
03F0FF80007E00
07C07F80007C00
0FC03FC0007C00
1F801FE0007800
3F001FF000F800
3F000FF000F000
7E0007F801F000
7E0003FC03E000
FC0001FE03C000
FC0000FF07C000
FC0000FF8F8000
FC00007FCF0000
FC00003FFF0000
FC00001FFE0000
FE00000FFC0000
FE000007FC0000
7E000007FE0000
7F000003FF0000
7F800007FF8000
3FC0001FFFC000
3FE0003FFFF000
1FF800FF3FFF1F
0FFFFFFE1FFFFF
07FFFFF80FFFFF
03FFFFF003FFFE
00FFFFC000FFFC
003FFE00001FE0
ENDCHAR
STARTCHAR 0027
ENCODING 39
SWIDTH 167 0
DWIDTH 13 0
BBX 7 23 3 33
BITMAP
10
7C
7E
FE
FE
FE
7E
7C
7C
7C
7C
7C
7C
3C
38
38
38
38
38
38
18
10
10
ENDCHAR
STARTCHAR 0028
ENCODING 40
SWIDTH 321 0
DWIDTH 25 0
BBX 13 71 7 -13
BITMAP
0010
0078
0078
00F8
01F0
01F0
03E0
03E0
03C0
07C0
07C0
0F80
0F80
0F80
1F00
1F00
1F00
3E00
3E00
3E00
7E00
7E00
7C00
7C00
7C00
FC00
FC00
FC00
F800
F800
F800
F800
F800
F800
F800
F800
F800
F800
F800
F800
F800
F800
F800
FC00
FC00
FC00
7C00
7C00
7C00
7C00
7E00
3E00
3E00
3E00
3F00
1F00
1F00
1F00
0F80
0F80
07C0
07C0
07C0
03E0
03E0
01E0
01F0
00F0
0078
0078
0038
ENDCHAR
STARTCHAR 0029
ENCODING 41
SWIDTH 321 0
DWIDTH 25 0
BBX 14 70 5 -12
BITMAP
F000
7800
7800
7C00
3E00
3E00
1E00
1F00
1F00
0F80
0F80
07C0
07C0
07C0
07E0
03E0
03E0
03E0
03F0
01F0
01F0
01F0
01F8
01F8
00F8
00F8
00F8
00F8
00FC
00FC
00FC
00FC
00FC
00FC
00FC
00FC
00FC
00FC
00FC
00FC
00FC
00FC
00F8
00F8
00F8
01F8
01F8
01F8
01F0
01F0
01F0
03F0
03E0
03E0
03E0
07C0
07C0
07C0
0F80
0F80
0F00
1F00
1F00
3E00
3E00
7C00
7C00
7800
F000
6000
ENDCHAR
STARTCHAR 002A
ENCODING 42
SWIDTH 488 0
DWIDTH 38 0
BBX 28 31 5 26
BITMAP
000F8000
001F8000
001FC000
001F8000
001F8000
001F8000
780F01E0
FE0F03F0
FE0F07F0
FF060FF0
FF861FF0
7FC63FE0
3FE67F80
00F6E000
001F8000
00060000
001F8000
01F6F800
3FC63FE0
FF861FF0
FF860FF0
FF060FF0
FE0F07F0
FC0F03F0
780F81E0
001F8000
001F8000
001FC000
001F8000
001F8000
000F0000
ENDCHAR
STARTCHAR 002B
ENCODING 43
SWIDTH 822 0
DWIDTH 64 0
BBX 45 46 10 0
BITMAP
00000F800000
00000F800000
00000F800000
00000F800000
00000F800000
00000F800000
00000F800000
00000F800000
00000F800000
00000F800000
00000F800000
00000F800000
00000F800000
00000F800000
00000F800000
00000F800000
00000F800000
00000F800000
00000F800000
00000F800000
00000F800000
FFFFFFFFFFF8
FFFFFFFFFFF8
FFFFFFFFFFF8
FFFFFFFFFFF8
00000F800000
00000F800000
00000F800000
00000F800000
00000F800000
00000F800000
00000F800000
00000F800000
00000F800000
00000F800000
00000F800000
00000F800000
00000F800000
00000F800000
00000F800000
00000F800000
00000F800000
00000F800000
00000F800000
00000F800000
00000F800000
ENDCHAR
STARTCHAR 002C
ENCODING 44
SWIDTH 270 0
DWIDTH 21 0
BBX 10 20 5 -13
BITMAP
3F00
7F80
7F80
7FC0
FFC0
7FC0
7FC0
3FC0
01C0
01C0
01C0
0180
0380
0380
0700
0600
0E00
1C00
3800
3000
ENDCHAR
STARTCHAR 002D
ENCODING 45
SWIDTH 321 0
DWIDTH 25 0
BBX 19 6 3 15
BITMAP
7FFFC0
FFFFE0
FFFFE0
FFFFE0
FFFFE0
7FFFE0
ENDCHAR
STARTCHAR 002E
ENCODING 46
SWIDTH 270 0
DWIDTH 21 0
BBX 9 8 6 -1
BITMAP
3E00
7F00
7F80
FF80
FF80
7F80
7F00
3E00
ENDCHAR
STARTCHAR 002F
ENCODING 47
SWIDTH 257 0
DWIDTH 20 0
BBX 23 64 -2 -7
BITMAP
00000E
00001E
00001C
00001C
00003C
000038
000038
000078
000078
000070
000070
0000F0
0000E0
0000E0
0001E0
0001C0
0001C0
0003C0
000380
000380
000780
000700
000700
000F00
000F00
000E00
000E00
001E00
001C00
001C00
003C00
003800
003800
007800
007000
007000
00F000
00E000
00E000
01E000
01E000
01C000
01C000
03C000
038000
038000
078000
070000
070000
0F0000
0E0000
0E0000
1E0000
1C0000
1C0000
3C0000
380000
380000
380000
780000
700000
700000
F00000
E00000
ENDCHAR
STARTCHAR 0030
ENCODING 48
SWIDTH 540 0
DWIDTH 42 0
BBX 38 58 2 -1
BITMAP
0003FF8000
001FFFE000
003FFFF800
00FFFFFC00
01FE00FE00
01F8007F00
03F0003F80
07E0001FC0
0FE0000FC0
0FC0000FE0
1FC00007E0
1F800007F0
1F800007F0
3F800003F0
3F800003F8
3F800003F8
3F000003F8
7F000003F8
7F000001FC
7F000001FC
7F000001FC
7F000001FC
7F000001FC
FF000001FC
FF000001FC
FF000001FC
FF000001FC
FF000001FC
FF000001FC
FF000001FC
FF000001FC
FF000001FC
FF000001FC
FF000001FC
7F000001FC
7F000001FC
7F000001FC
7F000001FC
7F000001FC
7F000001FC
7F000003F8
3F000003F8
3F800003F8
3F800003F8
3F800003F0
1F800007F0
1F800007F0
0FC00007E0
0FC0000FE0
07E0000FC0
07E0001F80
03F0003F80
01F8007F00
00FE01FE00
007FFFFC00
003FFFF800
000FFFE000
0003FF0000
ENDCHAR
STARTCHAR 0031
ENCODING 49
SWIDTH 540 0
DWIDTH 42 0
BBX 29 57 7 0
BITMAP
0000E000
0001E000
0007E000
001FE000
007FE000
0FFFE000
FFFFE000
FFFFE000
FFFFE000
003FE000
001FE000
000FE000
000FE000
000FE000
000FE000
000FE000
000FE000
000FE000
000FE000
000FE000
000FE000
000FE000
000FE000
000FE000
000FE000
000FE000
000FE000
000FE000
000FE000
000FE000
000FE000
000FE000
000FE000
000FE000
000FE000
000FE000
000FE000
000FE000
000FE000
000FE000
000FE000
000FE000
000FE000
000FE000
000FE000
000FE000
000FE000
000FE000
000FE000
000FE000
001FE000
003FF000
00FFFC00
1FFFFFE0
3FFFFFF8
7FFFFFF8
3FFFFFF0
ENDCHAR
STARTCHAR 0032
ENCODING 50
SWIDTH 540 0
DWIDTH 42 0
BBX 37 57 1 0
BITMAP
0003FFE000
001FFFFC00
007FFFFF00
00FFFFFF80
01FE007FC0
03F8001FE0
07E0000FF0
0FC00007F0
1FC00007F8
1F800003F8
1F800003F8
3F800003F8
3F800003F8
3F800003F8
3F800003F8
3FC00003F8
3FC00003F8
1FE00007F8
1FE00007F8
0FC00007F0
0000000FF0
0000001FF0
0000001FE0
0000003FC0
0000007FC0
000000FF80
000001FF00
000003FE00
000007FC00
00000FF800
00001FF000
00003FE000
00007F8000
0000FF0000
0001FE0000
0003FC0000
0007F80000
000FF00000
001FC00000
003F800000
007F000000
00FE000000
00FC000000
01F8000000
03F0000000
07F0000000
07E0000038
0FC0000078
1F800000F8
1F800001F8
3F000007F8
7FFFFFFFF0
7FFFFFFFF0
FFFFFFFFF0
FFFFFFFFF0
FFFFFFFFE0
7FFFFFFFC0
ENDCHAR
STARTCHAR 0033
ENCODING 51
SWIDTH 540 0
DWIDTH 42 0
BBX 38 58 1 -1
BITMAP
0007FF8000
001FFFF000
007FFFFC00
01FF8FFE00
03F801FF00
07F0007F80
0FE0003FC0
0FC0001FC0
1FC0001FE0
1FC0000FE0
1FC0000FE0
1FC0000FE0
1FC0000FF0
0FC0000FF0
0F80000FF0
0000000FE0
0000000FE0
0000000FE0
0000001FC0
0000001FC0
0000003F80
0000007F00
000000FE00
000003FC00
00001FF000
0007FFC000
000FFE0000
000FFFE000
000FFFFC00
000003FE00
000000FF80
0000003FC0
0000001FE0
0000000FF0
00000007F0
00000007F8
00000007F8
00000003F8
00000003FC
00000003FC
00000003FC
00000003FC
78000003FC
7C000003FC
FC000003F8
FC000003F8
FC000007F8
FE000007F0
FE000007F0
FE00000FE0
7F00001FE0
7F80003FC0
3FC0007F80
1FE001FF00
0FFE1FFE00
07FFFFF800
01FFFFE000
003FFF0000
ENDCHAR
STARTCHAR 0034
ENCODING 52
SWIDTH 540 0
DWIDTH 42 0
BBX 41 57 1 0
BITMAP
0000007C0000
000000FE0000
000001FE0000
000007FE0000
00000FFE0000
00001FFE0000
00003FFE0000
00003F7E0000
00007E7E0000
0000FC7E0000
0001F87E0000
0003F07E0000
0007E07E0000
0007C07E0000
000FC07E0000
001F807E0000
001F007E0000
003E007E0000
007E007E0000
007C007E0000
00F8007E0000
01F8007E0000
01F0007E0000
03F0007E0000
03E0007E0000
07C0007E0000
07C0007E0000
0F80007E0000
0F80007E0000
1F00007E0000
1F00007E0000
3F00007E0000
3E00007E0000
7E00007E0000
7C00007E0000
7C00007E0000
FC00007E0000
FFFFFFFFFF00
FFFFFFFFFF80
FFFFFFFFFF80
FFFFFFFFFF80
7FFFFFFFFF00
0000007E0000
0000007E0000
0000007E0000
0000007E0000
0000007E0000
0000007E0000
0000007E0000
0000007E0000
0000007E0000
000000FE0000
000000FF0000
000003FFC000
00000FFFF000
00001FFFF000
00000FFFF000
ENDCHAR
STARTCHAR 0035
ENCODING 53
SWIDTH 540 0
DWIDTH 42 0
BBX 39 58 1 -1
BITMAP
0000000380
03FFFFFFC0
03FFFFFFC0
03FFFFFFC0
03FFFFFF00
03FFFFFC00
03FFFFC000
03C0000000
03C0000000
03C0000000
03C0000000
03C0000000
03C0000000
03C0000000
03C0000000
07C0000000
07C0000000
07C0000000
07C0000000
07C0000000
07C0000000
07C0000000
07C0FFC000
07C7FFF800
07BFFFFE00
07FFFFFF80
07FF01FFC0
07F8003FE0
07E0001FF0
0780000FF0
00000007F8
00000007F8
00000003FC
00000003FC
00000001FC
00000001FC
00000001FE
00000001FE
00000001FE
00000001FE
00000001FE
00000001FC
00000001FC
3E000001FC
7F000001FC
7F000003FC
FF000003F8
7F000007F8
7F000007F0
7F00000FF0
7F00001FE0
3F80003FC0
1FC000FF80
0FF003FF00
07FFFFFE00
03FFFFF800
00FFFFE000
001FFE0000
ENDCHAR
STARTCHAR 0036
ENCODING 54
SWIDTH 540 0
DWIDTH 42 0
BBX 37 58 3 -1
BITMAP
0000007F80
000007FF80
00001FFF80
00007FF800
0001FF8000
0007FC0000
000FF00000
001FE00000
003F800000
007F000000
00FE000000
01FC000000
03F8000000
07F0000000
07F0000000
0FE0000000
0FC0000000
1FC0000000
1F80000000
3F80000000
3F80000000
7F00000000
7F001F8000
7F01FFF000
7F0FFFFC00
FE3FFFFE00
FE7FFFFF80
FFFC00FF80
FFE0007FC0
FFC0001FE0
FF00000FE0
FF00000FF0
FE000007F0
FE000007F8
FE000003F8
FE000003F8
FE000003F8
FE000003F8
FE000003F8
FE000003F8
FE000003F8
FE000003F8
FE000003F8
7E000003F8
7F000003F8
7F000003F8
3F000007F0
3F800007F0
3F800007E0
1FC0000FE0
0FE0001FC0
0FF0001F80
07F8007F80
03FE00FF00
01FFFFFC00
007FFFF800
003FFFE000
0007FF0000
ENDCHAR
STARTCHAR 0037
ENCODING 55
SWIDTH 540 0
DWIDTH 42 0
BBX 35 57 5 -1
BITMAP
7FFFFFFFE0
FFFFFFFFE0
FFFFFFFFE0
FFFFFFFFC0
FFFFFFFFC0
FFFFFFFF80
FC00000F80
F800000F80
F000000F00
F000001F00
F000001F00
E000003E00
6000003E00
0000007C00
0000007C00
000000FC00
000000F800
000000F800
000001F000
000001F000
000003F000
000003E000
000007E000
000007C000
00000FC000
00000FC000
00000F8000
00001F8000
00001F8000
00003F0000
00003F0000
00007E0000
00007E0000
0000FE0000
0000FC0000
0000FC0000
0001FC0000
0001F80000
0003F80000
0003F80000
0007F00000
0007F00000
0007F00000
000FE00000
000FE00000
001FE00000
001FC00000
001FC00000
003FC00000
003F800000
003F800000
007F800000
007F800000
007F000000
00FF000000
00FF000000
007C000000
ENDCHAR
STARTCHAR 0038
ENCODING 56
SWIDTH 540 0
DWIDTH 42 0
BBX 39 58 2 -1
BITMAP
0003FFC000
001FFFF800
007FFFFE00
01FF83FF00
03F8007F80
07F0001FC0
07C0000FE0
0F800007E0
1F800003F0
1F000003F0
1F000003F0
3F000001F0
3F000001F0
3F000001F0
3F000003F0
3F000003F0
3F000003E0
3F800007E0
1FC00007C0
1FE0000F80
1FF0001F00
0FFC003F00
07FF80FC00
03FFE1F800
01FFFFE000
00FFFF8000
007FFFE000
001FFFF800
0007FFFE00
001FFFFF00
007F3FFF80
01FC0FFFE0
03F001FFE0
07E0007FF0
0FC0001FF8
1F80000FF8
3F000007FC
7F000003FC
7E000001FC
7E000001FC
FC000000FE
FC000000FE
FC000000FE
FC000000FC
FC000000FC
FC000000FC
FC000000FC
FC000000F8
7E000001F8
7E000001F0
3F000003F0
3F800007E0
1FC0001FC0
0FF0007F80
07FF03FE00
01FFFFFC00
007FFFE000
000FFF0000
ENDCHAR
STARTCHAR 0039
ENCODING 57
SWIDTH 540 0
DWIDTH 42 0
BBX 38 58 2 -1
BITMAP
0007FF8000
003FFFF000
007FFFF800
01FF9FFE00
03FC00FF00
07F0007F80
0FE0003F80
1FC0001FC0
1F80000FE0
3F80000FE0
3F000007F0
7F000007F0
7F000003F8
7F000003F8
7F000003F8
FE000003F8
FE000001FC
FE000001FC
FE000001FC
FE000001FC
FE000001FC
FF000001FC
7F000001FC
7F000001FC
7F000001FC
7F800003FC
3F800003FC
3FC00007FC
1FE0000FFC
1FF0003FFC
0FFE01FFF8
07FFFFFBF8
03FFFFE3F8
00FFFF83F8
003FFE03F8
00008003F0
00000007F0
00000007F0
00000007E0
0000000FE0
0000000FC0
0000001FC0
0000001F80
0000003F80
0000007F00
000000FE00
000001FE00
000003FC00
000007F800
00000FF000
00001FE000
00007F8000
0001FF0000
000FFC0000
01FFF80000
0FFFC00000
0FFF000000
07F8000000
ENDCHAR
STARTCHAR 003A
ENCODING 58
SWIDTH 270 0
DWIDTH 21 0
BBX 9 36 6 -1
BITMAP
0800
3E00
7F00
7F80
FF80
7F80
7F00
3F00
1C00
0000
0000
0000
0000
0000
0000
0000
0000
0000
0000
0000
0000
0000
0000
0000
0000
0000
0000
0000
3E00
7F00
7F80
FF80
FF80
7F80
7F00
3E00
ENDCHAR
STARTCHAR 003B
ENCODING 59
SWIDTH 270 0
DWIDTH 21 0
BBX 10 47 5 -12
BITMAP
3F00
7F00
7F80
FF80
FF80
7F80
7F00
3E00
0000
0000
0000
0000
0000
0000
0000
0000
0000
0000
0000
0000
0000
0000
0000
0000
0000
0000
0000
3F00
7F80
7F80
FFC0
FFC0
7FC0
7FC0
3FC0
01C0
01C0
01C0
0180
0380
0380
0700
0600
0E00
1C00
3800
3000
ENDCHAR
STARTCHAR 003C
ENCODING 60
SWIDTH 822 0
DWIDTH 64 0
BBX 45 40 10 3
BITMAP
000000000038
0000000000F8
0000000007F8
000000001FF8
000000007FF0
00000003FFC0
0000000FFE00
0000007FF800
000001FFE000
00000FFF0000
00003FFC0000
0000FFE00000
0007FF800000
001FFC000000
00FFF0000000
03FF80000000
1FFE00000000
7FF800000000
FFC000000000
FF0000000000
FF0000000000
FFE000000000
3FF800000000
0FFF00000000
01FFC0000000
007FF8000000
000FFE000000
0003FFC00000
0000FFF00000
00001FFE0000
000007FF8000
000000FFF000
0000003FFC00
00000007FF80
00000001FFE0
000000007FF8
000000000FF8
0000000003F8
000000000078
000000000018
ENDCHAR
STARTCHAR 003D
ENCODING 61
SWIDTH 822 0
DWIDTH 64 0
BBX 45 19 10 14
BITMAP
FFFFFFFFFFF8
FFFFFFFFFFF8
FFFFFFFFFFF8
FFFFFFFFFFF8
FFFFFFFFFFF8
000000000000
000000000000
000000000000
000000000000
000000000000
000000000000
000000000000
000000000000
000000000000
000000000000
FFFFFFFFFFF8
FFFFFFFFFFF8
FFFFFFFFFFF8
FFFFFFFFFFF8
ENDCHAR
STARTCHAR 003E
ENCODING 62
SWIDTH 822 0
DWIDTH 64 0
BBX 45 40 10 3
BITMAP
C00000000000
F80000000000
FE0000000000
FFC000000000
FFF000000000
1FFE00000000
07FF80000000
00FFF0000000
003FFC000000
0007FF000000
0001FFE00000
00003FF80000
00000FFF0000
000003FFC000
0000007FF800
0000001FFE00
00000003FFC0
00000000FFF0
000000001FF8
0000000007F8
000000000FF8
000000003FF8
00000001FFE0
00000007FF80
0000003FFC00
000000FFF000
000003FF8000
00001FFE0000
00007FF00000
0003FFC00000
000FFE000000
007FF8000000
01FFE0000000
0FFF00000000
3FFC00000000
FFE000000000
FF8000000000
FC0000000000
F00000000000
C00000000000
ENDCHAR
STARTCHAR 003F
ENCODING 63
SWIDTH 437 0
DWIDTH 34 0
BBX 29 58 2 -1
BITMAP
00FFF000
03FFFC00
0FFFFF00
1F803F80
3F000FC0
7E0007E0
7E0007E0
FE0003F0
FE0001F0
FE0001F8
FE0001F8
FE0001F8
7C0001F8
000001F8
000001F8
000001F8
000001F8
000001F8
000001F8
000001F8
000003F8
000007F0
000007F0
00000FE0
00001FE0
00007FC0
0000FF80
0003FF00
000FFE00
003FFC00
007FF000
007FC000
007F0000
007C0000
00780000
00780000
00780000
00780000
00700000
00700000
00700000
00700000
00700000
00000000
00000000
00000000
00000000
00000000
00000000
00000000
007C0000
00FE0000
01FE0000
01FE0000
01FE0000
01FE0000
00FE0000
00780000
ENDCHAR
STARTCHAR 0040
ENCODING 64
SWIDTH 977 0
DWIDTH 76 0
BBX 66 66 5 -11
BITMAP
00000003FFF8000000
0000003FFFFF800000
000001FC0007F00000
000007E000007C0000
00001F0000001E0000
00007C000000078000
0000F000000001C000
0003E000000000E000
000780000000007000
000F00000000003800
001E00000000001C00
003C00000000000C00
007800000000000600
00F000000000000600
01F000000000000300
03E000000000000300
03C000000000000180
07C00000FF01F00180
07800003F3C3F00080
0F80000F80E3F000C0
0F00001F0063E000C0
1F00003E0033E000C0
1E0000FC0037E000C0
3E0000F8001FE000C0
3E0001F8001FC000C0
3C0003F0001FC000C0
7C0007F0001FC000C0
7C0007E0001F8000C0
7C000FE0001F8000C0
78000FC0001F8000C0
78001FC0001F8000C0
78001F80003F0000C0
78001F80003F0000C0
F8003F80003F000180
F8003F00003E000180
F8003F00007E000180
78003F00007E000300
78003F0000FE000300
78003F0000FC000600
78003F0001FC000600
78003E0001FC000C00
78003E0003FC001C00
7C001F0003F8001800
3C001F0006F8003000
3C001F000EF8006000
3C000F001C7800E000
1E0007803878038000
1E0007C0703C070000
0F0001FFE01F7E0000
0F0000FF800FF00000
078000000000000000
07C000000000000000
03C000000000000000
01E000000000000000
00F000000000000000
007800000000000000
003C00000000003000
001F00000000007000
000F8000000001E000
0007E0000000078000
0001F80000001F0000
00007E000000780000
00001FC00003E00000
000007FF81FF800000
0000007FFFF8000000
000000007F00000000
ENDCHAR
STARTCHAR 0041
ENCODING 65
SWIDTH 655 0
DWIDTH 51 0
BBX 53 57 -1 0
BITMAP
00000070000000
000000F0000000
000001F8000000
000001FC000000
000003FC000000
000003FE000000
000007FF000000
000007FF000000
00000FFF800000
00000FBF800000
00001FBFC00000
00001F1FC00000
00003F1FE00000
00003E0FE00000
00007E0FF00000
00007C07F00000
0000FC07F80000
0000F803F80000
0000F803F80000
0001F001FC0000
0001F001FC0000
0003F001FE0000
0003E000FE0000
0007E000FF0000
0007C0007F0000
0007C0007F0000
000F80007F8000
000F80003F8000
001F80003FC000
001F00001FC000
001F00001FC000
003F00001FE000
003E00000FE000
003FFFFFFFE000
007FFFFFFFF000
007FFFFFFFF000
00FFFFFFFFF000
00FC000003F800
00F8000003F800
01F8000003F800
01F0000001FC00
01F0000001FC00
03F0000001FC00
03F0000000FE00
03E0000000FE00
07E0000000FE00
07E00000007F00
07C00000007F00
0FC00000007F00
0FC00000007F80
1FC00000007F80
1FC00000007F80
1FE0000000FFC0
3FF8000001FFE0
7FFC000003FFF0
FFFC000003FFF8
7FF8000003FFF0
ENDCHAR
STARTCHAR 0042
ENCODING 66
SWIDTH 655 0
DWIDTH 51 0
BBX 47 56 2 0
BITMAP
7FFFFFFF8000
FFFFFFFFF800
7FFFFFFFFE00
3FFFFFFFFF00
0FFC000FFF80
07F80000FFC0
07F000003FC0
07F000001FE0
07F000001FE0
07F000000FE0
07F000000FF0
07F000000FF0
07F000000FF0
07F000000FF0
07F000000FE0
07F000000FE0
07F000001FE0
07F000001FC0
07F000003FC0
07F000007F80
07F00001FF00
07F00003FE00
07F0000FF800
07F0007FF000
07F003FFC000
07F01FFE0000
07F3FFFFF000
07FFFFFFFE00
07FFFF0FFF80
07FFF001FFC0
07FE00007FE0
07F000001FF0
07F000000FF8
07F0000007FC
07F0000003FC
07F0000001FE
07F0000001FE
07F0000001FE
07F0000000FE
07F0000000FE
07F0000000FE
07F0000000FE
07F0000000FE
07F0000001FE
07F0000001FE
07F0000001FE
07F0000003FC
07F0000007FC
07F000000FF8
07F800003FF8
0FF80000FFF0
0FFF001FFFE0
3FFFFFFFFFC0
7FFFFFFFFF00
7FFFFFFFFC00
7FFFFFFFC000
ENDCHAR
STARTCHAR 0043
ENCODING 67
SWIDTH 694 0
DWIDTH 54 0
BBX 50 59 3 -2
BITMAP
00000FFFF80000
00007FFFFF0000
0001FFFFFFE000
0007FFFFFFF800
000FFC007FFC00
003FE0001FFE00
007FC00007FE00
00FF000003FE00
01FE000000FE00
03FC000000FE00
07F80000007E00
07F80000003E00
0FF00000001E00
1FE00000001E00
1FE00000000E00
3FC00000000E00
3FC00000000400
3F800000000000
7F800000000000
7F800000000000
7F800000000000
FF000000000000
FF000000000000
FF000000000000
FF000000000000
FF000000000000
FF000000000000
FF000000000000
FF000000000000
FF000000000000
FF000000000000
FF000000000000
FF000000000000
FF000000000000
FF000000000000
FF000000000000
FF000000000000
FF800000000000
7F800000000000
7F800000000000
7F800000000000
7FC00000000000
3FC00000000000
3FE00000000100
1FE00000000380
1FF000000007C0
0FF80000000F80
0FFC0000001F80
07FE0000003F00
03FF0000007F00
01FF800001FE00
00FFE00003FC00
007FF8001FF800
003FFFC3FFE000
001FFFFFFFC000
0007FFFFFF0000
0001FFFFFC0000
00003FFFF00000
000000FA000000
ENDCHAR
STARTCHAR 0044
ENCODING 68
SWIDTH 720 0
DWIDTH 56 0
BBX 52 56 2 0
BITMAP
7FFFFFFC000000
FFFFFFFFC00000
7FFFFFFFF00000
3FFFFFFFFC0000
0FFC001FFF0000
07F80001FF8000
07F000007FE000
07F000001FF000
07F000000FF800
07F0000007FC00
07F0000003FC00
07F0000001FE00
07F0000000FF00
07F0000000FF00
07F00000007F80
07F00000007F80
07F00000003FC0
07F00000003FC0
07F00000003FC0
07F00000001FE0
07F00000001FE0
07F00000001FE0
07F00000001FE0
07F00000001FE0
07F00000000FE0
07F00000001FF0
07F00000000FF0
07F00000000FF0
07F00000000FF0
07F00000000FF0
07F00000000FE0
07F00000001FE0
07F00000001FE0
07F00000001FE0
07F00000001FE0
07F00000001FE0
07F00000001FE0
07F00000003FC0
07F00000003FC0
07F00000003FC0
07F00000007F80
07F00000007F80
07F0000000FF00
07F0000001FF00
07F0000001FE00
07F0000003FC00
07F0000007F800
07F000001FF800
07F000003FE000
07F80000FFC000
0FF80003FF8000
0FFE003FFE0000
3FFFFFFFF80000
7FFFFFFFE00000
7FFFFFFF000000
7FFFFFF0000000
ENDCHAR
STARTCHAR 0045
ENCODING 69
SWIDTH 604 0
DWIDTH 47 0
BBX 45 56 2 0
BITMAP
7FFFFFFFFF80
FFFFFFFFFFC0
7FFFFFFFFFC0
3FFFFFFFFFC0
0FFE0001FFC0
07F800001FC0
07F0000007C0
07F0000003C0
07F0000001C0
07F000000000
07F000000000
07F000000000
07F000000000
07F000000000
07F000000000
07F000000000
07F000000000
07F000000000
07F000000000
07F000000000
07F000000000
07F000003000
07F00000F800
07FFFFFFF800
07FFFFFFF800
07FFFFFFF800
07FFFFFFF800
07FFFFFFF800
07F00000F800
07F000003000
07F000000000
07F000000000
07F000000000
07F000000000
07F000000000
07F000000000
07F000000000
07F000000000
07F000000000
07F000000000
07F000000000
07F000000000
07F000000000
07F000000000
07F000000000
07F000000010
07F000000038
07F000000078
07F0000001F8
07F0000003F8
0FF800001FF8
0FFF800FFFF0
3FFFFFFFFFF0
7FFFFFFFFFF0
7FFFFFFFFFF0
7FFFFFFFFFC0
ENDCHAR
STARTCHAR 0046
ENCODING 70
SWIDTH 552 0
DWIDTH 43 0
BBX 41 56 2 0
BITMAP
7FFFFFFFFE00
FFFFFFFFFF00
7FFFFFFFFF80
3FFFFFFFFF80
0FFC0007FF80
07F800003F80
07F000000F80
07F000000780
07F000000380
07F000000000
07F000000000
07F000000000
07F000000000
07F000000000
07F000000000
07F000000000
07F000000000
07F000000000
07F000000000
07F000000000
07F000000000
07F000000000
07F000000000
07F00000E000
07F00007F000
07FFFFFFF000
07FFFFFFF000
07FFFFFFF000
07FFFFFFF000
07F0001FF000
07F00001F000
07F000006000
07F000000000
07F000000000
07F000000000
07F000000000
07F000000000
07F000000000
07F000000000
07F000000000
07F000000000
07F000000000
07F000000000
07F000000000
07F000000000
07F000000000
07F000000000
07F000000000
07F000000000
07F000000000
0FF000000000
1FF800000000
7FFE00000000
FFFF80000000
FFFF80000000
7FFF00000000
ENDCHAR
STARTCHAR 0047
ENCODING 71
SWIDTH 771 0
DWIDTH 60 0
BBX 52 59 3 -2
BITMAP
000003FFFE0000
00001FFFFFC000
0000FFFFFFF800
0001FFFFFFFC00
0007FF000FFF00
000FF80003FF80
003FE00000FF80
007FC000003F80
00FF8000001FC0
01FF0000000FC0
03FE0000000FC0
03FC00000007C0
07F800000003C0
0FF000000003C0
0FF000000001C0
1FE00000000180
1FE00000000000
3FC00000000000
3FC00000000000
7FC00000000000
7F800000000000
7F800000000000
7F800000000000
FF000000000000
FF000000000000
FF000000000000
FF000000000000
FF000000000000
FF00000000FF00
FF0000007FFFE0
FF0000007FFFF0
FF0000007FFFF0
FF00000001FFF0
FF000000000FF0
FF0000000007F0
FF0000000007F0
FF0000000007F0
7F8000000007F0
7F8000000007F0
7F8000000007F0
7FC000000007F0
3FC000000007F0
3FC000000007F0
1FE000000007F0
1FF000000007F0
0FF000000007F0
0FF800000007F0
07FC00000007F0
03FE0000000FF0
01FF0000000FF0
00FF8000001FF0
007FE000003FE0
003FF00000FFC0
001FFE0003FF00
000FFFF83FFE00
0003FFFFFFF000
0000FFFFFFC000
00001FFFFE0000
0000001E000000
ENDCHAR
STARTCHAR 0048
ENCODING 72
SWIDTH 758 0
DWIDTH 59 0
BBX 55 56 2 0
BITMAP
7FFF000000FFFE
FFFF000000FFFE
7FFF000000FFFE
3FFE0000007FFC
0FF80000001FF0
07F00000000FE0
07F00000000FE0
07F00000000FE0
07F00000000FE0
07F00000000FE0
07F00000000FE0
07F00000000FE0
07F00000000FE0
07F00000000FE0
07F00000000FE0
07F00000000FE0
07F00000000FE0
07F00000000FE0
07F00000000FE0
07F00000000FE0
07F00000000FE0
07F00000000FE0
07F00000000FE0
07FFFFFFFFFFE0
07FFFFFFFFFFE0
07FFFFFFFFFFE0
07FFFFFFFFFFE0
07FFFFFFFFFFE0
07F00000000FE0
07F00000000FE0
07F00000000FE0
07F00000000FE0
07F00000000FE0
07F00000000FE0
07F00000000FE0
07F00000000FE0
07F00000000FE0
07F00000000FE0
07F00000000FE0
07F00000000FE0
07F00000000FE0
07F00000000FE0
07F00000000FE0
07F00000000FE0
07F00000000FE0
07F00000000FE0
07F00000000FE0
07F00000000FE0
07F00000000FE0
07F00000000FE0
0FF00000000FE0
0FF80000001FF0
3FFE0000007FFC
7FFF000000FFFE
7FFF000000FFFE
7FFF000000FFFE
ENDCHAR
STARTCHAR 0049
ENCODING 73
SWIDTH 270 0
DWIDTH 21 0
BBX 16 56 3 0
BITMAP
FFFE
FFFF
FFFE
7FFC
1FF0
0FF0
0FE0
0FE0
0FE0
0FE0
0FE0
0FE0
0FE0
0FE0
0FE0
0FE0
0FE0
0FE0
0FE0
0FE0
0FE0
0FE0
0FE0
0FE0
0FE0
0FE0
0FE0
0FE0
0FE0
0FE0
0FE0
0FE0
0FE0
0FE0
0FE0
0FE0
0FE0
0FE0
0FE0
0FE0
0FE0
0FE0
0FE0
0FE0
0FE0
0FE0
0FE0
0FE0
0FE0
0FE0
0FF0
1FF8
7FFC
FFFE
FFFF
FFFE
ENDCHAR
STARTCHAR 004A
ENCODING 74
SWIDTH 450 0
DWIDTH 35 0
BBX 33 58 0 -2
BITMAP
00007FFF80
00007FFF80
00007FFF80
00001FFE00
000007FC00
000003F800
000003F800
000003F800
000003F800
000003F800
000003F800
000003F800
000003F800
000003F800
000003F800
000003F800
000003F800
000003F800
000003F800
000003F800
000003F800
000003F800
000003F800
000003F800
000003F800
000003F800
000003F800
000003F800
000003F800
000003F800
000003F800
000003F800
000003F800
000003F800
000003F800
000003F800
038003F800
1FE003F800
3FE003F800
7FE003F800
7FE003F800
FFC003F800
FF0003F800
FC0003F800
F80003F800
F00003F800
F00003F800
F00003F000
F80007F000
F80007F000
FC000FE000
7E001FE000
7F003FC000
3FF1FFC000
1FFFFF0000
07FFFE0000
01FFF80000
001F800000
ENDCHAR
STARTCHAR 004B
ENCODING 75
SWIDTH 617 0
DWIDTH 48 0
BBX 48 56 2 0
BITMAP
7FFF0003FFF8
FFFF0003FFFC
7FFF0003FFF8
3FFE0001FFF0
0FF800007FC0
07F000007F80
07F000007F00
07F000007E00
07F00000FC00
07F00001F800
07F00001F800
07F00003F000
07F00007E000
07F0000FC000
07F0001F8000
07F0003F0000
07F0007E0000
07F000FC0000
07F001F80000
07F003F00000
07F007F00000
07F00FE00000
07F01FC00000
07F03FE00000
07F07FF00000
07F0FFF80000
07F1FFFC0000
07F3FBFE0000
07F7F1FE0000
07FFC1FF0000
07FF80FF8000
07FF007FC000
07FE003FC000
07FC001FE000
07F8000FF000
07F00007F000
07F00007F800
07F00003FC00
07F00001FC00
07F00001FE00
07F00000FF00
07F000007F00
07F000007F80
07F000003F80
07F000003FC0
07F000001FC0
07F000001FE0
07F000000FE0
07F000000FF0
07F000000FF0
0FF000000FF8
0FF800000FFC
3FFE00003FFF
7FFF00007FFF
7FFF00007FFF
7FFF00003FFF
ENDCHAR
STARTCHAR 004C
ENCODING 76
SWIDTH 578 0
DWIDTH 45 0
BBX 44 56 2 0
BITMAP
7FFF80000000
FFFF80000000
7FFF80000000
3FFE00000000
0FF800000000
07F000000000
07F000000000
07F000000000
07F000000000
07F000000000
07F000000000
07F000000000
07F000000000
07F000000000
07F000000000
07F000000000
07F000000000
07F000000000
07F000000000
07F000000000
07F000000000
07F000000000
07F000000000
07F000000000
07F000000000
07F000000000
07F000000000
07F000000000
07F000000000
07F000000000
07F000000000
07F000000000
07F000000000
07F000000000
07F000000000
07F000000000
07F000000000
07F000000000
07F000000000
07F000000000
07F000000000
07F000000000
07F000000000
07F000000000
07F000000000
07F000000000
07F000000020
07F0000000F0
07F0000001F0
07F0000007F0
0FF800003FF0
0FFF0007FFE0
3FFFFFFFFFE0
7FFFFFFFFFE0
7FFFFFFFFFE0
7FFFFFFFFFC0
ENDCHAR
STARTCHAR 004D
ENCODING 77
SWIDTH 822 0
DWIDTH 64 0
BBX 61 56 1 0
BITMAP
7FFC00000000FFF8
7FFE00000001FFF8
7FFF00000001FFF8
1FFF00000003FFF0
07FF00000003FF80
03FF80000007FF00
03FF80000007FF00
03FFC0000007FF00
03FFC000000FFF00
03EFC000000FFF00
03EFE000000FFF00
03EFE000001F7F00
03E7F000001F7F00
03E7F000003E7F00
03E3F000003E7F00
03E3F800003E7F00
03E1F800007C7F00
03E1FC00007C7F00
03E1FC0000F87F00
03E0FE0000F87F00
03E0FE0001F87F00
03E07E0001F07F00
03E07F0003F07F00
03E07F0003E07F00
03E03F8007E07F00
03E03F8007C07F00
03E01FC007C07F00
03E01FC00F807F00
03E00FC00F807F00
03E00FE01F807F00
03E00FE01F007F00
03E007F03F007F00
03E007F03E007F00
03E003F87E007F00
03E003F87C007F00
03E001FCFC007F00
03E001FCF8007F00
03E000FFF8007F00
03E000FFF0007F00
07E000FFF0007F00
07E0007FE0007F00
07E0007FE0007F00
07E0003FC0007F00
07E0003FC0007F00
07E0001F80007F00
07E0001F80007F00
07E0000F00007F00
07E0000700007F00
07E0000000007F00
07E0000000007F80
07E0000000007F80
0FF0000000007FC0
3FFC00000001FFE0
FFFE00000007FFF8
FFFF00000007FFF8
FFFE00000007FFF8
ENDCHAR
STARTCHAR 004E
ENCODING 78
SWIDTH 720 0
DWIDTH 56 0
BBX 55 57 0 -1
BITMAP
7FFC000000FFFE
FFFE000000FFFE
7FFF0000007FFC
3FFF8000001FF8
07FFC0000007E0
03FFE0000007E0
03FFE0000007C0
03FFF0000007C0
01FFF8000007C0
01F7FC000007C0
01F3FE000007C0
01F1FE000007C0
01F0FF000007C0
01F07F800007C0
01F07FC00007C0
01F03FE00007C0
01F01FE00007C0
01F00FF00007C0
01F007F80007C0
01F007FC0007C0
01F003FE0007C0
01F001FE0007C0
01F000FF0007C0
01F0007F8007C0
01F0007FC007C0
01F0003FC007C0
01F0001FE007C0
01F0000FF007C0
01F0000FF007C0
01F00007F807C0
01F00003FC07C0
01F00001FE07C0
01F00001FE07C0
01F00000FF07C0
01F000007F87C0
01F000003F87C0
01F000003FC7C0
01F000001FE7C0
01F000000FE7C0
01F000000FF7C0
01F0000007FFC0
01F0000003FFC0
01F0000003FFC0
01F0000001FFC0
03F0000000FFC0
03F0000000FFC0
03F00000007FC0
03F00000003FC0
03F00000003FC0
03F00000001FC0
03F00000001FC0
07F80000000FC0
1FFF00000007C0
7FFFC0000007C0
7FFFC0000003C0
7FFFC0000001C0
00000000000080
ENDCHAR
STARTCHAR 004F
ENCODING 79
SWIDTH 758 0
DWIDTH 59 0
BBX 54 59 3 -2
BITMAP
00000FFFC00000
00007FFFF80000
0001FFFFFE0000
0007FFFFFF8000
001FFC00FFE000
003FE0001FF000
007F80000FF800
00FF000003FC00
01FE000001FE00
03FC000000FF00
07F80000007F80
07F00000003F80
0FF00000003FC0
1FE00000001FC0
1FC00000001FE0
3FC00000000FE0
3FC00000000FF0
3F800000000FF0
7F8000000007F8
7F8000000007F8
7F0000000007F8
FF0000000007F8
FF0000000003F8
FF0000000003FC
FF0000000003FC
FF0000000003FC
FF0000000003FC
FF0000000003FC
FF0000000003FC
FF0000000003FC
FF0000000003FC
FF0000000003FC
FF0000000003FC
FF0000000003FC
FF0000000003FC
FF0000000003F8
FF0000000007F8
7F0000000007F8
7F8000000007F8
7F8000000007F8
3F800000000FF0
3FC00000000FF0
3FC00000000FF0
1FC00000001FE0
1FE00000001FE0
0FE00000003FC0
0FF00000003F80
07F80000007F80
03FC000000FF00
01FE000001FE00
00FF000003FC00
007F800007F800
003FE0001FF000
001FF8007FE000
000FFFFFFFC000
0003FFFFFF0000
0000FFFFFC0000
00001FFFE00000
00000070000000
ENDCHAR
STARTCHAR 0050
ENCODING 80
SWIDTH 604 0
DWIDTH 47 0
BBX 44 56 2 0
BITMAP
7FFFFFFC0000
FFFFFFFFC000
7FFFFFFFF000
3FFFFFFFFC00
0FFE003FFF00
07F80003FF80
07F80000FF80
07F000007FC0
07F000003FE0
07F000001FE0
07F000001FE0
07F000000FF0
07F000000FF0
07F000000FF0
07F000000FF0
07F000000FF0
07F000000FF0
07F000000FF0
07F000000FE0
07F000001FE0
07F000001FE0
07F000003FC0
07F000003FC0
07F000007F80
07F00000FF80
07F00003FF00
07F0000FFE00
07F0003FF800
07F001FFF000
07F07FFFC000
07FFFFFF0000
07FFFFF80000
07FFFFC00000
07FFF8000000
07F000000000
07F000000000
07F000000000
07F000000000
07F000000000
07F000000000
07F000000000
07F000000000
07F000000000
07F000000000
07F000000000
07F000000000
07F000000000
07F000000000
07F000000000
07F000000000
0FF000000000
0FFC00000000
3FFF00000000
7FFF80000000
7FFF80000000
7FFF80000000
ENDCHAR
STARTCHAR 0051
ENCODING 81
SWIDTH 758 0
DWIDTH 59 0
BBX 54 68 3 -11
BITMAP
00000FFFC00000
00007FFFF80000
0003FFFFFE0000
0007FFFFFF8000
001FFC00FFE000
003FE0001FF000
007F80000FF800
00FF000003FC00
01FE000001FE00
03FC000000FF00
07F80000007F00
07F00000003F80
0FF00000003FC0
1FE00000001FC0
1FC00000001FE0
3FC00000000FE0
3FC00000000FF0
3F800000000FF0
7F8000000007F0
7F8000000007F8
7F0000000007F8
FF0000000007F8
FF0000000003F8
FF0000000003FC
FF0000000003FC
FF0000000003FC
FF0000000003FC
FF0000000003FC
FF0000000003FC
FF0000000003FC
FF0000000003FC
FF0000000003FC
FF0000000003FC
FF0000000003FC
FF0000000003FC
FF0000000003F8
FF0000000007F8
7F0000000007F8
7F8000000007F8
7F8000000007F8
7F800000000FF0
3FC00000000FF0
3FC00000000FE0
1FC00038001FE0
1FE00038001FC0
0FF00038003FC0
0FF0003C003F80
07F8003C007F80
03FC003C00FF00
03FE003C01FE00
01FF001E03FC00
00FF801E07F800
007FE01E1FF000
001FF80F7FE000
000FFFFFFF8000
0003FFFFFF0000
0000FFFFF80000
00001FFFE00000
0000007FF00000
00000001FC0000
00000000FF0000
000000007FF000
000000003FFFF8
000000001FFFF8
000000000FFFF8
0000000003FFF8
0000000000FFF8
00000000003FF0
ENDCHAR
STARTCHAR 0052
ENCODING 82
SWIDTH 642 0
DWIDTH 50 0
BBX 48 56 2 0
BITMAP
7FFFFFFF0000
FFFFFFFFF800
7FFFFFFFFE00
3FFFFFFFFF80
0FFE003FFFC0
07F80001FFC0
07F000007FE0
07F000003FF0
07F000001FF0
07F000000FF0
07F000000FF0
07F000000FF0
07F0000007F0
07F0000007F0
07F0000007F0
07F000000FF0
07F000000FF0
07F000000FF0
07F000001FE0
07F000003FE0
07F000007FC0
07F00000FF80
07F00001FF00
07F00007FE00
07F0003FFC00
07F001FFF000
07F03FFFE000
07FFFFFF8000
07FFFFFF0000
07FFFFFF8000
07FFFC7FC000
07FE003FC000
07F0001FE000
07F0000FF000
07F0000FF000
07F00007F800
07F00003F800
07F00003FC00
07F00001FC00
07F00000FE00
07F00000FE00
07F000007F00
07F000007F00
07F000003F80
07F000003F80
07F000001FC0
07F000001FC0
07F000001FE0
07F000000FE0
07F000000FF0
0FF000000FF0
0FFC00001FF8
3FFF00003FFE
7FFF8000FFFF
7FFF8000FFFF
7FFF0000FFFF
ENDCHAR
STARTCHAR 0053
ENCODING 83
SWIDTH 578 0
DWIDTH 45 0
BBX 42 59 1 -2
BITMAP
0003FFF80000
001FFFFF0000
003FFFFFC000
00FFC7FFF000
01FC007FF800
03F8000FF800
07E00007F800
07E00003F800
0FC00000F800
0F8000007800
1F8000007800
1F8000003800
1F8000001800
3F8000000000
3F8000000000
3F8000000000
3F8000000000
3FC000000000
1FC000000000
1FE000000000
1FF000000000
1FFC00000000
0FFF80000000
07FFF0000000
07FFFF800000
03FFFFFC0000
01FFFFFF8000
007FFFFFE000
001FFFFFF000
0007FFFFFC00
00007FFFFE00
000003FFFE00
0000003FFF00
00000007FF00
00000000FF80
000000007F80
000000003F80
000000001FC0
000000001FC0
000000001FC0
000000000FC0
000000000FC0
700000000FC0
F00000000F80
F80000000F80
FC0000001F80
FC0000001F80
7E0000003F00
7F0000003F00
3F8000007E00
3FC00000FE00
1FE00001FC00
0FF80007F800
07FE003FF000
01FFFFFFE000
00FFFFFF8000
003FFFFE0000
000FFFF80000
00005E000000
ENDCHAR
STARTCHAR 0054
ENCODING 84
SWIDTH 591 0
DWIDTH 46 0
BBX 46 56 0 0
BITMAP
3FFFFFFFFFF0
7FFFFFFFFFF8
7FFFFFFFFFF8
7FFFFFFFFFF8
7FF01FE01FF8
7F801FE007FC
FE000FE001FC
FC000FE000FC
F8000FE0003C
F0000FE0001C
00000FE00000
00000FE00000
00000FE00000
00000FE00000
00000FE00000
00000FE00000
00000FE00000
00000FE00000
00000FE00000
00000FE00000
00000FE00000
00000FE00000
00000FE00000
00000FE00000
00000FE00000
00000FE00000
00000FE00000
00000FE00000
00000FE00000
00000FE00000
00000FE00000
00000FE00000
00000FE00000
00000FE00000
00000FE00000
00000FE00000
00000FE00000
00000FE00000
00000FE00000
00000FE00000
00000FE00000
00000FE00000
00000FE00000
00000FE00000
00000FE00000
00000FE00000
00000FE00000
00000FE00000
00000FE00000
00000FE00000
00001FE00000
00001FF00000
00007FFC0000
0001FFFE0000
0001FFFE0000
0001FFFE0000
ENDCHAR
STARTCHAR 0055
ENCODING 85
SWIDTH 707 0
DWIDTH 55 0
BBX 51 58 2 -2
BITMAP
FFFF00000FFFC0
FFFF00000FFFE0
FFFF00000FFFC0
7FFE000007FF80
1FF8000001FF00
0FF0000000FE00
0FF00000007E00
0FF00000007E00
0FE00000007E00
0FE00000007E00
0FE00000007E00
0FE00000003E00
0FE00000003E00
0FE00000003E00
0FE00000003E00
0FC00000003E00
0FC00000003E00
0FC00000003E00
1FC00000003E00
1FC00000003E00
1FC00000003E00
1FC00000003E00
1FC00000003E00
1FC00000003E00
1FC00000003E00
1FC00000003F00
1FC00000003F00
1FC00000003F00
1FC00000003F00
1FC00000003F00
1FC00000003F00
1FC00000003F00
1FC00000003F00
1FC00000003F00
1FC00000003F00
1FC00000003F00
1FC00000003F00
1FC00000003F00
1FC00000003E00
1FC00000003E00
0FC00000007E00
0FE00000007E00
0FE00000007E00
0FE00000007C00
07F0000000FC00
07F0000000FC00
07F8000001F800
03F8000003F800
03FC000003F000
01FE000007E000
00FF80001FE000
00FFE0007FC000
007FF803FF8000
003FFFFFFF0000
000FFFFFFC0000
0003FFFFF00000
0000FFFF800000
000001E0000000
ENDCHAR
STARTCHAR 0056
ENCODING 86
SWIDTH 655 0
DWIDTH 51 0
BBX 51 58 0 -2
BITMAP
FFFC000007FFE0
FFFE000007FFE0
FFFC000007FFC0
7FF8000001FFC0
3FE00000007F80
3FE00000007F00
1FE00000003F00
1FC00000003F00
1FE00000007E00
1FE00000007E00
0FE00000007E00
0FE00000007E00
0FE00000007C00
07E0000000FC00
07F0000000FC00
07F0000000F800
07F0000000F800
03F8000001F800
03F8000001F000
03F8000001F000
01F8000003F000
01FC000003E000
01FC000003E000
01FC000007E000
00FE000007C000
00FE000007C000
007F00000FC000
007F00000F8000
007F00000F8000
003F80001F8000
003F80001F0000
003F80003F0000
001FC0003F0000
001FC0003E0000
000FE0007E0000
000FE0007C0000
000FF000FC0000
0007F000F80000
0007F001F80000
0003F801F80000
0003F803F00000
0001FC03F00000
0001FC07E00000
0001FE07E00000
0000FF0FC00000
0000FF0FC00000
00007F9F800000
00007F9F800000
00003FFF000000
00003FFF000000
00001FFE000000
00001FFE000000
00000FFC000000
000007F8000000
000007F8000000
000003F0000000
000001E0000000
00000040000000
ENDCHAR
STARTCHAR 0057
ENCODING 87
SWIDTH 925 0
DWIDTH 72 0
BBX 71 58 0 -2
BITMAP
7FFE0003FFE0003FFE
FFFF0007FFF0003FFE
FFFE0007FFF0003FFE
7FF80001FFE0001FFC
1FE00000FF800007F8
1FE000007F000003F0
1FE000007F000001F0
0FC000007F000001F0
0FE000007F000001E0
0FE000007F000001E0
0FE000007F000003E0
0FE000007F000003E0
07E00000FF000003E0
07E00000FF000003E0
07E00000FF000003C0
07F00000FF800003C0
07F00000FF800007C0
03F00001FF800007C0
03F00001FF80000780
03F80001FFC0000780
03F80001FFC0000780
01F80003EFC0000F80
01F80003EFE0000F80
01F80003EFE0000F00
01FC0007CFE0001F00
00FC0007C7F0001F00
00FC0007C7F0001F00
00FE000F87F0001E00
00FE000F83F8003E00
00FE000F83F8003E00
007E001F03F8003E00
007F001F01FC007C00
007F001F01FC007C00
003F003E01FC007C00
003F803E00FE007C00
003F803E00FE00F800
003F807C00FF00F800
001FC07C007F00F800
001FC0FC007F01F000
001FC0F8003F81F000
000FE0F8003F81F000
000FE1F8003FC3E000
000FE1F0001FC3E000
000FF3F0001FE7E000
0007F3F0000FE7C000
0007F3E0000FF7C000
0007FFE0000FFFC000
0003FFC00007FF8000
0003FFC00007FF8000
0003FFC00003FF8000
0001FF800003FF0000
0001FF800001FF0000
0000FF000001FE0000
0000FF000000FE0000
0000FE000000FC0000
00007C0000007C0000
00003C000000380000
000010000000100000
ENDCHAR
STARTCHAR 0058
ENCODING 88
SWIDTH 655 0
DWIDTH 51 0
BBX 50 56 1 0
BITMAP
7FFF0000FFFE00
FFFF0000FFFE00
7FFE00007FFC00
3FFC00001FF800
0FF800000FE000
07F800000FE000
07F800000FC000
03FC00000F8000
01FC00001F0000
01FE00001F0000
00FE00003E0000
00FF00007C0000
007F80007C0000
003F8000F80000
003FC001F00000
001FE001F00000
000FF003E00000
000FF007C00000
0007F80FC00000
0003FC0F800000
0003FE1F000000
0001FF3E000000
0000FFFE000000
00007FFC000000
00007FF8000000
00003FF0000000
00001FF0000000
00000FF8000000
00000FFC000000
00001FFE000000
00001FFE000000
00003EFF000000
00007EFF800000
0000FC7FC00000
0000F83FE00000
0001F01FE00000
0003F00FF00000
0003E007F80000
0007C003FC0000
000FC001FC0000
001F8001FE0000
001F0000FF0000
003F00007F0000
007E00003F8000
007E00003FC000
00FC00001FC000
01F800001FE000
01F800000FF000
03F000000FF000
07F0000007F800
07F0000007FC00
0FF0000007FE00
3FF800000FFF80
7FFC00001FFFC0
FFFE00003FFFC0
FFFE00001FFFC0
ENDCHAR
STARTCHAR 0059
ENCODING 89
SWIDTH 655 0
DWIDTH 51 0
BBX 52 56 -1 0
BITMAP
FFFE000003FFF0
FFFF000003FFF0
FFFE000003FFE0
7FFC000000FFC0
1FF80000007F80
0FF00000003F80
07F80000003F00
07F80000007E00
03FC0000007E00
01FC0000007C00
01FE000000F800
00FE000000F800
00FF000001F000
007F800001E000
003F800003E000
003FC00007C000
001FE000078000
000FE0000F8000
000FF0001F0000
0007F8001E0000
0003FC003E0000
0003FC007C0000
0001FE00F80000
0000FF00F80000
00007F81F00000
00007F83E00000
00003FC7E00000
00001FE7C00000
00000FFF800000
00000FFF000000
000007FF000000
000003FE000000
000003FC000000
000001FC000000
000001FC000000
000001FC000000
000001FC000000
000001FC000000
000001FC000000
000001FC000000
000001FC000000
000001FC000000
000001FC000000
000001FC000000
000001FC000000
000001FC000000
000001FC000000
000001FC000000
000001FC000000
000001FC000000
000003FC000000
000003FE000000
00000FFF800000
00001FFFC00000
00001FFFC00000
00001FFFC00000
ENDCHAR
STARTCHAR 005A
ENCODING 90
SWIDTH 540 0
DWIDTH 42 0
BBX 40 56 1 0
BITMAP
07FFFFFFFE
0FFFFFFFFF
0FFFFFFFFF
0FFFFFFFFF
0FF80001FE
0FE00001FE
0F800001FC
0F000003FC
0E000003F8
0C000007F8
00000007F0
0000000FF0
0000001FE0
0000001FC0
0000003FC0
0000007F80
0000007F00
000000FF00
000001FE00
000003FC00
000003FC00
000007F800
00000FF000
00001FE000
00001FE000
00003FC000
00007F8000
0000FF0000
0000FF0000
0001FE0000
0003FC0000
0007F80000
0007F80000
000FF00000
001FE00000
003FC00000
003FC00000
007F800000
00FF000000
01FE000000
01FE000000
03FC000000
07F8000000
07F8000000
0FF0000000
1FE0000003
1FE0000007
3FC000000F
3FC000001F
7F8000007F
7F800001FF
FF80003FFF
FFFFFFFFFF
FFFFFFFFFF
FFFFFFFFFE
3FFFFFFFFE
ENDCHAR
STARTCHAR 005B
ENCODING 91
SWIDTH 321 0
DWIDTH 25 0
BBX 13 68 8 -12
BITMAP
FFF8
FFF8
FFF8
FFF8
F800
F800
F800
F800
F800
F800
F800
F800
F800
F800
F800
F800
F800
F800
F800
F800
F800
F800
F800
F800
F800
F800
F800
F800
F800
F800
F800
F800
F800
F800
F800
F800
F800
F800
F800
F800
F800
F800
F800
F800
F800
F800
F800
F800
F800
F800
F800
F800
F800
F800
F800
F800
F800
F800
F800
F800
F800
F800
F800
FFF0
FFF8
FFF8
FFF8
7FE0
ENDCHAR
STARTCHAR 005C
ENCODING 92
SWIDTH 257 0
DWIDTH 20 0
BBX 23 64 -2 -7
BITMAP
E00000
F00000
700000
700000
780000
380000
380000
3C0000
1C0000
1C0000
1C0000
1E0000
0E0000
0E0000
0F0000
070000
070000
078000
038000
038000
03C000
01C000
01C000
01E000
00E000
00E000
00F000
00F000
007000
007000
007800
003800
003800
003C00
001C00
001C00
001E00
000E00
000E00
000F00
000700
000700
000780
000380
000380
000380
0003C0
0001C0
0001C0
0001E0
0000E0
0000E0
0000F0
000070
000070
000078
000038
000038
00003C
00001C
00001C
00001C
00001E
00000E
ENDCHAR
STARTCHAR 005D
ENCODING 93
SWIDTH 321 0
DWIDTH 25 0
BBX 13 68 5 -12
BITMAP
FFF8
FFF8
FFF8
FFF8
00F8
00F8
00F8
00F8
00F8
00F8
00F8
00F8
00F8
00F8
00F8
00F8
00F8
00F8
00F8
00F8
00F8
00F8
00F8
00F8
00F8
00F8
00F8
00F8
00F8
00F8
00F8
00F8
00F8
00F8
00F8
00F8
00F8
00F8
00F8
00F8
00F8
00F8
00F8
00F8
00F8
00F8
00F8
00F8
00F8
00F8
00F8
00F8
00F8
00F8
00F8
00F8
00F8
00F8
00F8
00F8
00F8
00F8
00F8
FFF8
FFF8
FFF8
FFF8
7FE0
ENDCHAR
STARTCHAR 005E
ENCODING 94
SWIDTH 990 0
DWIDTH 77 0
BBX 46 22 16 34
BITMAP
00001FC00000
00001FE00000
00003FF00000
00007FF80000
0000FFFC0000
0001FFFE0000
0003F8FF0000
0007F07F8000
000FE01FC000
001FC00FE000
003F8007E000
007F0003F000
00FC0001F800
01F80000FC00
03F000003E00
03E000001F00
07C000000F80
0F00000007C0
1E00000003E0
3C00000000F0
780000000078
F0000000003C
ENDCHAR
STARTCHAR 005F
ENCODING 95
SWIDTH 488 0
DWIDTH 38 0
BBX 39 4 0 -18
BITMAP
FFFFFFFFFE
FFFFFFFFFE
FFFFFFFFFE
FFFFFFFFFE
ENDCHAR
STARTCHAR 0060
ENCODING 96
SWIDTH 488 0
DWIDTH 38 0
BBX 17 14 9 41
BITMAP
600000
F80000
FC0000
FE0000
FF0000
7F8000
1FC000
0FE000
03F000
00F800
007C00
001E00
000F00
000380
ENDCHAR
STARTCHAR 0061
ENCODING 97
SWIDTH 655 0
DWIDTH 51 0
BBX 53 57 -1 0
BITMAP
00000070000000
000000F0000000
000001F8000000
000001FC000000
000003FC000000
000003FE000000
000007FF000000
000007FF000000
00000FFF800000
00000FBF800000
00001FBFC00000
00001F1FC00000
00003F1FE00000
00003E0FE00000
00007E0FF00000
00007C07F00000
0000FC07F80000
0000F803F80000
0000F803F80000
0001F001FC0000
0001F001FC0000
0003F001FE0000
0003E000FE0000
0007E000FF0000
0007C0007F0000
0007C0007F0000
000F80007F8000
000F80003F8000
001F80003FC000
001F00001FC000
001F00001FC000
003F00001FE000
003E00000FE000
003FFFFFFFE000
007FFFFFFFF000
007FFFFFFFF000
00FFFFFFFFF000
00FC000003F800
00F8000003F800
01F8000003F800
01F0000001FC00
01F0000001FC00
03F0000001FC00
03F0000000FE00
03E0000000FE00
07E0000000FE00
07E00000007F00
07C00000007F00
0FC00000007F00
0FC00000007F80
1FC00000007F80
1FC00000007F80
1FE0000000FFC0
3FF8000001FFE0
7FFC000003FFF0
FFFC000003FFF8
7FF8000003FFF0
ENDCHAR
STARTCHAR 0062
ENCODING 98
SWIDTH 655 0
DWIDTH 51 0
BBX 47 56 2 0
BITMAP
7FFFFFFF8000
FFFFFFFFF800
7FFFFFFFFE00
3FFFFFFFFF00
0FFC000FFF80
07F80000FFC0
07F000003FC0
07F000001FE0
07F000001FE0
07F000000FE0
07F000000FF0
07F000000FF0
07F000000FF0
07F000000FF0
07F000000FE0
07F000000FE0
07F000001FE0
07F000001FC0
07F000003FC0
07F000007F80
07F00001FF00
07F00003FE00
07F0000FF800
07F0007FF000
07F003FFC000
07F01FFE0000
07F3FFFFF000
07FFFFFFFE00
07FFFF0FFF80
07FFF001FFC0
07FE00007FE0
07F000001FF0
07F000000FF8
07F0000007FC
07F0000003FC
07F0000001FE
07F0000001FE
07F0000001FE
07F0000000FE
07F0000000FE
07F0000000FE
07F0000000FE
07F0000000FE
07F0000001FE
07F0000001FE
07F0000001FE
07F0000003FC
07F0000007FC
07F000000FF8
07F800003FF8
0FF80000FFF0
0FFF001FFFE0
3FFFFFFFFFC0
7FFFFFFFFF00
7FFFFFFFFC00
7FFFFFFFC000
ENDCHAR
STARTCHAR 0063
ENCODING 99
SWIDTH 694 0
DWIDTH 54 0
BBX 50 59 3 -2
BITMAP
00000FFFF80000
00007FFFFF0000
0001FFFFFFE000
0007FFFFFFF800
000FFC007FFC00
003FE0001FFE00
007FC00007FE00
00FF000003FE00
01FE000000FE00
03FC000000FE00
07F80000007E00
07F80000003E00
0FF00000001E00
1FE00000001E00
1FE00000000E00
3FC00000000E00
3FC00000000400
3F800000000000
7F800000000000
7F800000000000
7F800000000000
FF000000000000
FF000000000000
FF000000000000
FF000000000000
FF000000000000
FF000000000000
FF000000000000
FF000000000000
FF000000000000
FF000000000000
FF000000000000
FF000000000000
FF000000000000
FF000000000000
FF000000000000
FF000000000000
FF800000000000
7F800000000000
7F800000000000
7F800000000000
7FC00000000000
3FC00000000000
3FE00000000100
1FE00000000380
1FF000000007C0
0FF80000000F80
0FFC0000001F80
07FE0000003F00
03FF0000007F00
01FF800001FE00
00FFE00003FC00
007FF8001FF800
003FFFC3FFE000
001FFFFFFFC000
0007FFFFFF0000
0001FFFFFC0000
00003FFFF00000
000000FA000000
ENDCHAR
STARTCHAR 0064
ENCODING 100
SWIDTH 720 0
DWIDTH 56 0
BBX 52 56 2 0
BITMAP
7FFFFFFC000000
FFFFFFFFC00000
7FFFFFFFF00000
3FFFFFFFFC0000
0FFC001FFF0000
07F80001FF8000
07F000007FE000
07F000001FF000
07F000000FF800
07F0000007FC00
07F0000003FC00
07F0000001FE00
07F0000000FF00
07F0000000FF00
07F00000007F80
07F00000007F80
07F00000003FC0
07F00000003FC0
07F00000003FC0
07F00000001FE0
07F00000001FE0
07F00000001FE0
07F00000001FE0
07F00000001FE0
07F00000000FE0
07F00000001FF0
07F00000000FF0
07F00000000FF0
07F00000000FF0
07F00000000FF0
07F00000000FE0
07F00000001FE0
07F00000001FE0
07F00000001FE0
07F00000001FE0
07F00000001FE0
07F00000001FE0
07F00000003FC0
07F00000003FC0
07F00000003FC0
07F00000007F80
07F00000007F80
07F0000000FF00
07F0000001FF00
07F0000001FE00
07F0000003FC00
07F0000007F800
07F000001FF800
07F000003FE000
07F80000FFC000
0FF80003FF8000
0FFE003FFE0000
3FFFFFFFF80000
7FFFFFFFE00000
7FFFFFFF000000
7FFFFFF0000000
ENDCHAR
STARTCHAR 0065
ENCODING 101
SWIDTH 604 0
DWIDTH 47 0
BBX 45 56 2 0
BITMAP
7FFFFFFFFF80
FFFFFFFFFFC0
7FFFFFFFFFC0
3FFFFFFFFFC0
0FFE0001FFC0
07F800001FC0
07F0000007C0
07F0000003C0
07F0000001C0
07F000000000
07F000000000
07F000000000
07F000000000
07F000000000
07F000000000
07F000000000
07F000000000
07F000000000
07F000000000
07F000000000
07F000000000
07F000003000
07F00000F800
07FFFFFFF800
07FFFFFFF800
07FFFFFFF800
07FFFFFFF800
07FFFFFFF800
07F00000F800
07F000003000
07F000000000
07F000000000
07F000000000
07F000000000
07F000000000
07F000000000
07F000000000
07F000000000
07F000000000
07F000000000
07F000000000
07F000000000
07F000000000
07F000000000
07F000000000
07F000000010
07F000000038
07F000000078
07F0000001F8
07F0000003F8
0FF800001FF8
0FFF800FFFF0
3FFFFFFFFFF0
7FFFFFFFFFF0
7FFFFFFFFFF0
7FFFFFFFFFC0
ENDCHAR
STARTCHAR 0066
ENCODING 102
SWIDTH 552 0
DWIDTH 43 0
BBX 41 56 2 0
BITMAP
7FFFFFFFFE00
FFFFFFFFFF00
7FFFFFFFFF80
3FFFFFFFFF80
0FFC0007FF80
07F800003F80
07F000000F80
07F000000780
07F000000380
07F000000000
07F000000000
07F000000000
07F000000000
07F000000000
07F000000000
07F000000000
07F000000000
07F000000000
07F000000000
07F000000000
07F000000000
07F000000000
07F000000000
07F00000E000
07F00007F000
07FFFFFFF000
07FFFFFFF000
07FFFFFFF000
07FFFFFFF000
07F0001FF000
07F00001F000
07F000006000
07F000000000
07F000000000
07F000000000
07F000000000
07F000000000
07F000000000
07F000000000
07F000000000
07F000000000
07F000000000
07F000000000
07F000000000
07F000000000
07F000000000
07F000000000
07F000000000
07F000000000
07F000000000
0FF000000000
1FF800000000
7FFE00000000
FFFF80000000
FFFF80000000
7FFF00000000
ENDCHAR
STARTCHAR 0067
ENCODING 103
SWIDTH 771 0
DWIDTH 60 0
BBX 52 59 3 -2
BITMAP
000003FFFE0000
00001FFFFFC000
0000FFFFFFF800
0001FFFFFFFC00
0007FF000FFF00
000FF80003FF80
003FE00000FF80
007FC000003F80
00FF8000001FC0
01FF0000000FC0
03FE0000000FC0
03FC00000007C0
07F800000003C0
0FF000000003C0
0FF000000001C0
1FE00000000180
1FE00000000000
3FC00000000000
3FC00000000000
7FC00000000000
7F800000000000
7F800000000000
7F800000000000
FF000000000000
FF000000000000
FF000000000000
FF000000000000
FF000000000000
FF00000000FF00
FF0000007FFFE0
FF0000007FFFF0
FF0000007FFFF0
FF00000001FFF0
FF000000000FF0
FF0000000007F0
FF0000000007F0
FF0000000007F0
7F8000000007F0
7F8000000007F0
7F8000000007F0
7FC000000007F0
3FC000000007F0
3FC000000007F0
1FE000000007F0
1FF000000007F0
0FF000000007F0
0FF800000007F0
07FC00000007F0
03FE0000000FF0
01FF0000000FF0
00FF8000001FF0
007FE000003FE0
003FF00000FFC0
001FFE0003FF00
000FFFF83FFE00
0003FFFFFFF000
0000FFFFFFC000
00001FFFFE0000
0000001E000000
ENDCHAR
STARTCHAR 0068
ENCODING 104
SWIDTH 758 0
DWIDTH 59 0
BBX 55 56 2 0
BITMAP
7FFF000000FFFE
FFFF000000FFFE
7FFF000000FFFE
3FFE0000007FFC
0FF80000001FF0
07F00000000FE0
07F00000000FE0
07F00000000FE0
07F00000000FE0
07F00000000FE0
07F00000000FE0
07F00000000FE0
07F00000000FE0
07F00000000FE0
07F00000000FE0
07F00000000FE0
07F00000000FE0
07F00000000FE0
07F00000000FE0
07F00000000FE0
07F00000000FE0
07F00000000FE0
07F00000000FE0
07FFFFFFFFFFE0
07FFFFFFFFFFE0
07FFFFFFFFFFE0
07FFFFFFFFFFE0
07FFFFFFFFFFE0
07F00000000FE0
07F00000000FE0
07F00000000FE0
07F00000000FE0
07F00000000FE0
07F00000000FE0
07F00000000FE0
07F00000000FE0
07F00000000FE0
07F00000000FE0
07F00000000FE0
07F00000000FE0
07F00000000FE0
07F00000000FE0
07F00000000FE0
07F00000000FE0
07F00000000FE0
07F00000000FE0
07F00000000FE0
07F00000000FE0
07F00000000FE0
07F00000000FE0
0FF00000000FE0
0FF80000001FF0
3FFE0000007FFC
7FFF000000FFFE
7FFF000000FFFE
7FFF000000FFFE
ENDCHAR
STARTCHAR 0069
ENCODING 105
SWIDTH 270 0
DWIDTH 21 0
BBX 16 56 3 0
BITMAP
FFFE
FFFF
FFFE
7FFC
1FF0
0FF0
0FE0
0FE0
0FE0
0FE0
0FE0
0FE0
0FE0
0FE0
0FE0
0FE0
0FE0
0FE0
0FE0
0FE0
0FE0
0FE0
0FE0
0FE0
0FE0
0FE0
0FE0
0FE0
0FE0
0FE0
0FE0
0FE0
0FE0
0FE0
0FE0
0FE0
0FE0
0FE0
0FE0
0FE0
0FE0
0FE0
0FE0
0FE0
0FE0
0FE0
0FE0
0FE0
0FE0
0FE0
0FF0
1FF8
7FFC
FFFE
FFFF
FFFE
ENDCHAR
STARTCHAR 006A
ENCODING 106
SWIDTH 450 0
DWIDTH 35 0
BBX 33 58 0 -2
BITMAP
00007FFF80
00007FFF80
00007FFF80
00001FFE00
000007FC00
000003F800
000003F800
000003F800
000003F800
000003F800
000003F800
000003F800
000003F800
000003F800
000003F800
000003F800
000003F800
000003F800
000003F800
000003F800
000003F800
000003F800
000003F800
000003F800
000003F800
000003F800
000003F800
000003F800
000003F800
000003F800
000003F800
000003F800
000003F800
000003F800
000003F800
000003F800
038003F800
1FE003F800
3FE003F800
7FE003F800
7FE003F800
FFC003F800
FF0003F800
FC0003F800
F80003F800
F00003F800
F00003F800
F00003F000
F80007F000
F80007F000
FC000FE000
7E001FE000
7F003FC000
3FF1FFC000
1FFFFF0000
07FFFE0000
01FFF80000
001F800000
ENDCHAR
STARTCHAR 006B
ENCODING 107
SWIDTH 617 0
DWIDTH 48 0
BBX 48 56 2 0
BITMAP
7FFF0003FFF8
FFFF0003FFFC
7FFF0003FFF8
3FFE0001FFF0
0FF800007FC0
07F000007F80
07F000007F00
07F000007E00
07F00000FC00
07F00001F800
07F00001F800
07F00003F000
07F00007E000
07F0000FC000
07F0001F8000
07F0003F0000
07F0007E0000
07F000FC0000
07F001F80000
07F003F00000
07F007F00000
07F00FE00000
07F01FC00000
07F03FE00000
07F07FF00000
07F0FFF80000
07F1FFFC0000
07F3FBFE0000
07F7F1FE0000
07FFC1FF0000
07FF80FF8000
07FF007FC000
07FE003FC000
07FC001FE000
07F8000FF000
07F00007F000
07F00007F800
07F00003FC00
07F00001FC00
07F00001FE00
07F00000FF00
07F000007F00
07F000007F80
07F000003F80
07F000003FC0
07F000001FC0
07F000001FE0
07F000000FE0
07F000000FF0
07F000000FF0
0FF000000FF8
0FF800000FFC
3FFE00003FFF
7FFF00007FFF
7FFF00007FFF
7FFF00003FFF
ENDCHAR
STARTCHAR 006C
ENCODING 108
SWIDTH 578 0
DWIDTH 45 0
BBX 44 56 2 0
BITMAP
7FFF80000000
FFFF80000000
7FFF80000000
3FFE00000000
0FF800000000
07F000000000
07F000000000
07F000000000
07F000000000
07F000000000
07F000000000
07F000000000
07F000000000
07F000000000
07F000000000
07F000000000
07F000000000
07F000000000
07F000000000
07F000000000
07F000000000
07F000000000
07F000000000
07F000000000
07F000000000
07F000000000
07F000000000
07F000000000
07F000000000
07F000000000
07F000000000
07F000000000
07F000000000
07F000000000
07F000000000
07F000000000
07F000000000
07F000000000
07F000000000
07F000000000
07F000000000
07F000000000
07F000000000
07F000000000
07F000000000
07F000000000
07F000000020
07F0000000F0
07F0000001F0
07F0000007F0
0FF800003FF0
0FFF0007FFE0
3FFFFFFFFFE0
7FFFFFFFFFE0
7FFFFFFFFFE0
7FFFFFFFFFC0
ENDCHAR
STARTCHAR 006D
ENCODING 109
SWIDTH 822 0
DWIDTH 64 0
BBX 61 56 1 0
BITMAP
7FFC00000000FFF8
7FFE00000001FFF8
7FFF00000001FFF8
1FFF00000003FFF0
07FF00000003FF80
03FF80000007FF00
03FF80000007FF00
03FFC0000007FF00
03FFC000000FFF00
03EFC000000FFF00
03EFE000000FFF00
03EFE000001F7F00
03E7F000001F7F00
03E7F000003E7F00
03E3F000003E7F00
03E3F800003E7F00
03E1F800007C7F00
03E1FC00007C7F00
03E1FC0000F87F00
03E0FE0000F87F00
03E0FE0001F87F00
03E07E0001F07F00
03E07F0003F07F00
03E07F0003E07F00
03E03F8007E07F00
03E03F8007C07F00
03E01FC007C07F00
03E01FC00F807F00
03E00FC00F807F00
03E00FE01F807F00
03E00FE01F007F00
03E007F03F007F00
03E007F03E007F00
03E003F87E007F00
03E003F87C007F00
03E001FCFC007F00
03E001FCF8007F00
03E000FFF8007F00
03E000FFF0007F00
07E000FFF0007F00
07E0007FE0007F00
07E0007FE0007F00
07E0003FC0007F00
07E0003FC0007F00
07E0001F80007F00
07E0001F80007F00
07E0000F00007F00
07E0000700007F00
07E0000000007F00
07E0000000007F80
07E0000000007F80
0FF0000000007FC0
3FFC00000001FFE0
FFFE00000007FFF8
FFFF00000007FFF8
FFFE00000007FFF8
ENDCHAR
STARTCHAR 006E
ENCODING 110
SWIDTH 720 0
DWIDTH 56 0
BBX 55 57 0 -1
BITMAP
7FFC000000FFFE
FFFE000000FFFE
7FFF0000007FFC
3FFF8000001FF8
07FFC0000007E0
03FFE0000007E0
03FFE0000007C0
03FFF0000007C0
01FFF8000007C0
01F7FC000007C0
01F3FE000007C0
01F1FE000007C0
01F0FF000007C0
01F07F800007C0
01F07FC00007C0
01F03FE00007C0
01F01FE00007C0
01F00FF00007C0
01F007F80007C0
01F007FC0007C0
01F003FE0007C0
01F001FE0007C0
01F000FF0007C0
01F0007F8007C0
01F0007FC007C0
01F0003FC007C0
01F0001FE007C0
01F0000FF007C0
01F0000FF007C0
01F00007F807C0
01F00003FC07C0
01F00001FE07C0
01F00001FE07C0
01F00000FF07C0
01F000007F87C0
01F000003F87C0
01F000003FC7C0
01F000001FE7C0
01F000000FE7C0
01F000000FF7C0
01F0000007FFC0
01F0000003FFC0
01F0000003FFC0
01F0000001FFC0
03F0000000FFC0
03F0000000FFC0
03F00000007FC0
03F00000003FC0
03F00000003FC0
03F00000001FC0
03F00000001FC0
07F80000000FC0
1FFF00000007C0
7FFFC0000007C0
7FFFC0000003C0
7FFFC0000001C0
00000000000080
ENDCHAR
STARTCHAR 006F
ENCODING 111
SWIDTH 758 0
DWIDTH 59 0
BBX 54 59 3 -2
BITMAP
00000FFFC00000
00007FFFF80000
0001FFFFFE0000
0007FFFFFF8000
001FFC00FFE000
003FE0001FF000
007F80000FF800
00FF000003FC00
01FE000001FE00
03FC000000FF00
07F80000007F80
07F00000003F80
0FF00000003FC0
1FE00000001FC0
1FC00000001FE0
3FC00000000FE0
3FC00000000FF0
3F800000000FF0
7F8000000007F8
7F8000000007F8
7F0000000007F8
FF0000000007F8
FF0000000003F8
FF0000000003FC
FF0000000003FC
FF0000000003FC
FF0000000003FC
FF0000000003FC
FF0000000003FC
FF0000000003FC
FF0000000003FC
FF0000000003FC
FF0000000003FC
FF0000000003FC
FF0000000003FC
FF0000000003F8
FF0000000007F8
7F0000000007F8
7F8000000007F8
7F8000000007F8
3F800000000FF0
3FC00000000FF0
3FC00000000FF0
1FC00000001FE0
1FE00000001FE0
0FE00000003FC0
0FF00000003F80
07F80000007F80
03FC000000FF00
01FE000001FE00
00FF000003FC00
007F800007F800
003FE0001FF000
001FF8007FE000
000FFFFFFFC000
0003FFFFFF0000
0000FFFFFC0000
00001FFFE00000
00000070000000
ENDCHAR
STARTCHAR 0070
ENCODING 112
SWIDTH 604 0
DWIDTH 47 0
BBX 44 56 2 0
BITMAP
7FFFFFFC0000
FFFFFFFFC000
7FFFFFFFF000
3FFFFFFFFC00
0FFE003FFF00
07F80003FF80
07F80000FF80
07F000007FC0
07F000003FE0
07F000001FE0
07F000001FE0
07F000000FF0
07F000000FF0
07F000000FF0
07F000000FF0
07F000000FF0
07F000000FF0
07F000000FF0
07F000000FE0
07F000001FE0
07F000001FE0
07F000003FC0
07F000003FC0
07F000007F80
07F00000FF80
07F00003FF00
07F0000FFE00
07F0003FF800
07F001FFF000
07F07FFFC000
07FFFFFF0000
07FFFFF80000
07FFFFC00000
07FFF8000000
07F000000000
07F000000000
07F000000000
07F000000000
07F000000000
07F000000000
07F000000000
07F000000000
07F000000000
07F000000000
07F000000000
07F000000000
07F000000000
07F000000000
07F000000000
07F000000000
0FF000000000
0FFC00000000
3FFF00000000
7FFF80000000
7FFF80000000
7FFF80000000
ENDCHAR
STARTCHAR 0071
ENCODING 113
SWIDTH 758 0
DWIDTH 59 0
BBX 54 68 3 -11
BITMAP
00000FFFC00000
00007FFFF80000
0003FFFFFE0000
0007FFFFFF8000
001FFC00FFE000
003FE0001FF000
007F80000FF800
00FF000003FC00
01FE000001FE00
03FC000000FF00
07F80000007F00
07F00000003F80
0FF00000003FC0
1FE00000001FC0
1FC00000001FE0
3FC00000000FE0
3FC00000000FF0
3F800000000FF0
7F8000000007F0
7F8000000007F8
7F0000000007F8
FF0000000007F8
FF0000000003F8
FF0000000003FC
FF0000000003FC
FF0000000003FC
FF0000000003FC
FF0000000003FC
FF0000000003FC
FF0000000003FC
FF0000000003FC
FF0000000003FC
FF0000000003FC
FF0000000003FC
FF0000000003FC
FF0000000003F8
FF0000000007F8
7F0000000007F8
7F8000000007F8
7F8000000007F8
7F800000000FF0
3FC00000000FF0
3FC00000000FE0
1FC00038001FE0
1FE00038001FC0
0FF00038003FC0
0FF0003C003F80
07F8003C007F80
03FC003C00FF00
03FE003C01FE00
01FF001E03FC00
00FF801E07F800
007FE01E1FF000
001FF80F7FE000
000FFFFFFF8000
0003FFFFFF0000
0000FFFFF80000
00001FFFE00000
0000007FF00000
00000001FC0000
00000000FF0000
000000007FF000
000000003FFFF8
000000001FFFF8
000000000FFFF8
0000000003FFF8
0000000000FFF8
00000000003FF0
ENDCHAR
STARTCHAR 0072
ENCODING 114
SWIDTH 642 0
DWIDTH 50 0
BBX 48 56 2 0
BITMAP
7FFFFFFF0000
FFFFFFFFF800
7FFFFFFFFE00
3FFFFFFFFF80
0FFE003FFFC0
07F80001FFC0
07F000007FE0
07F000003FF0
07F000001FF0
07F000000FF0
07F000000FF0
07F000000FF0
07F0000007F0
07F0000007F0
07F0000007F0
07F000000FF0
07F000000FF0
07F000000FF0
07F000001FE0
07F000003FE0
07F000007FC0
07F00000FF80
07F00001FF00
07F00007FE00
07F0003FFC00
07F001FFF000
07F03FFFE000
07FFFFFF8000
07FFFFFF0000
07FFFFFF8000
07FFFC7FC000
07FE003FC000
07F0001FE000
07F0000FF000
07F0000FF000
07F00007F800
07F00003F800
07F00003FC00
07F00001FC00
07F00000FE00
07F00000FE00
07F000007F00
07F000007F00
07F000003F80
07F000003F80
07F000001FC0
07F000001FC0
07F000001FE0
07F000000FE0
07F000000FF0
0FF000000FF0
0FFC00001FF8
3FFF00003FFE
7FFF8000FFFF
7FFF8000FFFF
7FFF0000FFFF
ENDCHAR
STARTCHAR 0073
ENCODING 115
SWIDTH 578 0
DWIDTH 45 0
BBX 42 59 1 -2
BITMAP
0003FFF80000
001FFFFF0000
003FFFFFC000
00FFC7FFF000
01FC007FF800
03F8000FF800
07E00007F800
07E00003F800
0FC00000F800
0F8000007800
1F8000007800
1F8000003800
1F8000001800
3F8000000000
3F8000000000
3F8000000000
3F8000000000
3FC000000000
1FC000000000
1FE000000000
1FF000000000
1FFC00000000
0FFF80000000
07FFF0000000
07FFFF800000
03FFFFFC0000
01FFFFFF8000
007FFFFFE000
001FFFFFF000
0007FFFFFC00
00007FFFFE00
000003FFFE00
0000003FFF00
00000007FF00
00000000FF80
000000007F80
000000003F80
000000001FC0
000000001FC0
000000001FC0
000000000FC0
000000000FC0
700000000FC0
F00000000F80
F80000000F80
FC0000001F80
FC0000001F80
7E0000003F00
7F0000003F00
3F8000007E00
3FC00000FE00
1FE00001FC00
0FF80007F800
07FE003FF000
01FFFFFFE000
00FFFFFF8000
003FFFFE0000
000FFFF80000
00005E000000
ENDCHAR
STARTCHAR 0074
ENCODING 116
SWIDTH 591 0
DWIDTH 46 0
BBX 46 56 0 0
BITMAP
3FFFFFFFFFF0
7FFFFFFFFFF8
7FFFFFFFFFF8
7FFFFFFFFFF8
7FF01FE01FF8
7F801FE007FC
FE000FE001FC
FC000FE000FC
F8000FE0003C
F0000FE0001C
00000FE00000
00000FE00000
00000FE00000
00000FE00000
00000FE00000
00000FE00000
00000FE00000
00000FE00000
00000FE00000
00000FE00000
00000FE00000
00000FE00000
00000FE00000
00000FE00000
00000FE00000
00000FE00000
00000FE00000
00000FE00000
00000FE00000
00000FE00000
00000FE00000
00000FE00000
00000FE00000
00000FE00000
00000FE00000
00000FE00000
00000FE00000
00000FE00000
00000FE00000
00000FE00000
00000FE00000
00000FE00000
00000FE00000
00000FE00000
00000FE00000
00000FE00000
00000FE00000
00000FE00000
00000FE00000
00000FE00000
00001FE00000
00001FF00000
00007FFC0000
0001FFFE0000
0001FFFE0000
0001FFFE0000
ENDCHAR
STARTCHAR 0075
ENCODING 117
SWIDTH 707 0
DWIDTH 55 0
BBX 51 58 2 -2
BITMAP
FFFF00000FFFC0
FFFF00000FFFE0
FFFF00000FFFC0
7FFE000007FF80
1FF8000001FF00
0FF0000000FE00
0FF00000007E00
0FF00000007E00
0FE00000007E00
0FE00000007E00
0FE00000007E00
0FE00000003E00
0FE00000003E00
0FE00000003E00
0FE00000003E00
0FC00000003E00
0FC00000003E00
0FC00000003E00
1FC00000003E00
1FC00000003E00
1FC00000003E00
1FC00000003E00
1FC00000003E00
1FC00000003E00
1FC00000003E00
1FC00000003F00
1FC00000003F00
1FC00000003F00
1FC00000003F00
1FC00000003F00
1FC00000003F00
1FC00000003F00
1FC00000003F00
1FC00000003F00
1FC00000003F00
1FC00000003F00
1FC00000003F00
1FC00000003F00
1FC00000003E00
1FC00000003E00
0FC00000007E00
0FE00000007E00
0FE00000007E00
0FE00000007C00
07F0000000FC00
07F0000000FC00
07F8000001F800
03F8000003F800
03FC000003F000
01FE000007E000
00FF80001FE000
00FFE0007FC000
007FF803FF8000
003FFFFFFF0000
000FFFFFFC0000
0003FFFFF00000
0000FFFF800000
000001E0000000
ENDCHAR
STARTCHAR 0076
ENCODING 118
SWIDTH 655 0
DWIDTH 51 0
BBX 51 58 0 -2
BITMAP
FFFC000007FFE0
FFFE000007FFE0
FFFC000007FFC0
7FF8000001FFC0
3FE00000007F80
3FE00000007F00
1FE00000003F00
1FC00000003F00
1FE00000007E00
1FE00000007E00
0FE00000007E00
0FE00000007E00
0FE00000007C00
07E0000000FC00
07F0000000FC00
07F0000000F800
07F0000000F800
03F8000001F800
03F8000001F000
03F8000001F000
01F8000003F000
01FC000003E000
01FC000003E000
01FC000007E000
00FE000007C000
00FE000007C000
007F00000FC000
007F00000F8000
007F00000F8000
003F80001F8000
003F80001F0000
003F80003F0000
001FC0003F0000
001FC0003E0000
000FE0007E0000
000FE0007C0000
000FF000FC0000
0007F000F80000
0007F001F80000
0003F801F80000
0003F803F00000
0001FC03F00000
0001FC07E00000
0001FE07E00000
0000FF0FC00000
0000FF0FC00000
00007F9F800000
00007F9F800000
00003FFF000000
00003FFF000000
00001FFE000000
00001FFE000000
00000FFC000000
000007F8000000
000007F8000000
000003F0000000
000001E0000000
00000040000000
ENDCHAR
STARTCHAR 0077
ENCODING 119
SWIDTH 925 0
DWIDTH 72 0
BBX 71 58 0 -2
BITMAP
7FFE0003FFE0003FFE
FFFF0007FFF0003FFE
FFFE0007FFF0003FFE
7FF80001FFE0001FFC
1FE00000FF800007F8
1FE000007F000003F0
1FE000007F000001F0
0FC000007F000001F0
0FE000007F000001E0
0FE000007F000001E0
0FE000007F000003E0
0FE000007F000003E0
07E00000FF000003E0
07E00000FF000003E0
07E00000FF000003C0
07F00000FF800003C0
07F00000FF800007C0
03F00001FF800007C0
03F00001FF80000780
03F80001FFC0000780
03F80001FFC0000780
01F80003EFC0000F80
01F80003EFE0000F80
01F80003EFE0000F00
01FC0007CFE0001F00
00FC0007C7F0001F00
00FC0007C7F0001F00
00FE000F87F0001E00
00FE000F83F8003E00
00FE000F83F8003E00
007E001F03F8003E00
007F001F01FC007C00
007F001F01FC007C00
003F003E01FC007C00
003F803E00FE007C00
003F803E00FE00F800
003F807C00FF00F800
001FC07C007F00F800
001FC0FC007F01F000
001FC0F8003F81F000
000FE0F8003F81F000
000FE1F8003FC3E000
000FE1F0001FC3E000
000FF3F0001FE7E000
0007F3F0000FE7C000
0007F3E0000FF7C000
0007FFE0000FFFC000
0003FFC00007FF8000
0003FFC00007FF8000
0003FFC00003FF8000
0001FF800003FF0000
0001FF800001FF0000
0000FF000001FE0000
0000FF000000FE0000
0000FE000000FC0000
00007C0000007C0000
00003C000000380000
000010000000100000
ENDCHAR
STARTCHAR 0078
ENCODING 120
SWIDTH 655 0
DWIDTH 51 0
BBX 50 56 1 0
BITMAP
7FFF0000FFFE00
FFFF0000FFFE00
7FFE00007FFC00
3FFC00001FF800
0FF800000FE000
07F800000FE000
07F800000FC000
03FC00000F8000
01FC00001F0000
01FE00001F0000
00FE00003E0000
00FF00007C0000
007F80007C0000
003F8000F80000
003FC001F00000
001FE001F00000
000FF003E00000
000FF007C00000
0007F80FC00000
0003FC0F800000
0003FE1F000000
0001FF3E000000
0000FFFE000000
00007FFC000000
00007FF8000000
00003FF0000000
00001FF0000000
00000FF8000000
00000FFC000000
00001FFE000000
00001FFE000000
00003EFF000000
00007EFF800000
0000FC7FC00000
0000F83FE00000
0001F01FE00000
0003F00FF00000
0003E007F80000
0007C003FC0000
000FC001FC0000
001F8001FE0000
001F0000FF0000
003F00007F0000
007E00003F8000
007E00003FC000
00FC00001FC000
01F800001FE000
01F800000FF000
03F000000FF000
07F0000007F800
07F0000007FC00
0FF0000007FE00
3FF800000FFF80
7FFC00001FFFC0
FFFE00003FFFC0
FFFE00001FFFC0
ENDCHAR
STARTCHAR 0079
ENCODING 121
SWIDTH 655 0
DWIDTH 51 0
BBX 52 56 -1 0
BITMAP
FFFE000003FFF0
FFFF000003FFF0
FFFE000003FFE0
7FFC000000FFC0
1FF80000007F80
0FF00000003F80
07F80000003F00
07F80000007E00
03FC0000007E00
01FC0000007C00
01FE000000F800
00FE000000F800
00FF000001F000
007F800001E000
003F800003E000
003FC00007C000
001FE000078000
000FE0000F8000
000FF0001F0000
0007F8001E0000
0003FC003E0000
0003FC007C0000
0001FE00F80000
0000FF00F80000
00007F81F00000
00007F83E00000
00003FC7E00000
00001FE7C00000
00000FFF800000
00000FFF000000
000007FF000000
000003FE000000
000003FC000000
000001FC000000
000001FC000000
000001FC000000
000001FC000000
000001FC000000
000001FC000000
000001FC000000
000001FC000000
000001FC000000
000001FC000000
000001FC000000
000001FC000000
000001FC000000
000001FC000000
000001FC000000
000001FC000000
000001FC000000
000003FC000000
000003FE000000
00000FFF800000
00001FFFC00000
00001FFFC00000
00001FFFC00000
ENDCHAR
STARTCHAR 007A
ENCODING 122
SWIDTH 540 0
DWIDTH 42 0
BBX 40 56 1 0
BITMAP
07FFFFFFFE
0FFFFFFFFF
0FFFFFFFFF
0FFFFFFFFF
0FF80001FE
0FE00001FE
0F800001FC
0F000003FC
0E000003F8
0C000007F8
00000007F0
0000000FF0
0000001FE0
0000001FC0
0000003FC0
0000007F80
0000007F00
000000FF00
000001FE00
000003FC00
000003FC00
000007F800
00000FF000
00001FE000
00001FE000
00003FC000
00007F8000
0000FF0000
0000FF0000
0001FE0000
0003FC0000
0007F80000
0007F80000
000FF00000
001FE00000
003FC00000
003FC00000
007F800000
00FF000000
01FE000000
01FE000000
03FC000000
07F8000000
07F8000000
0FF0000000
1FE0000003
1FE0000007
3FC000000F
3FC000001F
7F8000007F
7F800001FF
FF80003FFF
FFFFFFFFFF
FFFFFFFFFF
FFFFFFFFFE
3FFFFFFFFE
ENDCHAR
STARTCHAR 007B
ENCODING 123
SWIDTH 488 0
DWIDTH 38 0
BBX 25 67 7 -9
BITMAP
00000380
00007F80
0003FE00
0007E000
000FC000
000F8000
001F8000
001F0000
001F0000
001F0000
003F0000
003F0000
003F0000
003F0000
003F0000
003F0000
003F0000
003F0000
003F0000
003F0000
003F0000
003F0000
003F0000
003E0000
003E0000
003E0000
003E0000
003E0000
007C0000
00FC0000
01F80000
03E00000
7F800000
FE000000
FE000000
0FC00000
03F00000
00F80000
007C0000
007C0000
003E0000
003E0000
003E0000
003E0000
003E0000
003F0000
003F0000
003F0000
003F0000
003F0000
003F0000
003F0000
003F0000
003F0000
003F0000
003F0000
003F0000
001F0000
001F0000
001F0000
001F0000
001F8000
000F8000
0007C000
0007F000
0001FF80
00003F80
ENDCHAR
STARTCHAR 007C
ENCODING 124
SWIDTH 488 0
DWIDTH 38 0
BBX 5 77 17 -18
BITMAP
F8
F8
F8
F8
F8
F8
F8
F8
F8
F8
F8
F8
F8
F8
F8
F8
F8
F8
F8
F8
F8
F8
F8
F8
F8
F8
F8
F8
F8
F8
F8
F8
F8
F8
F8
F8
F8
F8
F8
F8
F8
F8
F8
F8
F8
F8
F8
F8
F8
F8
F8
F8
F8
F8
F8
F8
F8
F8
F8
F8
F8
F8
F8
F8
F8
F8
F8
F8
F8
F8
F8
F8
F8
F8
F8
F8
F8
ENDCHAR
STARTCHAR 007D
ENCODING 125
SWIDTH 488 0
DWIDTH 38 0
BBX 25 67 7 -9
BITMAP
C0000000
FF000000
3FC00000
03F00000
01F80000
00F80000
00F80000
007C0000
007C0000
007C0000
007C0000
007C0000
007E0000
007E0000
007E0000
007E0000
007E0000
007E0000
007E0000
007E0000
007E0000
007E0000
007E0000
007E0000
003E0000
003E0000
003E0000
003E0000
001F0000
001F0000
000F8000
0007E000
0001FF00
00003F80
00007F80
0001F800
0007C000
000F8000
001F0000
001F0000
003E0000
003E0000
003E0000
003E0000
007E0000
007E0000
007E0000
007E0000
007E0000
007E0000
007E0000
007E0000
007E0000
007E0000
007E0000
007C0000
007C0000
007C0000
007C0000
007C0000
007C0000
00F80000
00F80000
01F00000
07E00000
FFC00000
FE000000
ENDCHAR
STARTCHAR 007E
ENCODING 126
SWIDTH 822 0
DWIDTH 64 0
BBX 51 10 7 19
BITMAP
003FE000000060
01FFFE000000E0
07FFFFC00003E0
1FFFFFF8000FE0
7FFDFFFF007FE0
FF8007FFFFFF80
FC0000FFFFFF00
F000001FFFFC00
E0000003FFE000
800000001C0000
ENDCHAR
STARTCHAR 0080
ENCODING 128
SWIDTH 655 0
DWIDTH 51 0
BBX 53 75 -1 0
BITMAP
00007800000000
0000FC00000000
0000FE00000000
0000FF00000000
00007F80000000
00003FC0000000
00000FE0000000
000007F0000000
000001F8000000
0000007C000000
0000003E000000
0000000F000000
00000007800000
00000000000000
00000000000000
00000000000000
00000000000000
00000000000000
00000070000000
000000F0000000
000001F8000000
000001FC000000
000003FC000000
000003FE000000
000007FF000000
000007FF000000
00000FFF800000
00000FBF800000
00001FBFC00000
00001F1FC00000
00003F1FE00000
00003E0FE00000
00007E0FF00000
00007C07F00000
0000FC07F80000
0000F803F80000
0000F803F80000
0001F001FC0000
0001F001FC0000
0003F001FE0000
0003E000FE0000
0007E000FF0000
0007C0007F0000
0007C0007F0000
000F80007F8000
000F80003F8000
001F80003FC000
001F00001FC000
001F00001FC000
003F00001FE000
003E00000FE000
003FFFFFFFE000
007FFFFFFFF000
007FFFFFFFF000
00FFFFFFFFF000
00FC000003F800
00F8000003F800
01F8000003F800
01F0000001FC00
01F0000001FC00
03F0000001FC00
03F0000000FE00
03E0000000FE00
07E0000000FE00
07E00000007F00
07C00000007F00
0FC00000007F00
0FC00000007F80
1FC00000007F80
1FC00000007F80
1FE0000000FFC0
3FF8000001FFE0
7FFC000003FFF0
FFFC000003FFF8
7FF8000003FFF0
ENDCHAR
STARTCHAR 0081
ENCODING 129
SWIDTH 655 0
DWIDTH 51 0
BBX 53 79 -1 0
BITMAP
000000FC000000
0000018E000000
00000303000000
00000703800000
00000703800000
00000001800000
00000001800000
00000003800000
00000003800000
00000007000000
0000000F000000
0000003E000000
00000078000000
00000060000000
00000040000000
00000040000000
00000040000000
00000000000000
00000000000000
00000000000000
00000000000000
00000000000000
00000070000000
000000F0000000
000001F8000000
000001FC000000
000003FC000000
000003FE000000
000007FF000000
000007FF000000
00000FFF800000
00000FBF800000
00001FBFC00000
00001F1FC00000
00003F1FE00000
00003E0FE00000
00007E0FF00000
00007C07F00000
0000FC07F80000
0000F803F80000
0000F803F80000
0001F001FC0000
0001F001FC0000
0003F001FE0000
0003E000FE0000
0007E000FF0000
0007C0007F0000
0007C0007F0000
000F80007F8000
000F80003F8000
001F80003FC000
001F00001FC000
001F00001FC000
003F00001FE000
003E00000FE000
003FFFFFFFE000
007FFFFFFFF000
007FFFFFFFF000
00FFFFFFFFF000
00FC000003F800
00F8000003F800
01F8000003F800
01F0000001FC00
01F0000001FC00
03F0000001FC00
03F0000000FE00
03E0000000FE00
07E0000000FE00
07E00000007F00
07C00000007F00
0FC00000007F00
0FC00000007F80
1FC00000007F80
1FC00000007F80
1FE0000000FFC0
3FF8000001FFE0
7FFC000003FFF0
FFFC000003FFF8
7FF8000003FFF0
ENDCHAR
STARTCHAR 008D
ENCODING 141
SWIDTH 655 0
DWIDTH 51 0
BBX 53 85 -1 0
BITMAP
000000000F0000
000000001F8000
000000003F8000
000000007F8000
00000000FF0000
00000001FC0000
00000003F80000
00000007E00000
0000000FC00000
0000001F000000
0000003C000000
00000078000000
000000E0000000
00000000000000
00008000200000
0000C000600000
0000C000600000
0000E000E00000
00007C07C00000
00007FFF800000
00003FFF800000
00001FFF000000
000007FC000000
00000000000000
00000000000000
00000000000000
00000000000000
00000000000000
00000070000000
000000F0000000
000001F8000000
000001FC000000
000003FC000000
000003FE000000
000007FF000000
000007FF000000
00000FFF800000
00000FBF800000
00001FBFC00000
00001F1FC00000
00003F1FE00000
00003E0FE00000
00007E0FF00000
00007C07F00000
0000FC07F80000
0000F803F80000
0000F803F80000
0001F001FC0000
0001F001FC0000
0003F001FE0000
0003E000FE0000
0007E000FF0000
0007C0007F0000
0007C0007F0000
000F80007F8000
000F80003F8000
001F80003FC000
001F00001FC000
001F00001FC000
003F00001FE000
003E00000FE000
003FFFFFFFE000
007FFFFFFFF000
007FFFFFFFF000
00FFFFFFFFF000
00FC000003F800
00F8000003F800
01F8000003F800
01F0000001FC00
01F0000001FC00
03F0000001FC00
03F0000000FE00
03E0000000FE00
07E0000000FE00
07E00000007F00
07C00000007F00
0FC00000007F00
0FC00000007F80
1FC00000007F80
1FC00000007F80
1FE0000000FFC0
3FF8000001FFE0
7FFC000003FFF0
FFFC000003FFF8
7FF8000003FFF0
ENDCHAR
STARTCHAR 008E
ENCODING 142
SWIDTH 655 0
DWIDTH 51 0
BBX 53 86 -1 0
BITMAP
000E0000000000
001F0000000000
001F8000000000
001FC000000000
001FE000000000
000FF000000000
0003F800000000
0000FC00000000
00007E00000000
00001F00000000
00000F80000000
000003C0000000
000000E0000000
00000070000000
00000000000000
00008000200000
0000C000600000
0000C000600000
0000E000E00000
00007C07C00000
00007FFF800000
00003FFF800000
00001FFF000000
000007FC000000
00000000000000
00000000000000
00000000000000
00000000000000
00000000000000
00000070000000
000000F0000000
000001F8000000
000001FC000000
000003FC000000
000003FE000000
000007FF000000
000007FF000000
00000FFF800000
00000FBF800000
00001FBFC00000
00001F1FC00000
00003F1FE00000
00003E0FE00000
00007E0FF00000
00007C07F00000
0000FC07F80000
0000F803F80000
0000F803F80000
0001F001FC0000
0001F001FC0000
0003F001FE0000
0003E000FE0000
0007E000FF0000
0007C0007F0000
0007C0007F0000
000F80007F8000
000F80003F8000
001F80003FC000
001F00001FC000
001F00001FC000
003F00001FE000
003E00000FE000
003FFFFFFFE000
007FFFFFFFF000
007FFFFFFFF000
00FFFFFFFFF000
00FC000003F800
00F8000003F800
01F8000003F800
01F0000001FC00
01F0000001FC00
03F0000001FC00
03F0000000FE00
03E0000000FE00
07E0000000FE00
07E00000007F00
07C00000007F00
0FC00000007F00
0FC00000007F80
1FC00000007F80
1FC00000007F80
1FE0000000FFC0
3FF8000001FFE0
7FFC000003FFF0
FFFC000003FFF8
7FF8000003FFF0
ENDCHAR
STARTCHAR 008F
ENCODING 143
SWIDTH 655 0
DWIDTH 51 0
BBX 53 88 -1 0
BITMAP
000001FC000000
00000307000000
00000703000000
00000703800000
00000703800000
00000001800000
00000003800000
00000003800000
00000003000000
00000007000000
0000001E000000
0000007C000000
00000070000000
00000040000000
00000040000000
00000040000000
00000040000000
00008000200000
0000C000600000
0000C000600000
0000E000E00000
00007C07C00000
00007FFF800000
00003FFF800000
00001FFF000000
000007FC000000
00000000000000
00000000000000
00000000000000
00000000000000
00000000000000
00000070000000
000000F0000000
000001F8000000
000001FC000000
000003FC000000
000003FE000000
000007FF000000
000007FF000000
00000FFF800000
00000FBF800000
00001FBFC00000
00001F1FC00000
00003F1FE00000
00003E0FE00000
00007E0FF00000
00007C07F00000
0000FC07F80000
0000F803F80000
0000F803F80000
0001F001FC0000
0001F001FC0000
0003F001FE0000
0003E000FE0000
0007E000FF0000
0007C0007F0000
0007C0007F0000
000F80007F8000
000F80003F8000
001F80003FC000
001F00001FC000
001F00001FC000
003F00001FE000
003E00000FE000
003FFFFFFFE000
007FFFFFFFF000
007FFFFFFFF000
00FFFFFFFFF000
00FC000003F800
00F8000003F800
01F8000003F800
01F0000001FC00
01F0000001FC00
03F0000001FC00
03F0000000FE00
03E0000000FE00
07E0000000FE00
07E00000007F00
07C00000007F00
0FC00000007F00
0FC00000007F80
1FC00000007F80
1FC00000007F80
1FE0000000FFC0
3FF8000001FFE0
7FFC000003FFF0
FFFC000003FFF8
7FF8000003FFF0
ENDCHAR
STARTCHAR 0090
ENCODING 144
SWIDTH 604 0
DWIDTH 47 0
BBX 48 85 2 0
BITMAP
000000000004
00000000001F
00000000003F
00000000007F
0000000000FF
0000000001FE
0000000003F8
0000000007F0
000000000FC0
000000001F00
000007C03E00
00000FC07800
00001FE0F000
00001FF1C000
00003FF00000
00007FF80000
00007C7C0000
0000F83C0000
0001F01E0000
0001E00F0000
0003C0070000
000700038000
00060001C000
000000000000
000000000000
000000000000
000000000000
000000000000
000000000000
7FFFFFFFFF80
FFFFFFFFFFC0
7FFFFFFFFFC0
3FFFFFFFFFC0
0FFE0001FFC0
07F800001FC0
07F0000007C0
07F0000003C0
07F0000001C0
07F000000000
07F000000000
07F000000000
07F000000000
07F000000000
07F000000000
07F000000000
07F000000000
07F000000000
07F000000000
07F000000000
07F000000000
07F000003000
07F00000F800
07FFFFFFF800
07FFFFFFF800
07FFFFFFF800
07FFFFFFF800
07FFFFFFF800
07F00000F800
07F000003000
07F000000000
07F000000000
07F000000000
07F000000000
07F000000000
07F000000000
07F000000000
07F000000000
07F000000000
07F000000000
07F000000000
07F000000000
07F000000000
07F000000000
07F000000000
07F000000010
07F000000038
07F000000078
07F0000001F8
07F0000003F8
0FF800001FF8
0FFF800FFFF0
3FFFFFFFFFF0
7FFFFFFFFFF0
7FFFFFFFFFF0
7FFFFFFFFFC0
ENDCHAR
STARTCHAR 009D
ENCODING 157
SWIDTH 758 0
DWIDTH 59 0
BBX 54 82 3 -2
BITMAP
000000000F0000
000000001F0000
000000003F8000
000000007F8000
00000000FF0000
00000001FE0000
00000003F80000
00000007F00000
0000000FC00000
0000001F000000
0000003E003F00
000000780071C0
000000F000E0C0
000001C000E060
00000000000060
00000000000060
00000000000060
000000000000E0
000000000000E0
000000000001C0
00000000000780
00000000003F00
00000000007C00
00000FFFC06000
00007FFFF84000
0001FFFFFEC000
0007FFFFFF8000
001FFC00FFE000
003FE0001FF000
007F80000FF800
00FF000003FC00
01FE000001FE00
03FC000000FF00
07F80000007F80
07F00000003F80
0FF00000003FC0
1FE00000001FC0
1FC00000001FE0
3FC00000000FE0
3FC00000000FF0
3F800000000FF0
7F8000000007F8
7F8000000007F8
7F0000000007F8
FF0000000007F8
FF0000000003F8
FF0000000003FC
FF0000000003FC
FF0000000003FC
FF0000000003FC
FF0000000003FC
FF0000000003FC
FF0000000003FC
FF0000000003FC
FF0000000003FC
FF0000000003FC
FF0000000003FC
FF0000000003FC
FF0000000003F8
FF0000000007F8
7F0000000007F8
7F8000000007F8
7F8000000007F8
3F800000000FF0
3FC00000000FF0
3FC00000000FF0
1FC00000001FE0
1FE00000001FE0
0FE00000003FC0
0FF00000003F80
07F80000007F80
03FC000000FF00
01FE000001FE00
00FF000003FC00
007F800007F800
003FE0001FF000
001FF8007FE000
000FFFFFFFC000
0003FFFFFF0000
0000FFFFFC0000
00001FFFE00000
00000070000000
ENDCHAR
STARTCHAR 009E
ENCODING 158
SWIDTH 758 0
DWIDTH 59 0
BBX 54 82 3 -2
BITMAP
0000F000000000
0001F800000000
0001FC00000000
0001FE00000000
0000FF00000000
00007F80000000
00001FC0000000
000007E0000000
000003F0000000
000000F8000000
0000003C003F00
0000001E0071C0
0000000700E0C0
0000000000E060
00000000000060
00000000000060
00000000000060
000000000000E0
000000000000E0
000000000001C0
00000000000780
00000000003F00
00000000007C00
00000FFFC06000
00007FFFF84000
0001FFFFFEC000
0007FFFFFF8000
001FFC00FFE000
003FE0001FF000
007F80000FF800
00FF000003FC00
01FE000001FE00
03FC000000FF00
07F80000007F80
07F00000003F80
0FF00000003FC0
1FE00000001FC0
1FC00000001FE0
3FC00000000FE0
3FC00000000FF0
3F800000000FF0
7F8000000007F8
7F8000000007F8
7F0000000007F8
FF0000000007F8
FF0000000003F8
FF0000000003FC
FF0000000003FC
FF0000000003FC
FF0000000003FC
FF0000000003FC
FF0000000003FC
FF0000000003FC
FF0000000003FC
FF0000000003FC
FF0000000003FC
FF0000000003FC
FF0000000003FC
FF0000000003F8
FF0000000007F8
7F0000000007F8
7F8000000007F8
7F8000000007F8
3F800000000FF0
3FC00000000FF0
3FC00000000FF0
1FC00000001FE0
1FE00000001FE0
0FE00000003FC0
0FF00000003F80
07F80000007F80
03FC000000FF00
01FE000001FE00
00FF000003FC00
007F800007F800
003FE0001FF000
001FF8007FE000
000FFFFFFFC000
0003FFFFFF0000
0000FFFFFC0000
00001FFFE00000
00000070000000
ENDCHAR
STARTCHAR 00A0
ENCODING 160
SWIDTH 540 0
DWIDTH 42 0
BBX 0 0 0 0
BITMAP
ENDCHAR
STARTCHAR 00A1
ENCODING 161
SWIDTH 655 0
DWIDTH 51 0
BBX 53 85 -1 0
BITMAP
000000000F0000
000000001F8000
000000003F8000
000000007F8000
00000000FF0000
00000001FC0000
00000003F80000
00000007E00000
0000000FC00000
0000001F000000
0000003C000000
00000078000000
000000E0000000
00000000000000
00008000200000
0000C000600000
0000C000600000
0000E000E00000
00007C07C00000
00007FFF800000
00003FFF800000
00001FFF000000
000007FC000000
00000000000000
00000000000000
00000000000000
00000000000000
00000000000000
00000070000000
000000F0000000
000001F8000000
000001FC000000
000003FC000000
000003FE000000
000007FF000000
000007FF000000
00000FFF800000
00000FBF800000
00001FBFC00000
00001F1FC00000
00003F1FE00000
00003E0FE00000
00007E0FF00000
00007C07F00000
0000FC07F80000
0000F803F80000
0000F803F80000
0001F001FC0000
0001F001FC0000
0003F001FE0000
0003E000FE0000
0007E000FF0000
0007C0007F0000
0007C0007F0000
000F80007F8000
000F80003F8000
001F80003FC000
001F00001FC000
001F00001FC000
003F00001FE000
003E00000FE000
003FFFFFFFE000
007FFFFFFFF000
007FFFFFFFF000
00FFFFFFFFF000
00FC000003F800
00F8000003F800
01F8000003F800
01F0000001FC00
01F0000001FC00
03F0000001FC00
03F0000000FE00
03E0000000FE00
07E0000000FE00
07E00000007F00
07C00000007F00
0FC00000007F00
0FC00000007F80
1FC00000007F80
1FC00000007F80
1FE0000000FFC0
3FF8000001FFE0
7FFC000003FFF0
FFFC000003FFF8
7FF8000003FFF0
ENDCHAR
STARTCHAR 00A2
ENCODING 162
SWIDTH 655 0
DWIDTH 51 0
BBX 53 86 -1 0
BITMAP
000E0000000000
001F0000000000
001F8000000000
001FC000000000
001FE000000000
000FF000000000
0003F800000000
0000FC00000000
00007E00000000
00001F00000000
00000F80000000
000003C0000000
000000E0000000
00000070000000
00000000000000
00008000200000
0000C000600000
0000C000600000
0000E000E00000
00007C07C00000
00007FFF800000
00003FFF800000
00001FFF000000
000007FC000000
00000000000000
00000000000000
00000000000000
00000000000000
00000000000000
00000070000000
000000F0000000
000001F8000000
000001FC000000
000003FC000000
000003FE000000
000007FF000000
000007FF000000
00000FFF800000
00000FBF800000
00001FBFC00000
00001F1FC00000
00003F1FE00000
00003E0FE00000
00007E0FF00000
00007C07F00000
0000FC07F80000
0000F803F80000
0000F803F80000
0001F001FC0000
0001F001FC0000
0003F001FE0000
0003E000FE0000
0007E000FF0000
0007C0007F0000
0007C0007F0000
000F80007F8000
000F80003F8000
001F80003FC000
001F00001FC000
001F00001FC000
003F00001FE000
003E00000FE000
003FFFFFFFE000
007FFFFFFFF000
007FFFFFFFF000
00FFFFFFFFF000
00FC000003F800
00F8000003F800
01F8000003F800
01F0000001FC00
01F0000001FC00
03F0000001FC00
03F0000000FE00
03E0000000FE00
07E0000000FE00
07E00000007F00
07C00000007F00
0FC00000007F00
0FC00000007F80
1FC00000007F80
1FC00000007F80
1FE0000000FFC0
3FF8000001FFE0
7FFC000003FFF0
FFFC000003FFF8
7FF8000003FFF0
ENDCHAR
STARTCHAR 00A3
ENCODING 163
SWIDTH 655 0
DWIDTH 51 0
BBX 53 88 -1 0
BITMAP
000001FC000000
00000307000000
00000703000000
00000703800000
00000703800000
00000001800000
00000003800000
00000003800000
00000003000000
00000007000000
0000001E000000
0000007C000000
00000070000000
00000040000000
00000040000000
00000040000000
00000040000000
00008000200000
0000C000600000
0000C000600000
0000E000E00000
00007C07C00000
00007FFF800000
00003FFF800000
00001FFF000000
000007FC000000
00000000000000
00000000000000
00000000000000
00000000000000
00000000000000
00000070000000
000000F0000000
000001F8000000
000001FC000000
000003FC000000
000003FE000000
000007FF000000
000007FF000000
00000FFF800000
00000FBF800000
00001FBFC00000
00001F1FC00000
00003F1FE00000
00003E0FE00000
00007E0FF00000
00007C07F00000
0000FC07F80000
0000F803F80000
0000F803F80000
0001F001FC0000
0001F001FC0000
0003F001FE0000
0003E000FE0000
0007E000FF0000
0007C0007F0000
0007C0007F0000
000F80007F8000
000F80003F8000
001F80003FC000
001F00001FC000
001F00001FC000
003F00001FE000
003E00000FE000
003FFFFFFFE000
007FFFFFFFF000
007FFFFFFFF000
00FFFFFFFFF000
00FC000003F800
00F8000003F800
01F8000003F800
01F0000001FC00
01F0000001FC00
03F0000001FC00
03F0000000FE00
03E0000000FE00
07E0000000FE00
07E00000007F00
07C00000007F00
0FC00000007F00
0FC00000007F80
1FC00000007F80
1FC00000007F80
1FE0000000FFC0
3FF8000001FFE0
7FFC000003FFF0
FFFC000003FFF8
7FF8000003FFF0
ENDCHAR
STARTCHAR 00A4
ENCODING 164
SWIDTH 655 0
DWIDTH 51 0
BBX 53 85 -1 0
BITMAP
00000000180000
00000000180000
00000FF0380000
00003FFFF00000
00007FFFF00000
00007FFFE00000
0000F0FFC00000
0000C01F000000
0000C000000000
0000C000000000
00000000000000
00000000000000
00000000000000
00000000000000
00008000200000
0000C000600000
0000C000600000
0000E000E00000
00007C07C00000
00007FFF800000
00003FFF800000
00001FFF000000
000007FC000000
00000000000000
00000000000000
00000000000000
00000000000000
00000000000000
00000070000000
000000F0000000
000001F8000000
000001FC000000
000003FC000000
000003FE000000
000007FF000000
000007FF000000
00000FFF800000
00000FBF800000
00001FBFC00000
00001F1FC00000
00003F1FE00000
00003E0FE00000
00007E0FF00000
00007C07F00000
0000FC07F80000
0000F803F80000
0000F803F80000
0001F001FC0000
0001F001FC0000
0003F001FE0000
0003E000FE0000
0007E000FF0000
0007C0007F0000
0007C0007F0000
000F80007F8000
000F80003F8000
001F80003FC000
001F00001FC000
001F00001FC000
003F00001FE000
003E00000FE000
003FFFFFFFE000
007FFFFFFFF000
007FFFFFFFF000
00FFFFFFFFF000
00FC000003F800
00F8000003F800
01F8000003F800
01F0000001FC00
01F0000001FC00
03F0000001FC00
03F0000000FE00
03E0000000FE00
07E0000000FE00
07E00000007F00
07C00000007F00
0FC00000007F00
0FC00000007F80
1FC00000007F80
1FC00000007F80
1FE0000000FFC0
3FF8000001FFE0
7FFC000003FFF0
FFFC000003FFF8
7FF8000003FFF0
ENDCHAR
STARTCHAR 00A5
ENCODING 165
SWIDTH 655 0
DWIDTH 51 0
BBX 53 83 -1 -12
BITMAP
00008000200000
0000C000600000
0000C000600000
0000E000E00000
00007C07C00000
00007FFF800000
00003FFF800000
00001FFF000000
000007FC000000
00000000000000
00000000000000
00000000000000
00000000000000
00000000000000
00000070000000
000000F0000000
000001F8000000
000001FC000000
000003FC000000
000003FE000000
000007FF000000
000007FF000000
00000FFF800000
00000FBF800000
00001FBFC00000
00001F1FC00000
00003F1FE00000
00003E0FE00000
00007E0FF00000
00007C07F00000
0000FC07F80000
0000F803F80000
0000F803F80000
0001F001FC0000
0001F001FC0000
0003F001FE0000
0003E000FE0000
0007E000FF0000
0007C0007F0000
0007C0007F0000
000F80007F8000
000F80003F8000
001F80003FC000
001F00001FC000
001F00001FC000
003F00001FE000
003E00000FE000
003FFFFFFFE000
007FFFFFFFF000
007FFFFFFFF000
00FFFFFFFFF000
00FC000003F800
00F8000003F800
01F8000003F800
01F0000001FC00
01F0000001FC00
03F0000001FC00
03F0000000FE00
03E0000000FE00
07E0000000FE00
07E00000007F00
07C00000007F00
0FC00000007F00
0FC00000007F80
1FC00000007F80
1FC00000007F80
1FE0000000FFC0
3FF8000001FFE0
7FFC000003FFF0
FFFC000003FFF8
7FF8000003FFF0
00000000000000
00000000000000
00000000000000
00000000000000
000007E0000000
000007F0000000
00000FF0000000
00000FF0000000
00000FF0000000
00000FF0000000
000007E0000000
000003C0000000
ENDCHAR
STARTCHAR 00A6
ENCODING 166
SWIDTH 758 0
DWIDTH 59 0
BBX 54 87 3 -2
BITMAP
000000000C0000
000000001C0000
00000FF0180000
00001FFFF80000
00003FFFF00000
00007FFFF00000
000071FFE00000
0000601F800000
0000C000000000
0000C000000000
00000000000000
00000000000000
00000000000000
00000000000000
00000000000000
00000000003F00
000000000071C0
0000000000E0C0
0000000000E060
00000000000060
00000000000060
00000000000060
000000000000E0
000000000000E0
000000000001C0
00000000000780
00000000003F00
00000000007C00
00000FFFC06000
00007FFFF84000
0001FFFFFEC000
0007FFFFFF8000
001FFC00FFE000
003FE0001FF000
007F80000FF800
00FF000003FC00
01FE000001FE00
03FC000000FF00
07F80000007F80
07F00000003F80
0FF00000003FC0
1FE00000001FC0
1FC00000001FE0
3FC00000000FE0
3FC00000000FF0
3F800000000FF0
7F8000000007F8
7F8000000007F8
7F0000000007F8
FF0000000007F8
FF0000000003F8
FF0000000003FC
FF0000000003FC
FF0000000003FC
FF0000000003FC
FF0000000003FC
FF0000000003FC
FF0000000003FC
FF0000000003FC
FF0000000003FC
FF0000000003FC
FF0000000003FC
FF0000000003FC
FF0000000003F8
FF0000000007F8
7F0000000007F8
7F8000000007F8
7F8000000007F8
3F800000000FF0
3FC00000000FF0
3FC00000000FF0
1FC00000001FE0
1FE00000001FE0
0FE00000003FC0
0FF00000003F80
07F80000007F80
03FC000000FF00
01FE000001FE00
00FF000003FC00
007F800007F800
003FE0001FF000
001FF8007FE000
000FFFFFFFC000
0003FFFFFF0000
0000FFFFFC0000
00001FFFE00000
00000070000000
ENDCHAR
STARTCHAR 00A7
ENCODING 167
SWIDTH 758 0
DWIDTH 59 0
BBX 54 82 3 -2
BITMAP
000000000F0000
000000001F0000
000000003F8000
000000007F8000
00000000FF0000
00000001FE0000
00000003F80000
00000007F00000
0000000FC00000
0000001F000000
0000003E003F00
000000780071C0
000000F000E0C0
000001C000E060
00000000000060
00000000000060
00000000000060
000000000000E0
000000000000E0
000000000001C0
00000000000780
00000000003F00
00000000007C00
00000FFFC06000
00007FFFF84000
0001FFFFFEC000
0007FFFFFF8000
001FFC00FFE000
003FE0001FF000
007F80000FF800
00FF000003FC00
01FE000001FE00
03FC000000FF00
07F80000007F80
07F00000003F80
0FF00000003FC0
1FE00000001FC0
1FC00000001FE0
3FC00000000FE0
3FC00000000FF0
3F800000000FF0
7F8000000007F8
7F8000000007F8
7F0000000007F8
FF0000000007F8
FF0000000003F8
FF0000000003FC
FF0000000003FC
FF0000000003FC
FF0000000003FC
FF0000000003FC
FF0000000003FC
FF0000000003FC
FF0000000003FC
FF0000000003FC
FF0000000003FC
FF0000000003FC
FF0000000003FC
FF0000000003F8
FF0000000007F8
7F0000000007F8
7F8000000007F8
7F8000000007F8
3F800000000FF0
3FC00000000FF0
3FC00000000FF0
1FC00000001FE0
1FE00000001FE0
0FE00000003FC0
0FF00000003F80
07F80000007F80
03FC000000FF00
01FE000001FE00
00FF000003FC00
007F800007F800
003FE0001FF000
001FF8007FE000
000FFFFFFFC000
0003FFFFFF0000
0000FFFFFC0000
00001FFFE00000
00000070000000
ENDCHAR
STARTCHAR 00A8
ENCODING 168
SWIDTH 707 0
DWIDTH 55 0
BBX 51 77 2 -2
BITMAP
0000F800000000
0000FC00000000
0000FE00000000
0000FF00000000
00007F80000000
00003FC0000000
00000FE0000000
000007F0000000
000001F8000000
000000F8000000
0000003C000000
0000000E000000
00000007000000
00000000800000
00000000000000
00000000000000
00000000000000
00000000000000
00000000000000
FFFF00000FFFC0
FFFF00000FFFE0
FFFF00000FFFC0
7FFE000007FF80
1FF8000001FF00
0FF0000000FE00
0FF00000007E00
0FF00000007E00
0FE00000007E00
0FE00000007E00
0FE00000007E00
0FE00000003E00
0FE00000003E00
0FE00000003E00
0FE00000003E00
0FC00000003E00
0FC00000003E00
0FC00000003E00
1FC00000003E00
1FC00000003E00
1FC00000003E00
1FC00000003E00
1FC00000003E00
1FC00000003E00
1FC00000003E00
1FC00000003F00
1FC00000003F00
1FC00000003F00
1FC00000003F00
1FC00000003F00
1FC00000003F00
1FC00000003F00
1FC00000003F00
1FC00000003F00
1FC00000003F00
1FC00000003F00
1FC00000003F00
1FC00000003F00
1FC00000003E00
1FC00000003E00
0FC00000007E00
0FE00000007E00
0FE00000007E00
0FE00000007C00
07F0000000FC00
07F0000000FC00
07F8000001F800
03F8000003F800
03FC000003F000
01FE000007E000
00FF80001FE000
00FFE0007FC000
007FF803FF8000
003FFFFFFF0000
000FFFFFFC0000
0003FFFFF00000
0000FFFF800000
000001E0000000
ENDCHAR
STARTCHAR 00A9
ENCODING 169
SWIDTH 758 0
DWIDTH 59 0
BBX 54 82 3 -2
BITMAP
0000F000000000
0001F800000000
0001FC00000000
0001FE00000000
0000FF00000000
00007F80000000
00001FC0000000
000007E0000000
000003F0000000
000000F8000000
0000003C003F00
0000001E0071C0
0000000700E0C0
0000000000E060
00000000000060
00000000000060
00000000000060
000000000000E0
000000000000E0
000000000001C0
00000000000780
00000000003F00
00000000007C00
00000FFFC06000
00007FFFF84000
0001FFFFFEC000
0007FFFFFF8000
001FFC00FFE000
003FE0001FF000
007F80000FF800
00FF000003FC00
01FE000001FE00
03FC000000FF00
07F80000007F80
07F00000003F80
0FF00000003FC0
1FE00000001FC0
1FC00000001FE0
3FC00000000FE0
3FC00000000FF0
3F800000000FF0
7F8000000007F8
7F8000000007F8
7F0000000007F8
FF0000000007F8
FF0000000003F8
FF0000000003FC
FF0000000003FC
FF0000000003FC
FF0000000003FC
FF0000000003FC
FF0000000003FC
FF0000000003FC
FF0000000003FC
FF0000000003FC
FF0000000003FC
FF0000000003FC
FF0000000003FC
FF0000000003F8
FF0000000007F8
7F0000000007F8
7F8000000007F8
7F8000000007F8
3F800000000FF0
3FC00000000FF0
3FC00000000FF0
1FC00000001FE0
1FE00000001FE0
0FE00000003FC0
0FF00000003F80
07F80000007F80
03FC000000FF00
01FE000001FE00
00FF000003FC00
007F800007F800
003FE0001FF000
001FF8007FE000
000FFFFFFFC000
0003FFFFFF0000
0000FFFFFC0000
00001FFFE00000
00000070000000
ENDCHAR
STARTCHAR 00AA
ENCODING 170
SWIDTH 758 0
DWIDTH 59 0
BBX 54 86 3 -2
BITMAP
0000001C000000
000000EF000000
000001C1800000
00000181C00000
00000180C00000
00000180C00000
00000000C00000
00000000C00000
00000001C00000
00000001C00000
00000003800000
0000000F000000
0000003E000000
00000038000000
00000030003F00
000000300071C0
0000003000E0C0
0000000000E060
00000000000060
00000000000060
00000000000060
000000000000E0
000000000000E0
000000000001C0
00000000000780
00000000003F00
00000000007C00
00000FFFC06000
00007FFFF84000
0001FFFFFEC000
0007FFFFFF8000
001FFC00FFE000
003FE0001FF000
007F80000FF800
00FF000003FC00
01FE000001FE00
03FC000000FF00
07F80000007F80
07F00000003F80
0FF00000003FC0
1FE00000001FC0
1FC00000001FE0
3FC00000000FE0
3FC00000000FF0
3F800000000FF0
7F8000000007F8
7F8000000007F8
7F0000000007F8
FF0000000007F8
FF0000000003F8
FF0000000003FC
FF0000000003FC
FF0000000003FC
FF0000000003FC
FF0000000003FC
FF0000000003FC
FF0000000003FC
FF0000000003FC
FF0000000003FC
FF0000000003FC
FF0000000003FC
FF0000000003FC
FF0000000003F8
FF0000000007F8
7F0000000007F8
7F8000000007F8
7F8000000007F8
3F800000000FF0
3FC00000000FF0
3FC00000000FF0
1FC00000001FE0
1FE00000001FE0
0FE00000003FC0
0FF00000003F80
07F80000007F80
03FC000000FF00
01FE000001FE00
00FF000003FC00
007F800007F800
003FE0001FF000
001FF8007FE000
000FFFFFFFC000
0003FFFFFF0000
0000FFFFFC0000
00001FFFE00000
00000070000000
ENDCHAR
STARTCHAR 00AB
ENCODING 171
SWIDTH 758 0
DWIDTH 59 0
BBX 54 87 3 -2
BITMAP
000000000C0000
000000001C0000
00000FF0180000
00001FFFF80000
00003FFFF00000
00007FFFF00000
000071FFE00000
0000601F800000
0000C000000000
0000C000000000
00000000000000
00000000000000
00000000000000
00000000000000
00000000000000
00000000003F00
000000000071C0
0000000000E0C0
0000000000E060
00000000000060
00000000000060
00000000000060
000000000000E0
000000000000E0
000000000001C0
00000000000780
00000000003F00
00000000007C00
00000FFFC06000
00007FFFF84000
0001FFFFFEC000
0007FFFFFF8000
001FFC00FFE000
003FE0001FF000
007F80000FF800
00FF000003FC00
01FE000001FE00
03FC000000FF00
07F80000007F80
07F00000003F80
0FF00000003FC0
1FE00000001FC0
1FC00000001FE0
3FC00000000FE0
3FC00000000FF0
3F800000000FF0
7F8000000007F8
7F8000000007F8
7F0000000007F8
FF0000000007F8
FF0000000003F8
FF0000000003FC
FF0000000003FC
FF0000000003FC
FF0000000003FC
FF0000000003FC
FF0000000003FC
FF0000000003FC
FF0000000003FC
FF0000000003FC
FF0000000003FC
FF0000000003FC
FF0000000003FC
FF0000000003F8
FF0000000007F8
7F0000000007F8
7F8000000007F8
7F8000000007F8
3F800000000FF0
3FC00000000FF0
3FC00000000FF0
1FC00000001FE0
1FE00000001FE0
0FE00000003FC0
0FF00000003F80
07F80000007F80
03FC000000FF00
01FE000001FE00
00FF000003FC00
007F800007F800
003FE0001FF000
001FF8007FE000
000FFFFFFFC000
0003FFFFFF0000
0000FFFFFC0000
00001FFFE00000
00000070000000
ENDCHAR
STARTCHAR 00AC
ENCODING 172
SWIDTH 707 0
DWIDTH 55 0
BBX 51 74 2 -2
BITMAP
00000000030000
000000F0070000
000003FF0E0000
000007FFFE0000
00000FFFFC0000
00001FFFFC0000
00001C1FF00000
00001801800000
00003800000000
00000000000000
00000000000000
00000000000000
00000000000000
00000000000000
00000000000000
00000000000000
FFFF00000FFFC0
FFFF00000FFFE0
FFFF00000FFFC0
7FFE000007FF80
1FF8000001FF00
0FF0000000FE00
0FF00000007E00
0FF00000007E00
0FE00000007E00
0FE00000007E00
0FE00000007E00
0FE00000003E00
0FE00000003E00
0FE00000003E00
0FE00000003E00
0FC00000003E00
0FC00000003E00
0FC00000003E00
1FC00000003E00
1FC00000003E00
1FC00000003E00
1FC00000003E00
1FC00000003E00
1FC00000003E00
1FC00000003E00
1FC00000003F00
1FC00000003F00
1FC00000003F00
1FC00000003F00
1FC00000003F00
1FC00000003F00
1FC00000003F00
1FC00000003F00
1FC00000003F00
1FC00000003F00
1FC00000003F00
1FC00000003F00
1FC00000003F00
1FC00000003E00
1FC00000003E00
0FC00000007E00
0FE00000007E00
0FE00000007E00
0FE00000007C00
07F0000000FC00
07F0000000FC00
07F8000001F800
03F8000003F800
03FC000003F000
01FE000007E000
00FF80001FE000
00FFE0007FC000
007FF803FF8000
003FFFFFFF0000
000FFFFFFC0000
0003FFFFF00000
0000FFFF800000
000001E0000000
ENDCHAR
STARTCHAR 00AD
ENCODING 173
SWIDTH 707 0
DWIDTH 55 0
BBX 56 82 2 -1
BITMAP
000000001F0000
000000003F8000
000000007F8000
00000000FF0000
00000001FE0000
00000001FC0000
00000003F00000
00000007E00000
0000000F800000
0000001F000000
0000003C0001F8
0000007000070C
000000E0000706
00000000000703
00000000000003
00000000000003
00000000000003
00000000000007
00000000000006
0000000000000E
0000000000003C
000000000001F8
000000000003E0
00000000000200
FFFF00000FFFC0
FFFF00000FFFE0
FFFF00000FFFC0
7FFE000007FF80
1FF8000001FF00
0FF0000000FE00
0FF00000007E00
0FF00000007E00
0FE00000007E00
0FE00000007E00
0FE00000007E00
0FE00000003E00
0FE00000003E00
0FE00000003E00
0FE00000003E00
0FC00000003E00
0FC00000003E00
0FC00000003E00
1FC00000003E00
1FC00000003E00
1FC00000003E00
1FC00000003E00
1FC00000003E00
1FC00000003E00
1FC00000003E00
1FC00000003F00
1FC00000003F00
1FC00000003F00
1FC00000003F00
1FC00000003F00
1FC00000003F00
1FC00000003F00
1FC00000003F00
1FC00000003F00
1FC00000003F00
1FC00000003F00
1FC00000003F00
1FC00000003F00
1FC00000003E00
1FC00000003E00
0FC00000007E00
0FE00000007E00
0FE00000007E00
0FE00000007C00
07F0000000FC00
07F0000000FC00
07F8000001F800
03F8000003F800
03FC000003F000
01FE000007E000
00FF80001FE000
00FFE0007FC000
007FF803FF8000
003FFFFFFF0000
000FFFFFFC0000
0003FFFFF00000
0000FFFF800000
000001E0000000
ENDCHAR
STARTCHAR 00AE
ENCODING 174
SWIDTH 758 0
DWIDTH 59 0
BBX 54 83 3 -13
BITMAP
00000000003F00
000000000071C0
0000000000E0C0
0000000000E060
00000000000060
00000000000060
00000000000060
000000000000E0
000000000000E0
000000000001C0
00000000000780
00000000003F00
00000000007C00
00000FFFC06000
00007FFFF84000
0001FFFFFEC000
0007FFFFFF8000
001FFC00FFE000
003FE0001FF000
007F80000FF800
00FF000003FC00
01FE000001FE00
03FC000000FF00
07F80000007F80
07F00000003F80
0FF00000003FC0
1FE00000001FC0
1FC00000001FE0
3FC00000000FE0
3FC00000000FF0
3F800000000FF0
7F8000000007F8
7F8000000007F8
7F0000000007F8
FF0000000007F8
FF0000000003F8
FF0000000003FC
FF0000000003FC
FF0000000003FC
FF0000000003FC
FF0000000003FC
FF0000000003FC
FF0000000003FC
FF0000000003FC
FF0000000003FC
FF0000000003FC
FF0000000003FC
FF0000000003FC
FF0000000003F8
FF0000000007F8
7F0000000007F8
7F8000000007F8
7F8000000007F8
3F800000000FF0
3FC00000000FF0
3FC00000000FF0
1FC00000001FE0
1FE00000001FE0
0FE00000003FC0
0FF00000003F80
07F80000007F80
03FC000000FF00
01FE000001FE00
00FF000003FC00
007F800007F800
003FE0001FF000
001FF8007FE000
000FFFFFFFC000
0003FFFFFF0000
0000FFFFFC0000
00001FFFE00000
00000070000000
00000000000000
00000000000000
00000000000000
00000078000000
000000FE000000
000001FE000000
000001FE000000
000001FE000000
000001FE000000
000000FE000000
0000007C000000
ENDCHAR
STARTCHAR 00AF
ENCODING 175
SWIDTH 707 0
DWIDTH 55 0
BBX 56 81 2 -2
BITMAP
0001F000000000
0001F800000000
0001FC00000000
0001FE00000000
0000FF00000000
00007F80000000
00001FC0000000
000007E0000000
000003F0000000
000000F80001F8
0000007C00070C
0000001E000706
00000007000703
00000000000003
00000000000003
00000000000003
00000000000007
00000000000006
0000000000000E
0000000000003C
000000000001F8
000000000003E0
00000000000200
FFFF00000FFFC0
FFFF00000FFFE0
FFFF00000FFFC0
7FFE000007FF80
1FF8000001FF00
0FF0000000FE00
0FF00000007E00
0FF00000007E00
0FE00000007E00
0FE00000007E00
0FE00000007E00
0FE00000003E00
0FE00000003E00
0FE00000003E00
0FE00000003E00
0FC00000003E00
0FC00000003E00
0FC00000003E00
1FC00000003E00
1FC00000003E00
1FC00000003E00
1FC00000003E00
1FC00000003E00
1FC00000003E00
1FC00000003E00
1FC00000003F00
1FC00000003F00
1FC00000003F00
1FC00000003F00
1FC00000003F00
1FC00000003F00
1FC00000003F00
1FC00000003F00
1FC00000003F00
1FC00000003F00
1FC00000003F00
1FC00000003F00
1FC00000003F00
1FC00000003E00
1FC00000003E00
0FC00000007E00
0FE00000007E00
0FE00000007E00
0FE00000007C00
07F0000000FC00
07F0000000FC00
07F8000001F800
03F8000003F800
03FC000003F000
01FE000007E000
00FF80001FE000
00FFE0007FC000
007FF803FF8000
003FFFFFFF0000
000FFFFFFC0000
0003FFFFF00000
0000FFFF800000
000001E0000000
ENDCHAR
STARTCHAR 00B0
ENCODING 176
SWIDTH 758 0
DWIDTH 59 0
BBX 54 89 3 -2
BITMAP
0000000003F000
00000000063800
000000000C0C00
000000001C0E00
000000001C0600
00000000080600
00000000000600
00000000000E00
00000000000E00
00000000001C00
00000000003C00
0000000000F800
000000F801E000
000000FC018000
000001FE010000
000003FE010000
000003FF010000
000007FF800000
00000FCF800000
00000F87C00000
00001E03E00000
00003C01E00000
00003800700000
00007000380000
0000E000180000
00000000000000
00000000000000
00000000000000
00000000000000
00000000000000
00000FFFC00000
00007FFFF80000
0001FFFFFE0000
0007FFFFFF8000
001FFC00FFE000
003FE0001FF000
007F80000FF800
00FF000003FC00
01FE000001FE00
03FC000000FF00
07F80000007F80
07F00000003F80
0FF00000003FC0
1FE00000001FC0
1FC00000001FE0
3FC00000000FE0
3FC00000000FF0
3F800000000FF0
7F8000000007F8
7F8000000007F8
7F0000000007F8
FF0000000007F8
FF0000000003F8
FF0000000003FC
FF0000000003FC
FF0000000003FC
FF0000000003FC
FF0000000003FC
FF0000000003FC
FF0000000003FC
FF0000000003FC
FF0000000003FC
FF0000000003FC
FF0000000003FC
FF0000000003FC
FF0000000003F8
FF0000000007F8
7F0000000007F8
7F8000000007F8
7F8000000007F8
3F800000000FF0
3FC00000000FF0
3FC00000000FF0
1FC00000001FE0
1FE00000001FE0
0FE00000003FC0
0FF00000003F80
07F80000007F80
03FC000000FF00
01FE000001FE00
00FF000003FC00
007F800007F800
003FE0001FF000
001FF8007FE000
000FFFFFFFC000
0003FFFFFF0000
0000FFFFFC0000
00001FFFE00000
00000070000000
ENDCHAR
STARTCHAR 00B1
ENCODING 177
SWIDTH 707 0
DWIDTH 55 0
BBX 56 83 2 -2
BITMAP
0000001E000000
00000077800000
000000C0C00000
000001C0E00000
000001C0600000
00000080600000
00000000600000
00000000600000
00000000E00000
00000000C00000
00000003C00000
000000078001F8
0000001F00070C
00000018000706
00000010000703
00000010000003
00000010000003
00000010000003
00000000000007
00000000000006
0000000000000E
0000000000003C
000000000001F8
000000000003E0
00000000000200
FFFF00000FFFC0
FFFF00000FFFE0
FFFF00000FFFC0
7FFE000007FF80
1FF8000001FF00
0FF0000000FE00
0FF00000007E00
0FF00000007E00
0FE00000007E00
0FE00000007E00
0FE00000007E00
0FE00000003E00
0FE00000003E00
0FE00000003E00
0FE00000003E00
0FC00000003E00
0FC00000003E00
0FC00000003E00
1FC00000003E00
1FC00000003E00
1FC00000003E00
1FC00000003E00
1FC00000003E00
1FC00000003E00
1FC00000003E00
1FC00000003F00
1FC00000003F00
1FC00000003F00
1FC00000003F00
1FC00000003F00
1FC00000003F00
1FC00000003F00
1FC00000003F00
1FC00000003F00
1FC00000003F00
1FC00000003F00
1FC00000003F00
1FC00000003F00
1FC00000003E00
1FC00000003E00
0FC00000007E00
0FE00000007E00
0FE00000007E00
0FE00000007C00
07F0000000FC00
07F0000000FC00
07F8000001F800
03F8000003F800
03FC000003F000
01FE000007E000
00FF80001FE000
00FFE0007FC000
007FF803FF8000
003FFFFFFF0000
000FFFFFFC0000
0003FFFFF00000
0000FFFF800000
000001E0000000
ENDCHAR
STARTCHAR 00B2
ENCODING 178
SWIDTH 655 0
DWIDTH 51 0
BBX 52 75 -1 0
BITMAP
00018000000000
0003E000000000
0003F000000000
0003F800000000
0003FC00000000
0001FE00000000
00007F00000000
00003F80000000
00000FC0000000
000007E0000000
000001F0000000
00000078000000
0000003C000000
0000000E000000
00000000000000
00000000000000
00000000000000
00000000000000
00000000000000
FFFE000003FFF0
FFFF000003FFF0
FFFE000003FFE0
7FFC000000FFC0
1FF80000007F80
0FF00000003F80
07F80000003F00
07F80000007E00
03FC0000007E00
01FC0000007C00
01FE000000F800
00FE000000F800
00FF000001F000
007F800001E000
003F800003E000
003FC00007C000
001FE000078000
000FE0000F8000
000FF0001F0000
0007F8001E0000
0003FC003E0000
0003FC007C0000
0001FE00F80000
0000FF00F80000
00007F81F00000
00007F83E00000
00003FC7E00000
00001FE7C00000
00000FFF800000
00000FFF000000
000007FF000000
000003FE000000
000003FC000000
000001FC000000
000001FC000000
000001FC000000
000001FC000000
000001FC000000
000001FC000000
000001FC000000
000001FC000000
000001FC000000
000001FC000000
000001FC000000
000001FC000000
000001FC000000
000001FC000000
000001FC000000
000001FC000000
000001FC000000
000003FC000000
000003FE000000
00000FFF800000
00001FFFC00000
00001FFFC00000
00001FFFC00000
ENDCHAR
STARTCHAR 00B3
ENCODING 179
SWIDTH 655 0
DWIDTH 51 0
BBX 52 73 -1 0
BITMAP
00000000030000
00000000030000
000001FC070000
000007FFFE0000
00000FFFFE0000
00000FFFFC0000
00001E3FF80000
00001803F00000
00001800000000
00001800000000
00000000000000
00000000000000
00000000000000
00000000000000
00000000000000
00000000000000
00000000000000
FFFE000003FFF0
FFFF000003FFF0
FFFE000003FFE0
7FFC000000FFC0
1FF80000007F80
0FF00000003F80
07F80000003F00
07F80000007E00
03FC0000007E00
01FC0000007C00
01FE000000F800
00FE000000F800
00FF000001F000
007F800001E000
003F800003E000
003FC00007C000
001FE000078000
000FE0000F8000
000FF0001F0000
0007F8001E0000
0003FC003E0000
0003FC007C0000
0001FE00F80000
0000FF00F80000
00007F81F00000
00007F83E00000
00003FC7E00000
00001FE7C00000
00000FFF800000
00000FFF000000
000007FF000000
000003FE000000
000003FC000000
000001FC000000
000001FC000000
000001FC000000
000001FC000000
000001FC000000
000001FC000000
000001FC000000
000001FC000000
000001FC000000
000001FC000000
000001FC000000
000001FC000000
000001FC000000
000001FC000000
000001FC000000
000001FC000000
000001FC000000
000003FC000000
000003FE000000
00000FFF800000
00001FFFC00000
00001FFFC00000
00001FFFC00000
ENDCHAR
STARTCHAR 00B4
ENCODING 180
SWIDTH 270 0
DWIDTH 21 0
BBX 19 75 3 0
BITMAP
0003C0
000FC0
000FE0
001FC0
003F80
007F00
00FE00
01F800
03E000
07C000
0F0000
1E0000
380000
000000
000000
000000
000000
000000
000000
FFFE00
FFFF00
FFFE00
7FFC00
1FF000
0FF000
0FE000
0FE000
0FE000
0FE000
0FE000
0FE000
0FE000
0FE000
0FE000
0FE000
0FE000
0FE000
0FE000
0FE000
0FE000
0FE000
0FE000
0FE000
0FE000
0FE000
0FE000
0FE000
0FE000
0FE000
0FE000
0FE000
0FE000
0FE000
0FE000
0FE000
0FE000
0FE000
0FE000
0FE000
0FE000
0FE000
0FE000
0FE000
0FE000
0FE000
0FE000
0FE000
0FE000
0FE000
0FF000
1FF800
7FFC00
FFFE00
FFFF00
FFFE00
ENDCHAR
STARTCHAR 00B5
ENCODING 181
SWIDTH 270 0
DWIDTH 21 0
BBX 19 75 0 0
BITMAP
780000
FC0000
FE0000
FF0000
7F8000
3FC000
0FE000
03F000
01F800
007C00
003E00
000F00
000380
000000
000000
000000
000000
000000
000000
1FFFC0
1FFFE0
1FFFC0
0FFF80
03FE00
01FE00
01FC00
01FC00
01FC00
01FC00
01FC00
01FC00
01FC00
01FC00
01FC00
01FC00
01FC00
01FC00
01FC00
01FC00
01FC00
01FC00
01FC00
01FC00
01FC00
01FC00
01FC00
01FC00
01FC00
01FC00
01FC00
01FC00
01FC00
01FC00
01FC00
01FC00
01FC00
01FC00
01FC00
01FC00
01FC00
01FC00
01FC00
01FC00
01FC00
01FC00
01FC00
01FC00
01FC00
01FC00
01FE00
03FF00
0FFF80
1FFFC0
1FFFE0
1FFFC0
ENDCHAR
STARTCHAR 00B6
ENCODING 182
SWIDTH 758 0
DWIDTH 59 0
BBX 54 88 3 -13
BITMAP
000000F8000000
000000FC000000
000001FE000000
000003FE000000
000003FF000000
000007FF800000
00000FCF800000
00000F87C00000
00001E03E00000
00003C01E00000
00003800700000
00007000380000
0000E000180000
00000000000000
00000000000000
00000000000000
00000000000000
00000000000000
00000FFFC00000
00007FFFF80000
0001FFFFFE0000
0007FFFFFF8000
001FFC00FFE000
003FE0001FF000
007F80000FF800
00FF000003FC00
01FE000001FE00
03FC000000FF00
07F80000007F80
07F00000003F80
0FF00000003FC0
1FE00000001FC0
1FC00000001FE0
3FC00000000FE0
3FC00000000FF0
3F800000000FF0
7F8000000007F8
7F8000000007F8
7F0000000007F8
FF0000000007F8
FF0000000003F8
FF0000000003FC
FF0000000003FC
FF0000000003FC
FF0000000003FC
FF0000000003FC
FF0000000003FC
FF0000000003FC
FF0000000003FC
FF0000000003FC
FF0000000003FC
FF0000000003FC
FF0000000003FC
FF0000000003F8
FF0000000007F8
7F0000000007F8
7F8000000007F8
7F8000000007F8
3F800000000FF0
3FC00000000FF0
3FC00000000FF0
1FC00000001FE0
1FE00000001FE0
0FE00000003FC0
0FF00000003F80
07F80000007F80
03FC000000FF00
01FE000001FE00
00FF000003FC00
007F800007F800
003FE0001FF000
001FF8007FE000
000FFFFFFFC000
0003FFFFFF0000
0000FFFFFC0000
00001FFFE00000
00000070000000
00000000000000
00000000000000
00000000000000
00000078000000
000000FE000000
000001FE000000
000001FE000000
000001FE000000
000001FE000000
000000FE000000
0000007C000000
ENDCHAR
STARTCHAR 00B8
ENCODING 184
SWIDTH 270 0
DWIDTH 21 0
BBX 22 71 -1 0
BITMAP
00000C
07E018
1FFE38
3FFFF8
3FFFF0
7FFFE0
603FC0
E00000
C00000
000000
000000
000000
000000
000000
000000
0FFFE0
0FFFF0
0FFFE0
07FFC0
01FF00
00FF00
00FE00
00FE00
00FE00
00FE00
00FE00
00FE00
00FE00
00FE00
00FE00
00FE00
00FE00
00FE00
00FE00
00FE00
00FE00
00FE00
00FE00
00FE00
00FE00
00FE00
00FE00
00FE00
00FE00
00FE00
00FE00
00FE00
00FE00
00FE00
00FE00
00FE00
00FE00
00FE00
00FE00
00FE00
00FE00
00FE00
00FE00
00FE00
00FE00
00FE00
00FE00
00FE00
00FE00
00FE00
00FF00
01FF80
07FFC0
0FFFE0
0FFFF0
0FFFE0
ENDCHAR
STARTCHAR 00B9
ENCODING 185
SWIDTH 758 0
DWIDTH 59 0
BBX 54 77 3 -2
BITMAP
00000000780000
00000000FC0000
00000001FC0000
00000003F80000
00000007F80000
0000000FE00000
0000001FC00000
0000003F000000
0000007E000000
000000F8000000
000001E0000000
000003C0000000
00000700000000
00000000000000
00000000000000
00000000000000
00000000000000
00000000000000
00000FFFC00000
00007FFFF80000
0001FFFFFE0000
0007FFFFFF8000
001FFC00FFE000
003FE0001FF000
007F80000FF800
00FF000003FC00
01FE000001FE00
03FC000000FF00
07F80000007F80
07F00000003F80
0FF00000003FC0
1FE00000001FC0
1FC00000001FE0
3FC00000000FE0
3FC00000000FF0
3F800000000FF0
7F8000000007F8
7F8000000007F8
7F0000000007F8
FF0000000007F8
FF0000000003F8
FF0000000003FC
FF0000000003FC
FF0000000003FC
FF0000000003FC
FF0000000003FC
FF0000000003FC
FF0000000003FC
FF0000000003FC
FF0000000003FC
FF0000000003FC
FF0000000003FC
FF0000000003FC
FF0000000003F8
FF0000000007F8
7F0000000007F8
7F8000000007F8
7F8000000007F8
3F800000000FF0
3FC00000000FF0
3FC00000000FF0
1FC00000001FE0
1FE00000001FE0
0FE00000003FC0
0FF00000003F80
07F80000007F80
03FC000000FF00
01FE000001FE00
00FF000003FC00
007F800007F800
003FE0001FF000
001FF8007FE000
000FFFFFFFC000
0003FFFFFF0000
0000FFFFFC0000
00001FFFE00000
00000070000000
ENDCHAR
STARTCHAR 00BA
ENCODING 186
SWIDTH 707 0
DWIDTH 55 0
BBX 56 83 2 -2
BITMAP
0000001E000000
00000077800000
000000C0C00000
000001C0E00000
000001C0600000
00000080600000
00000000600000
00000000600000
00000000E00000
00000000C00000
00000003C00000
000000078001F8
0000001F00070C
00000018000706
00000010000703
00000010000003
00000010000003
00000010000003
00000000000007
00000000000006
0000000000000E
0000000000003C
000000000001F8
000000000003E0
00000000000200
FFFF00000FFFC0
FFFF00000FFFE0
FFFF00000FFFC0
7FFE000007FF80
1FF8000001FF00
0FF0000000FE00
0FF00000007E00
0FF00000007E00
0FE00000007E00
0FE00000007E00
0FE00000007E00
0FE00000003E00
0FE00000003E00
0FE00000003E00
0FE00000003E00
0FC00000003E00
0FC00000003E00
0FC00000003E00
1FC00000003E00
1FC00000003E00
1FC00000003E00
1FC00000003E00
1FC00000003E00
1FC00000003E00
1FC00000003E00
1FC00000003F00
1FC00000003F00
1FC00000003F00
1FC00000003F00
1FC00000003F00
1FC00000003F00
1FC00000003F00
1FC00000003F00
1FC00000003F00
1FC00000003F00
1FC00000003F00
1FC00000003F00
1FC00000003F00
1FC00000003E00
1FC00000003E00
0FC00000007E00
0FE00000007E00
0FE00000007E00
0FE00000007C00
07F0000000FC00
07F0000000FC00
07F8000001F800
03F8000003F800
03FC000003F000
01FE000007E000
00FF80001FE000
00FFE0007FC000
007FF803FF8000
003FFFFFFF0000
000FFFFFFC0000
0003FFFFF00000
0000FFFF800000
000001E0000000
ENDCHAR
STARTCHAR 00BB
ENCODING 187
SWIDTH 707 0
DWIDTH 55 0
BBX 56 88 2 -2
BITMAP
00000000060000
00000000060000
000003F80C0000
00000FFFBC0000
00001FFFFC0000
00001FFFF80000
00003CFFF00000
0000300FC00000
00007000000000
00006000000000
00000000000000
00000000000000
00000000000000
00000000000000
00000000000000
00000000000000
000000000001F8
0000000000070C
00000000000706
00000000000703
00000000000003
00000000000003
00000000000003
00000000000007
00000000000006
0000000000000E
0000000000003C
000000000001F8
000000000003E0
00000000000200
FFFF00000FFFC0
FFFF00000FFFE0
FFFF00000FFFC0
7FFE000007FF80
1FF8000001FF00
0FF0000000FE00
0FF00000007E00
0FF00000007E00
0FE00000007E00
0FE00000007E00
0FE00000007E00
0FE00000003E00
0FE00000003E00
0FE00000003E00
0FE00000003E00
0FC00000003E00
0FC00000003E00
0FC00000003E00
1FC00000003E00
1FC00000003E00
1FC00000003E00
1FC00000003E00
1FC00000003E00
1FC00000003E00
1FC00000003E00
1FC00000003F00
1FC00000003F00
1FC00000003F00
1FC00000003F00
1FC00000003F00
1FC00000003F00
1FC00000003F00
1FC00000003F00
1FC00000003F00
1FC00000003F00
1FC00000003F00
1FC00000003F00
1FC00000003F00
1FC00000003E00
1FC00000003E00
0FC00000007E00
0FE00000007E00
0FE00000007E00
0FE00000007C00
07F0000000FC00
07F0000000FC00
07F8000001F800
03F8000003F800
03FC000003F000
01FE000007E000
00FF80001FE000
00FFE0007FC000
007FF803FF8000
003FFFFFFF0000
000FFFFFFC0000
0003FFFFF00000
0000FFFF800000
000001E0000000
ENDCHAR
STARTCHAR 00BC
ENCODING 188
SWIDTH 758 0
DWIDTH 59 0
BBX 54 77 3 -2
BITMAP
00007800000000
0000FC00000000
0000FE00000000
0000FF00000000
00007F80000000
00003FC0000000
00000FE0000000
000003F0000000
000001F8000000
0000007C000000
0000003E000000
0000000F000000
00000003800000
00000000000000
00000000000000
00000000000000
00000000000000
00000000000000
00000FFFC00000
00007FFFF80000
0001FFFFFE0000
0007FFFFFF8000
001FFC00FFE000
003FE0001FF000
007F80000FF800
00FF000003FC00
01FE000001FE00
03FC000000FF00
07F80000007F80
07F00000003F80
0FF00000003FC0
1FE00000001FC0
1FC00000001FE0
3FC00000000FE0
3FC00000000FF0
3F800000000FF0
7F8000000007F8
7F8000000007F8
7F0000000007F8
FF0000000007F8
FF0000000003F8
FF0000000003FC
FF0000000003FC
FF0000000003FC
FF0000000003FC
FF0000000003FC
FF0000000003FC
FF0000000003FC
FF0000000003FC
FF0000000003FC
FF0000000003FC
FF0000000003FC
FF0000000003FC
FF0000000003F8
FF0000000007F8
7F0000000007F8
7F8000000007F8
7F8000000007F8
3F800000000FF0
3FC00000000FF0
3FC00000000FF0
1FC00000001FE0
1FE00000001FE0
0FE00000003FC0
0FF00000003F80
07F80000007F80
03FC000000FF00
01FE000001FE00
00FF000003FC00
007F800007F800
003FE0001FF000
001FF8007FE000
000FFFFFFFC000
0003FFFFFF0000
0000FFFFFC0000
00001FFFE00000
00000070000000
ENDCHAR
STARTCHAR 00BD
ENCODING 189
SWIDTH 758 0
DWIDTH 59 0
BBX 54 81 3 -2
BITMAP
00000008000000
000000FF000000
000001C1800000
00000181C00000
00000180C00000
00000180C00000
00000000C00000
00000000C00000
00000000C00000
00000001C00000
00000003800000
0000000F000000
0000001E000000
00000038000000
00000030000000
00000030000000
00000030000000
00000020000000
00000000000000
00000000000000
00000000000000
00000000000000
00000FFFC00000
00007FFFF80000
0001FFFFFE0000
0007FFFFFF8000
001FFC00FFE000
003FE0001FF000
007F80000FF800
00FF000003FC00
01FE000001FE00
03FC000000FF00
07F80000007F80
07F00000003F80
0FF00000003FC0
1FE00000001FC0
1FC00000001FE0
3FC00000000FE0
3FC00000000FF0
3F800000000FF0
7F8000000007F8
7F8000000007F8
7F0000000007F8
FF0000000007F8
FF0000000003F8
FF0000000003FC
FF0000000003FC
FF0000000003FC
FF0000000003FC
FF0000000003FC
FF0000000003FC
FF0000000003FC
FF0000000003FC
FF0000000003FC
FF0000000003FC
FF0000000003FC
FF0000000003FC
FF0000000003F8
FF0000000007F8
7F0000000007F8
7F8000000007F8
7F8000000007F8
3F800000000FF0
3FC00000000FF0
3FC00000000FF0
1FC00000001FE0
1FE00000001FE0
0FE00000003FC0
0FF00000003F80
07F80000007F80
03FC000000FF00
01FE000001FE00
00FF000003FC00
007F800007F800
003FE0001FF000
001FF8007FE000
000FFFFFFFC000
0003FFFFFF0000
0000FFFFFC0000
00001FFFE00000
00000070000000
ENDCHAR
STARTCHAR 00BE
ENCODING 190
SWIDTH 758 0
DWIDTH 59 0
BBX 54 75 3 -2
BITMAP
000000000C0000
00000000180000
00000FF8380000
00001FFFF80000
00003FFFF00000
00007FFFF00000
000070FFC00000
0000E00F000000
0000C000000000
0000C000000000
00000000000000
00000000000000
00000000000000
00000000000000
00000000000000
00000000000000
00000FFFC00000
00007FFFF80000
0001FFFFFE0000
0007FFFFFF8000
001FFC00FFE000
003FE0001FF000
007F80000FF800
00FF000003FC00
01FE000001FE00
03FC000000FF00
07F80000007F80
07F00000003F80
0FF00000003FC0
1FE00000001FC0
1FC00000001FE0
3FC00000000FE0
3FC00000000FF0
3F800000000FF0
7F8000000007F8
7F8000000007F8
7F0000000007F8
FF0000000007F8
FF0000000003F8
FF0000000003FC
FF0000000003FC
FF0000000003FC
FF0000000003FC
FF0000000003FC
FF0000000003FC
FF0000000003FC
FF0000000003FC
FF0000000003FC
FF0000000003FC
FF0000000003FC
FF0000000003FC
FF0000000003F8
FF0000000007F8
7F0000000007F8
7F8000000007F8
7F8000000007F8
3F800000000FF0
3FC00000000FF0
3FC00000000FF0
1FC00000001FE0
1FE00000001FE0
0FE00000003FC0
0FF00000003F80
07F80000007F80
03FC000000FF00
01FE000001FE00
00FF000003FC00
007F800007F800
003FE0001FF000
001FF8007FE000
000FFFFFFFC000
0003FFFFFF0000
0000FFFFFC0000
00001FFFE00000
00000070000000
ENDCHAR
STARTCHAR 00BF
ENCODING 191
SWIDTH 707 0
DWIDTH 55 0
BBX 56 83 2 -13
BITMAP
000000000001F8
0000000000070C
00000000000706
00000000000703
00000000000003
00000000000003
00000000000003
00000000000007
00000000000006
0000000000000E
0000000000003C
000000000001F8
000000000003E0
00000000000200
FFFF00000FFFC0
FFFF00000FFFE0
FFFF00000FFFC0
7FFE000007FF80
1FF8000001FF00
0FF0000000FE00
0FF00000007E00
0FF00000007E00
0FE00000007E00
0FE00000007E00
0FE00000007E00
0FE00000003E00
0FE00000003E00
0FE00000003E00
0FE00000003E00
0FC00000003E00
0FC00000003E00
0FC00000003E00
1FC00000003E00
1FC00000003E00
1FC00000003E00
1FC00000003E00
1FC00000003E00
1FC00000003E00
1FC00000003E00
1FC00000003F00
1FC00000003F00
1FC00000003F00
1FC00000003F00
1FC00000003F00
1FC00000003F00
1FC00000003F00
1FC00000003F00
1FC00000003F00
1FC00000003F00
1FC00000003F00
1FC00000003F00
1FC00000003F00
1FC00000003E00
1FC00000003E00
0FC00000007E00
0FE00000007E00
0FE00000007E00
0FE00000007C00
07F0000000FC00
07F0000000FC00
07F8000001F800
03F8000003F800
03FC000003F000
01FE000007E000
00FF80001FE000
00FFE0007FC000
007FF803FF8000
003FFFFFFF0000
000FFFFFFC0000
0003FFFFF00000
0000FFFF800000
000001E0000000
00000000000000
00000000000000
00000000000000
000003F0000000
000007F8000000
000007F8000000
000007F8000000
000007F8000000
000007F8000000
000003F0000000
000001E0000000
ENDCHAR
STARTCHAR 00C0
ENCODING 192
SWIDTH 655 0
DWIDTH 51 0
BBX 53 84 -1 0
BITMAP
1E000000000000
3F000000000000
3F800000000000
3FC00000000000
1FE00000000000
0FF00000000000
03F80000000000
01FC0000000000
007E0000000000
001F00F8000000
000F81FC000000
0003C1FE000000
0001E3FE000000
000007FF000000
000007FF800000
00000F8F800000
00001F07C00000
00001E03E00000
00003C01E00000
00007800F00000
00007000780000
0000E000180000
00000000000000
00000000000000
00000000000000
00000000000000
00000000000000
00000070000000
000000F0000000
000001F8000000
000001FC000000
000003FC000000
000003FE000000
000007FF000000
000007FF000000
00000FFF800000
00000FBF800000
00001FBFC00000
00001F1FC00000
00003F1FE00000
00003E0FE00000
00007E0FF00000
00007C07F00000
0000FC07F80000
0000F803F80000
0000F803F80000
0001F001FC0000
0001F001FC0000
0003F001FE0000
0003E000FE0000
0007E000FF0000
0007C0007F0000
0007C0007F0000
000F80007F8000
000F80003F8000
001F80003FC000
001F00001FC000
001F00001FC000
003F00001FE000
003E00000FE000
003FFFFFFFE000
007FFFFFFFF000
007FFFFFFFF000
00FFFFFFFFF000
00FC000003F800
00F8000003F800
01F8000003F800
01F0000001FC00
01F0000001FC00
03F0000001FC00
03F0000000FE00
03E0000000FE00
07E0000000FE00
07E00000007F00
07C00000007F00
0FC00000007F00
0FC00000007F80
1FC00000007F80
1FC00000007F80
1FE0000000FFC0
3FF8000001FFE0
7FFC000003FFF0
FFFC000003FFF8
7FF8000003FFF0
ENDCHAR
STARTCHAR 00C1
ENCODING 193
SWIDTH 655 0
DWIDTH 51 0
BBX 53 75 -1 0
BITMAP
00000000780000
00000001F80000
00000003F80000
00000007F80000
00000007F00000
0000000FE00000
0000001FC00000
0000003F000000
0000007C000000
000000F8000000
000001E0000000
00000380000000
00000700000000
00000800000000
00000000000000
00000000000000
00000000000000
00000000000000
00000070000000
000000F0000000
000001F8000000
000001FC000000
000003FC000000
000003FE000000
000007FF000000
000007FF000000
00000FFF800000
00000FBF800000
00001FBFC00000
00001F1FC00000
00003F1FE00000
00003E0FE00000
00007E0FF00000
00007C07F00000
0000FC07F80000
0000F803F80000
0000F803F80000
0001F001FC0000
0001F001FC0000
0003F001FE0000
0003E000FE0000
0007E000FF0000
0007C0007F0000
0007C0007F0000
000F80007F8000
000F80003F8000
001F80003FC000
001F00001FC000
001F00001FC000
003F00001FE000
003E00000FE000
003FFFFFFFE000
007FFFFFFFF000
007FFFFFFFF000
00FFFFFFFFF000
00FC000003F800
00F8000003F800
01F8000003F800
01F0000001FC00
01F0000001FC00
03F0000001FC00
03F0000000FE00
03E0000000FE00
07E0000000FE00
07E00000007F00
07C00000007F00
0FC00000007F00
0FC00000007F80
1FC00000007F80
1FC00000007F80
1FE0000000FFC0
3FF8000001FFE0
7FFC000003FFF0
FFFC000003FFF8
7FF8000003FFF0
ENDCHAR
STARTCHAR 00C2
ENCODING 194
SWIDTH 655 0
DWIDTH 51 0
BBX 53 75 -1 0
BITMAP
000000F8000000
000001FC000000
000001FE000000
000003FE000000
000007FF000000
000007FF800000
00000F8F800000
00001F07C00000
00001E03E00000
00003C01E00000
00007800F00000
00007000780000
0000E000180000
00000000000000
00000000000000
00000000000000
00000000000000
00000000000000
00000070000000
000000F0000000
000001F8000000
000001FC000000
000003FC000000
000003FE000000
000007FF000000
000007FF000000
00000FFF800000
00000FBF800000
00001FBFC00000
00001F1FC00000
00003F1FE00000
00003E0FE00000
00007E0FF00000
00007C07F00000
0000FC07F80000
0000F803F80000
0000F803F80000
0001F001FC0000
0001F001FC0000
0003F001FE0000
0003E000FE0000
0007E000FF0000
0007C0007F0000
0007C0007F0000
000F80007F8000
000F80003F8000
001F80003FC000
001F00001FC000
001F00001FC000
003F00001FE000
003E00000FE000
003FFFFFFFE000
007FFFFFFFF000
007FFFFFFFF000
00FFFFFFFFF000
00FC000003F800
00F8000003F800
01F8000003F800
01F0000001FC00
01F0000001FC00
03F0000001FC00
03F0000000FE00
03E0000000FE00
07E0000000FE00
07E00000007F00
07C00000007F00
0FC00000007F00
0FC00000007F80
1FC00000007F80
1FC00000007F80
1FE0000000FFC0
3FF8000001FFE0
7FFC000003FFF0
FFFC000003FFF8
7FF8000003FFF0
ENDCHAR
STARTCHAR 00C3
ENCODING 195
SWIDTH 655 0
DWIDTH 51 0
BBX 53 84 -1 0
BITMAP
000000000000E0
000000000001F0
000000000003F0
000000000007F0
00000000000FF0
00000000001FC0
00000000003F80
00000000007E00
0000000000FC00
000000F801F000
000001FC03C000
000001FE078000
000003FE0E0000
000007FF1C0000
000007FF800000
00000F8F800000
00001F07C00000
00001E03E00000
00003C01E00000
00007800F00000
00007000780000
0000E000180000
00000000000000
00000000000000
00000000000000
00000000000000
00000000000000
00000070000000
000000F0000000
000001F8000000
000001FC000000
000003FC000000
000003FE000000
000007FF000000
000007FF000000
00000FFF800000
00000FBF800000
00001FBFC00000
00001F1FC00000
00003F1FE00000
00003E0FE00000
00007E0FF00000
00007C07F00000
0000FC07F80000
0000F803F80000
0000F803F80000
0001F001FC0000
0001F001FC0000
0003F001FE0000
0003E000FE0000
0007E000FF0000
0007C0007F0000
0007C0007F0000
000F80007F8000
000F80003F8000
001F80003FC000
001F00001FC000
001F00001FC000
003F00001FE000
003E00000FE000
003FFFFFFFE000
007FFFFFFFF000
007FFFFFFFF000
00FFFFFFFFF000
00FC000003F800
00F8000003F800
01F8000003F800
01F0000001FC00
01F0000001FC00
03F0000001FC00
03F0000000FE00
03E0000000FE00
07E0000000FE00
07E00000007F00
07C00000007F00
0FC00000007F00
0FC00000007F80
1FC00000007F80
1FC00000007F80
1FE0000000FFC0
3FF8000001FFE0
7FFC000003FFF0
FFFC000003FFF8
7FF8000003FFF0
ENDCHAR
STARTCHAR 00C4
ENCODING 196
SWIDTH 655 0
DWIDTH 51 0
BBX 53 88 -1 0
BITMAP
000000000F8000
0000000018E000
00000000303000
00000000703800
00000000703800
00000000201800
00000000001800
00000000003800
00000000003800
00000000007000
0000000000F000
0000000003E000
00000000078000
000000F8060000
000001FC040000
000001FE040000
000003FE040000
000007FF000000
000007FF800000
00000F8F800000
00001F07C00000
00001E03E00000
00003C01E00000
00007800F00000
00007000780000
0000E000180000
00000000000000
00000000000000
00000000000000
00000000000000
00000000000000
00000070000000
000000F0000000
000001F8000000
000001FC000000
000003FC000000
000003FE000000
000007FF000000
000007FF000000
00000FFF800000
00000FBF800000
00001FBFC00000
00001F1FC00000
00003F1FE00000
00003E0FE00000
00007E0FF00000
00007C07F00000
0000FC07F80000
0000F803F80000
0000F803F80000
0001F001FC0000
0001F001FC0000
0003F001FE0000
0003E000FE0000
0007E000FF0000
0007C0007F0000
0007C0007F0000
000F80007F8000
000F80003F8000
001F80003FC000
001F00001FC000
001F00001FC000
003F00001FE000
003E00000FE000
003FFFFFFFE000
007FFFFFFFF000
007FFFFFFFF000
00FFFFFFFFF000
00FC000003F800
00F8000003F800
01F8000003F800
01F0000001FC00
01F0000001FC00
03F0000001FC00
03F0000000FE00
03E0000000FE00
07E0000000FE00
07E00000007F00
07C00000007F00
0FC00000007F00
0FC00000007F80
1FC00000007F80
1FC00000007F80
1FE0000000FFC0
3FF8000001FFE0
7FFC000003FFF0
FFFC000003FFF8
7FF8000003FFF0
ENDCHAR
STARTCHAR 00C5
ENCODING 197
SWIDTH 655 0
DWIDTH 51 0
BBX 53 85 -1 0
BITMAP
00000000180000
00000000180000
00000FF0380000
00003FFFF00000
00007FFFF00000
00007FFFE00000
0000F0FFC00000
0000C01F000000
0000C000000000
0000C000000000
000000F8000000
000001FC000000
000001FE000000
000003FE000000
000007FF000000
000007FF800000
00000F8F800000
00001F07C00000
00001E03E00000
00003C01E00000
00007800F00000
00007000780000
0000E000180000
00000000000000
00000000000000
00000000000000
00000000000000
00000000000000
00000070000000
000000F0000000
000001F8000000
000001FC000000
000003FC000000
000003FE000000
000007FF000000
000007FF000000
00000FFF800000
00000FBF800000
00001FBFC00000
00001F1FC00000
00003F1FE00000
00003E0FE00000
00007E0FF00000
00007C07F00000
0000FC07F80000
0000F803F80000
0000F803F80000
0001F001FC0000
0001F001FC0000
0003F001FE0000
0003E000FE0000
0007E000FF0000
0007C0007F0000
0007C0007F0000
000F80007F8000
000F80003F8000
001F80003FC000
001F00001FC000
001F00001FC000
003F00001FE000
003E00000FE000
003FFFFFFFE000
007FFFFFFFF000
007FFFFFFFF000
00FFFFFFFFF000
00FC000003F800
00F8000003F800
01F8000003F800
01F0000001FC00
01F0000001FC00
03F0000001FC00
03F0000000FE00
03E0000000FE00
07E0000000FE00
07E00000007F00
07C00000007F00
0FC00000007F00
0FC00000007F80
1FC00000007F80
1FC00000007F80
1FE0000000FFC0
3FF8000001FFE0
7FFC000003FFF0
FFFC000003FFF8
7FF8000003FFF0
ENDCHAR
STARTCHAR 00C6
ENCODING 198
SWIDTH 655 0
DWIDTH 51 0
BBX 53 87 -1 -12
BITMAP
000000F8000000
000001FC000000
000001FE000000
000003FE000000
000007FF000000
000007FF800000
00000F8F800000
00001F07C00000
00001E03E00000
00003C01E00000
00007800F00000
00007000780000
0000E000180000
00000000000000
00000000000000
00000000000000
00000000000000
00000000000000
00000070000000
000000F0000000
000001F8000000
000001FC000000
000003FC000000
000003FE000000
000007FF000000
000007FF000000
00000FFF800000
00000FBF800000
00001FBFC00000
00001F1FC00000
00003F1FE00000
00003E0FE00000
00007E0FF00000
00007C07F00000
0000FC07F80000
0000F803F80000
0000F803F80000
0001F001FC0000
0001F001FC0000
0003F001FE0000
0003E000FE0000
0007E000FF0000
0007C0007F0000
0007C0007F0000
000F80007F8000
000F80003F8000
001F80003FC000
001F00001FC000
001F00001FC000
003F00001FE000
003E00000FE000
003FFFFFFFE000
007FFFFFFFF000
007FFFFFFFF000
00FFFFFFFFF000
00FC000003F800
00F8000003F800
01F8000003F800
01F0000001FC00
01F0000001FC00
03F0000001FC00
03F0000000FE00
03E0000000FE00
07E0000000FE00
07E00000007F00
07C00000007F00
0FC00000007F00
0FC00000007F80
1FC00000007F80
1FC00000007F80
1FE0000000FFC0
3FF8000001FFE0
7FFC000003FFF0
FFFC000003FFF8
7FF8000003FFF0
00000000000000
00000000000000
00000000000000
00000000000000
000007E0000000
000007F0000000
00000FF0000000
00000FF0000000
00000FF0000000
00000FF0000000
000007E0000000
000003C0000000
ENDCHAR
STARTCHAR 00C7
ENCODING 199
SWIDTH 720 0
DWIDTH 56 0
BBX 54 56 0 0
BITMAP
1FFFFFFF000000
1FFFFFFFF00000
1FFFFFFFFC0000
07FFFFFFFF0000
03FF8007FFC000
01FE00007FF000
01FE00001FF800
01FC000007FC00
01FC000003FE00
01FC000001FF00
01FC000000FF80
01FC0000007F80
01FC0000003FC0
01FC0000001FE0
01FC0000001FE0
01FC0000000FF0
01FC0000000FF0
01FC0000000FF0
01FC00000007F8
01FC00000007F8
01FC00000007F8
01FC00000007F8
01FC00000003FC
3FFFFFF00003FC
FFFFFFF80003FC
FFFFFFF80003FC
7FFFFFF80003FC
01FC00000003FC
01FC00000003FC
01FC00000003FC
01FC00000003FC
01FC00000003FC
01FC00000003FC
01FC00000003FC
01FC00000007F8
01FC00000007F8
01FC00000007F8
01FC00000007F8
01FC0000000FF0
01FC0000000FF0
01FC0000001FF0
01FC0000001FE0
01FC0000003FE0
01FC0000003FC0
01FC0000007F80
01FC000000FF80
01FC000001FF00
01FE000003FE00
01FE00000FFC00
01FE00001FF800
01FE0000FFE000
03FF8007FFC000
0FFFFFFFFF0000
1FFFFFFFFC0000
1FFFFFFFE00000
1FFFFFFC000000
ENDCHAR
STARTCHAR 00C8
ENCODING 200
SWIDTH 604 0
DWIDTH 47 0
BBX 45 79 2 0
BITMAP
000007E00000
00000C700000
000018180000
0000381C0000
0000381C0000
0000000C0000
0000000C0000
0000001C0000
0000001C0000
000000380000
000000780000
000001F00000
000003C00000
000003000000
000002000000
000002000000
000002000000
000000000000
000000000000
000000000000
000000000000
000000000000
000000000000
7FFFFFFFFF80
FFFFFFFFFFC0
7FFFFFFFFFC0
3FFFFFFFFFC0
0FFE0001FFC0
07F800001FC0
07F0000007C0
07F0000003C0
07F0000001C0
07F000000000
07F000000000
07F000000000
07F000000000
07F000000000
07F000000000
07F000000000
07F000000000
07F000000000
07F000000000
07F000000000
07F000000000
07F000003000
07F00000F800
07FFFFFFF800
07FFFFFFF800
07FFFFFFF800
07FFFFFFF800
07FFFFFFF800
07F00000F800
07F000003000
07F000000000
07F000000000
07F000000000
07F000000000
07F000000000
07F000000000
07F000000000
07F000000000
07F000000000
07F000000000
07F000000000
07F000000000
07F000000000
07F000000000
07F000000000
07F000000010
07F000000038
07F000000078
07F0000001F8
07F0000003F8
0FF800001FF8
0FFF800FFFF0
3FFFFFFFFFF0
7FFFFFFFFFF0
7FFFFFFFFFF0
7FFFFFFFFFC0
ENDCHAR
STARTCHAR 00C9
ENCODING 201
SWIDTH 604 0
DWIDTH 47 0
BBX 45 75 2 0
BITMAP
000000078000
0000000FC000
0000001FC000
0000003FC000
0000007F8000
000000FF0000
000001FC0000
000003F80000
000007E00000
00000F800000
00001F000000
00003C000000
000070000000
000000000000
000000000000
000000000000
000000000000
000000000000
000000000000
7FFFFFFFFF80
FFFFFFFFFFC0
7FFFFFFFFFC0
3FFFFFFFFFC0
0FFE0001FFC0
07F800001FC0
07F0000007C0
07F0000003C0
07F0000001C0
07F000000000
07F000000000
07F000000000
07F000000000
07F000000000
07F000000000
07F000000000
07F000000000
07F000000000
07F000000000
07F000000000
07F000000000
07F000003000
07F00000F800
07FFFFFFF800
07FFFFFFF800
07FFFFFFF800
07FFFFFFF800
07FFFFFFF800
07F00000F800
07F000003000
07F000000000
07F000000000
07F000000000
07F000000000
07F000000000
07F000000000
07F000000000
07F000000000
07F000000000
07F000000000
07F000000000
07F000000000
07F000000000
07F000000000
07F000000000
07F000000010
07F000000038
07F000000078
07F0000001F8
07F0000003F8
0FF800001FF8
0FFF800FFFF0
3FFFFFFFFFF0
7FFFFFFFFFF0
7FFFFFFFFFF0
7FFFFFFFFFC0
ENDCHAR
STARTCHAR 00CA
ENCODING 202
SWIDTH 604 0
DWIDTH 47 0
BBX 45 75 2 0
BITMAP
000007C00000
00000FC00000
00001FE00000
00001FF00000
00003FF00000
00007FF80000
00007C7C0000
0000F83C0000
0001F01E0000
0001E00F0000
0003C0070000
000700038000
00060001C000
000000000000
000000000000
000000000000
000000000000
000000000000
000000000000
7FFFFFFFFF80
FFFFFFFFFFC0
7FFFFFFFFFC0
3FFFFFFFFFC0
0FFE0001FFC0
07F800001FC0
07F0000007C0
07F0000003C0
07F0000001C0
07F000000000
07F000000000
07F000000000
07F000000000
07F000000000
07F000000000
07F000000000
07F000000000
07F000000000
07F000000000
07F000000000
07F000000000
07F000003000
07F00000F800
07FFFFFFF800
07FFFFFFF800
07FFFFFFF800
07FFFFFFF800
07FFFFFFF800
07F00000F800
07F000003000
07F000000000
07F000000000
07F000000000
07F000000000
07F000000000
07F000000000
07F000000000
07F000000000
07F000000000
07F000000000
07F000000000
07F000000000
07F000000000
07F000000000
07F000000000
07F000000010
07F000000038
07F000000078
07F0000001F8
07F0000003F8
0FF800001FF8
0FFF800FFFF0
3FFFFFFFFFF0
7FFFFFFFFFF0
7FFFFFFFFFF0
7FFFFFFFFFC0
ENDCHAR
STARTCHAR 00CB
ENCODING 203
SWIDTH 604 0
DWIDTH 47 0
BBX 45 68 2 -12
BITMAP
7FFFFFFFFF80
FFFFFFFFFFC0
7FFFFFFFFFC0
3FFFFFFFFFC0
0FFE0001FFC0
07F800001FC0
07F0000007C0
07F0000003C0
07F0000001C0
07F000000000
07F000000000
07F000000000
07F000000000
07F000000000
07F000000000
07F000000000
07F000000000
07F000000000
07F000000000
07F000000000
07F000000000
07F000003000
07F00000F800
07FFFFFFF800
07FFFFFFF800
07FFFFFFF800
07FFFFFFF800
07FFFFFFF800
07F00000F800
07F000003000
07F000000000
07F000000000
07F000000000
07F000000000
07F000000000
07F000000000
07F000000000
07F000000000
07F000000000
07F000000000
07F000000000
07F000000000
07F000000000
07F000000000
07F000000000
07F000000010
07F000000038
07F000000078
07F0000001F8
07F0000003F8
0FF800001FF8
0FFF800FFFF0
3FFFFFFFFFF0
7FFFFFFFFFF0
7FFFFFFFFFF0
7FFFFFFFFFC0
000000000000
000000000000
000000000000
000000000000
00003F000000
00003F800000
00007F800000
00007F800000
00007F800000
00007F800000
00003F000000
00001E000000
ENDCHAR
STARTCHAR 00CC
ENCODING 204
SWIDTH 270 0
DWIDTH 21 0
BBX 16 80 3 0
BITMAP
0080
07F0
0C18
1C0C
1C0C
180E
000E
000E
000C
001C
003C
0078
01F0
0180
0100
0100
0100
0100
0000
0000
0000
0000
0000
0000
FFFE
FFFF
FFFE
7FFC
1FF0
0FF0
0FE0
0FE0
0FE0
0FE0
0FE0
0FE0
0FE0
0FE0
0FE0
0FE0
0FE0
0FE0
0FE0
0FE0
0FE0
0FE0
0FE0
0FE0
0FE0
0FE0
0FE0
0FE0
0FE0
0FE0
0FE0
0FE0
0FE0
0FE0
0FE0
0FE0
0FE0
0FE0
0FE0
0FE0
0FE0
0FE0
0FE0
0FE0
0FE0
0FE0
0FE0
0FE0
0FE0
0FE0
0FF0
1FF8
7FFC
FFFE
FFFF
FFFE
ENDCHAR
STARTCHAR 00CD
ENCODING 205
SWIDTH 604 0
DWIDTH 47 0
BBX 45 85 2 0
BITMAP
00000000C000
00000000C000
00007F81C000
0001FFFF8000
0003FFFF8000
0003FFFF0000
000787FE0000
000600F80000
000600000000
000600000000
000007C00000
00000FC00000
00001FE00000
00001FF00000
00003FF00000
00007FF80000
00007C7C0000
0000F83C0000
0001F01E0000
0001E00F0000
0003C0070000
000700038000
00060001C000
000000000000
000000000000
000000000000
000000000000
000000000000
000000000000
7FFFFFFFFF80
FFFFFFFFFFC0
7FFFFFFFFFC0
3FFFFFFFFFC0
0FFE0001FFC0
07F800001FC0
07F0000007C0
07F0000003C0
07F0000001C0
07F000000000
07F000000000
07F000000000
07F000000000
07F000000000
07F000000000
07F000000000
07F000000000
07F000000000
07F000000000
07F000000000
07F000000000
07F000003000
07F00000F800
07FFFFFFF800
07FFFFFFF800
07FFFFFFF800
07FFFFFFF800
07FFFFFFF800
07F00000F800
07F000003000
07F000000000
07F000000000
07F000000000
07F000000000
07F000000000
07F000000000
07F000000000
07F000000000
07F000000000
07F000000000
07F000000000
07F000000000
07F000000000
07F000000000
07F000000000
07F000000010
07F000000038
07F000000078
07F0000001F8
07F0000003F8
0FF800001FF8
0FFF800FFFF0
3FFFFFFFFFF0
7FFFFFFFFFF0
7FFFFFFFFFF0
7FFFFFFFFFC0
ENDCHAR
STARTCHAR 00CE
ENCODING 206
SWIDTH 270 0
DWIDTH 21 0
BBX 16 69 3 -13
BITMAP
FFFE
FFFF
FFFE
7FFC
1FF0
0FF0
0FE0
0FE0
0FE0
0FE0
0FE0
0FE0
0FE0
0FE0
0FE0
0FE0
0FE0
0FE0
0FE0
0FE0
0FE0
0FE0
0FE0
0FE0
0FE0
0FE0
0FE0
0FE0
0FE0
0FE0
0FE0
0FE0
0FE0
0FE0
0FE0
0FE0
0FE0
0FE0
0FE0
0FE0
0FE0
0FE0
0FE0
0FE0
0FE0
0FE0
0FE0
0FE0
0FE0
0FE0
0FF0
1FF8
7FFC
FFFE
FFFF
FFFE
0000
0000
0000
0000
0000
03C0
07E0
0FF0
0FF0
0FF0
0FF0
07F0
07E0
ENDCHAR
STARTCHAR 00CF
ENCODING 207
SWIDTH 655 0
DWIDTH 51 0
BBX 52 73 -1 0
BITMAP
00000000030000
00000000030000
000001FC070000
000007FFFE0000
00000FFFFE0000
00000FFFFC0000
00001E3FF80000
00001803F00000
00001800000000
00001800000000
00000000000000
00000000000000
00000000000000
00000000000000
00000000000000
00000000000000
00000000000000
FFFE000003FFF0
FFFF000003FFF0
FFFE000003FFE0
7FFC000000FFC0
1FF80000007F80
0FF00000003F80
07F80000003F00
07F80000007E00
03FC0000007E00
01FC0000007C00
01FE000000F800
00FE000000F800
00FF000001F000
007F800001E000
003F800003E000
003FC00007C000
001FE000078000
000FE0000F8000
000FF0001F0000
0007F8001E0000
0003FC003E0000
0003FC007C0000
0001FE00F80000
0000FF00F80000
00007F81F00000
00007F83E00000
00003FC7E00000
00001FE7C00000
00000FFF800000
00000FFF000000
000007FF000000
000003FE000000
000003FC000000
000001FC000000
000001FC000000
000001FC000000
000001FC000000
000001FC000000
000001FC000000
000001FC000000
000001FC000000
000001FC000000
000001FC000000
000001FC000000
000001FC000000
000001FC000000
000001FC000000
000001FC000000
000001FC000000
000001FC000000
000003FC000000
000003FE000000
00000FFF800000
00001FFFC00000
00001FFFC00000
00001FFFC00000
ENDCHAR
STARTCHAR 00D0
ENCODING 208
SWIDTH 707 0
DWIDTH 55 0
BBX 56 72 2 -2
BITMAP
000000000001F8
0000000000070C
00000000000706
00000000000703
00000000000003
00000000000003
00000000000003
00000000000007
00000000000006
0000000000000E
0000000000003C
000000000001F8
000000000003E0
00000000000200
FFFF00000FFFC0
FFFF00000FFFE0
FFFF00000FFFC0
7FFE000007FF80
1FF8000001FF00
0FF0000000FE00
0FF00000007E00
0FF00000007E00
0FE00000007E00
0FE00000007E00
0FE00000007E00
0FE00000003E00
0FE00000003E00
0FE00000003E00
0FE00000003E00
0FC00000003E00
0FC00000003E00
0FC00000003E00
1FC00000003E00
1FC00000003E00
1FC00000003E00
1FC00000003E00
1FC00000003E00
1FC00000003E00
1FC00000003E00
1FC00000003F00
1FC00000003F00
1FC00000003F00
1FC00000003F00
1FC00000003F00
1FC00000003F00
1FC00000003F00
1FC00000003F00
1FC00000003F00
1FC00000003F00
1FC00000003F00
1FC00000003F00
1FC00000003F00
1FC00000003E00
1FC00000003E00
0FC00000007E00
0FE00000007E00
0FE00000007E00
0FE00000007C00
07F0000000FC00
07F0000000FC00
07F8000001F800
03F8000003F800
03FC000003F000
01FE000007E000
00FF80001FE000
00FFE0007FC000
007FF803FF8000
003FFFFFFF0000
000FFFFFFC0000
0003FFFFF00000
0000FFFF800000
000001E0000000
ENDCHAR
STARTCHAR 00D1
ENCODING 209
SWIDTH 707 0
DWIDTH 55 0
BBX 51 81 2 -2
BITMAP
0000007F000000
000000C3800000
000001C1C00000
000001C0C00000
000001C0C00000
00000000E00000
00000000E00000
00000000C00000
00000001C00000
00000001C00000
00000007800000
0000001F000000
0000003C000000
00000030000000
00000030000000
00000030000000
00000030000000
00000000000000
00000000000000
00000000000000
00000000000000
00000000000000
00000000000000
FFFF00000FFFC0
FFFF00000FFFE0
FFFF00000FFFC0
7FFE000007FF80
1FF8000001FF00
0FF0000000FE00
0FF00000007E00
0FF00000007E00
0FE00000007E00
0FE00000007E00
0FE00000007E00
0FE00000003E00
0FE00000003E00
0FE00000003E00
0FE00000003E00
0FC00000003E00
0FC00000003E00
0FC00000003E00
1FC00000003E00
1FC00000003E00
1FC00000003E00
1FC00000003E00
1FC00000003E00
1FC00000003E00
1FC00000003E00
1FC00000003F00
1FC00000003F00
1FC00000003F00
1FC00000003F00
1FC00000003F00
1FC00000003F00
1FC00000003F00
1FC00000003F00
1FC00000003F00
1FC00000003F00
1FC00000003F00
1FC00000003F00
1FC00000003F00
1FC00000003E00
1FC00000003E00
0FC00000007E00
0FE00000007E00
0FE00000007E00
0FE00000007C00
07F0000000FC00
07F0000000FC00
07F8000001F800
03F8000003F800
03FC000003F000
01FE000007E000
00FF80001FE000
00FFE0007FC000
007FF803FF8000
003FFFFFFF0000
000FFFFFFC0000
0003FFFFF00000
0000FFFF800000
000001E0000000
ENDCHAR
STARTCHAR 00D2
ENCODING 210
SWIDTH 758 0
DWIDTH 59 0
BBX 54 86 3 -2
BITMAP
1E000000000000
3F000000000000
3F800000000000
3FC00000000000
1FE00000000000
0FF00000000000
03F80000000000
01FC0000000000
007E0000000000
003F00F8000000
000F00FC000000
000381FE000000
0001C3FE000000
000063FF000000
000007FF800000
00000FCF800000
00000F87C00000
00001E03E00000
00003C01E00000
00003800700000
00007000380000
0000E000180000
00000000000000
00000000000000
00000000000000
00000000000000
00000000000000
00000FFFC00000
00007FFFF80000
0001FFFFFE0000
0007FFFFFF8000
001FFC00FFE000
003FE0001FF000
007F80000FF800
00FF000003FC00
01FE000001FE00
03FC000000FF00
07F80000007F80
07F00000003F80
0FF00000003FC0
1FE00000001FC0
1FC00000001FE0
3FC00000000FE0
3FC00000000FF0
3F800000000FF0
7F8000000007F8
7F8000000007F8
7F0000000007F8
FF0000000007F8
FF0000000003F8
FF0000000003FC
FF0000000003FC
FF0000000003FC
FF0000000003FC
FF0000000003FC
FF0000000003FC
FF0000000003FC
FF0000000003FC
FF0000000003FC
FF0000000003FC
FF0000000003FC
FF0000000003FC
FF0000000003F8
FF0000000007F8
7F0000000007F8
7F8000000007F8
7F8000000007F8
3F800000000FF0
3FC00000000FF0
3FC00000000FF0
1FC00000001FE0
1FE00000001FE0
0FE00000003FC0
0FF00000003F80
07F80000007F80
03FC000000FF00
01FE000001FE00
00FF000003FC00
007F800007F800
003FE0001FF000
001FF8007FE000
000FFFFFFFC000
0003FFFFFF0000
0000FFFFFC0000
00001FFFE00000
00000070000000
ENDCHAR
STARTCHAR 00D3
ENCODING 211
SWIDTH 758 0
DWIDTH 59 0
BBX 54 86 3 -2
BITMAP
000000000000E0
000000000003E0
000000000007F0
00000000000FF0
00000000001FE0
00000000003FC0
00000000007F80
0000000000FE00
0000000001F800
000000F801F000
000000FC03C000
000001FE078000
000003FE0E0000
000003FF180000
000007FF800000
00000FCF800000
00000F87C00000
00001E03E00000
00003C01E00000
00003800700000
00007000380000
0000E000180000
00000000000000
00000000000000
00000000000000
00000000000000
00000000000000
00000FFFC00000
00007FFFF80000
0001FFFFFE0000
0007FFFFFF8000
001FFC00FFE000
003FE0001FF000
007F80000FF800
00FF000003FC00
01FE000001FE00
03FC000000FF00
07F80000007F80
07F00000003F80
0FF00000003FC0
1FE00000001FC0
1FC00000001FE0
3FC00000000FE0
3FC00000000FF0
3F800000000FF0
7F8000000007F8
7F8000000007F8
7F0000000007F8
FF0000000007F8
FF0000000003F8
FF0000000003FC
FF0000000003FC
FF0000000003FC
FF0000000003FC
FF0000000003FC
FF0000000003FC
FF0000000003FC
FF0000000003FC
FF0000000003FC
FF0000000003FC
FF0000000003FC
FF0000000003FC
FF0000000003F8
FF0000000007F8
7F0000000007F8
7F8000000007F8
7F8000000007F8
3F800000000FF0
3FC00000000FF0
3FC00000000FF0
1FC00000001FE0
1FE00000001FE0
0FE00000003FC0
0FF00000003F80
07F80000007F80
03FC000000FF00
01FE000001FE00
00FF000003FC00
007F800007F800
003FE0001FF000
001FF8007FE000
000FFFFFFFC000
0003FFFFFF0000
0000FFFFFC0000
00001FFFE00000
00000070000000
ENDCHAR
STARTCHAR 00D4
ENCODING 212
SWIDTH 758 0
DWIDTH 59 0
BBX 54 77 3 -2
BITMAP
000000F8000000
000000FC000000
000001FE000000
000003FE000000
000003FF000000
000007FF800000
00000FCF800000
00000F87C00000
00001E03E00000
00003C01E00000
00003800700000
00007000380000
0000E000180000
00000000000000
00000000000000
00000000000000
00000000000000
00000000000000
00000FFFC00000
00007FFFF80000
0001FFFFFE0000
0007FFFFFF8000
001FFC00FFE000
003FE0001FF000
007F80000FF800
00FF000003FC00
01FE000001FE00
03FC000000FF00
07F80000007F80
07F00000003F80
0FF00000003FC0
1FE00000001FC0
1FC00000001FE0
3FC00000000FE0
3FC00000000FF0
3F800000000FF0
7F8000000007F8
7F8000000007F8
7F0000000007F8
FF0000000007F8
FF0000000003F8
FF0000000003FC
FF0000000003FC
FF0000000003FC
FF0000000003FC
FF0000000003FC
FF0000000003FC
FF0000000003FC
FF0000000003FC
FF0000000003FC
FF0000000003FC
FF0000000003FC
FF0000000003FC
FF0000000003F8
FF0000000007F8
7F0000000007F8
7F8000000007F8
7F8000000007F8
3F800000000FF0
3FC00000000FF0
3FC00000000FF0
1FC00000001FE0
1FE00000001FE0
0FE00000003FC0
0FF00000003F80
07F80000007F80
03FC000000FF00
01FE000001FE00
00FF000003FC00
007F800007F800
003FE0001FF000
001FF8007FE000
000FFFFFFFC000
0003FFFFFF0000
0000FFFFFC0000
00001FFFE00000
00000070000000
ENDCHAR
STARTCHAR 00D5
ENCODING 213
SWIDTH 758 0
DWIDTH 59 0
BBX 54 81 3 -2
BITMAP
00000008000000
000000FF000000
000001C1800000
00000181C00000
00000180C00000
00000180C00000
00000000C00000
00000000C00000
00000000C00000
00000001C00000
00000003800000
0000000F000000
0000001E000000
00000038000000
00000030000000
00000030000000
00000030000000
00000020000000
00000000000000
00000000000000
00000000000000
00000000000000
00000FFFC00000
00007FFFF80000
0001FFFFFE0000
0007FFFFFF8000
001FFC00FFE000
003FE0001FF000
007F80000FF800
00FF000003FC00
01FE000001FE00
03FC000000FF00
07F80000007F80
07F00000003F80
0FF00000003FC0
1FE00000001FC0
1FC00000001FE0
3FC00000000FE0
3FC00000000FF0
3F800000000FF0
7F8000000007F8
7F8000000007F8
7F0000000007F8
FF0000000007F8
FF0000000003F8
FF0000000003FC
FF0000000003FC
FF0000000003FC
FF0000000003FC
FF0000000003FC
FF0000000003FC
FF0000000003FC
FF0000000003FC
FF0000000003FC
FF0000000003FC
FF0000000003FC
FF0000000003FC
FF0000000003F8
FF0000000007F8
7F0000000007F8
7F8000000007F8
7F8000000007F8
3F800000000FF0
3FC00000000FF0
3FC00000000FF0
1FC00000001FE0
1FE00000001FE0
0FE00000003FC0
0FF00000003F80
07F80000007F80
03FC000000FF00
01FE000001FE00
00FF000003FC00
007F800007F800
003FE0001FF000
001FF8007FE000
000FFFFFFFC000
0003FFFFFF0000
0000FFFFFC0000
00001FFFE00000
00000070000000
ENDCHAR
STARTCHAR 00D6
ENCODING 214
SWIDTH 758 0
DWIDTH 59 0
BBX 54 72 3 -2
BITMAP
00000000003F00
000000000071C0
0000000000E0C0
0000000000E060
00000000000060
00000000000060
00000000000060
000000000000E0
000000000000E0
000000000001C0
00000000000780
00000000003F00
00000000007C00
00000FFFC06000
00007FFFF84000
0001FFFFFEC000
0007FFFFFF8000
001FFC00FFE000
003FE0001FF000
007F80000FF800
00FF000003FC00
01FE000001FE00
03FC000000FF00
07F80000007F80
07F00000003F80
0FF00000003FC0
1FE00000001FC0
1FC00000001FE0
3FC00000000FE0
3FC00000000FF0
3F800000000FF0
7F8000000007F8
7F8000000007F8
7F0000000007F8
FF0000000007F8
FF0000000003F8
FF0000000003FC
FF0000000003FC
FF0000000003FC
FF0000000003FC
FF0000000003FC
FF0000000003FC
FF0000000003FC
FF0000000003FC
FF0000000003FC
FF0000000003FC
FF0000000003FC
FF0000000003FC
FF0000000003F8
FF0000000007F8
7F0000000007F8
7F8000000007F8
7F8000000007F8
3F800000000FF0
3FC00000000FF0
3FC00000000FF0
1FC00000001FE0
1FE00000001FE0
0FE00000003FC0
0FF00000003F80
07F80000007F80
03FC000000FF00
01FE000001FE00
00FF000003FC00
007F800007F800
003FE0001FF000
001FF8007FE000
000FFFFFFFC000
0003FFFFFF0000
0000FFFFFC0000
00001FFFE00000
00000070000000
ENDCHAR
STARTCHAR 00D7
ENCODING 215
SWIDTH 604 0
DWIDTH 47 0
BBX 45 75 2 0
BITMAP
000780000000
0007E0000000
0007F0000000
0007F0000000
0003F8000000
0001FC000000
0000FE000000
00003F000000
00000F800000
000007C00000
000001E00000
000000700000
000000380000
000000000000
000000000000
000000000000
000000000000
000000000000
000000000000
7FFFFFFFFF80
FFFFFFFFFFC0
7FFFFFFFFFC0
3FFFFFFFFFC0
0FFE0001FFC0
07F800001FC0
07F0000007C0
07F0000003C0
07F0000001C0
07F000000000
07F000000000
07F000000000
07F000000000
07F000000000
07F000000000
07F000000000
07F000000000
07F000000000
07F000000000
07F000000000
07F000000000
07F000003000
07F00000F800
07FFFFFFF800
07FFFFFFF800
07FFFFFFF800
07FFFFFFF800
07FFFFFFF800
07F00000F800
07F000003000
07F000000000
07F000000000
07F000000000
07F000000000
07F000000000
07F000000000
07F000000000
07F000000000
07F000000000
07F000000000
07F000000000
07F000000000
07F000000000
07F000000000
07F000000000
07F000000010
07F000000038
07F000000078
07F0000001F8
07F0000003F8
0FF800001FF8
0FFF800FFFF0
3FFFFFFFFFF0
7FFFFFFFFFF0
7FFFFFFFFFF0
7FFFFFFFFFC0
ENDCHAR
STARTCHAR 00D8
ENCODING 216
SWIDTH 707 0
DWIDTH 55 0
BBX 56 81 2 -2
BITMAP
0001F000000000
0001F800000000
0001FC00000000
0001FE00000000
0000FF00000000
00007F80000000
00001FC0000000
000007E0000000
000003F0000000
000000F80001F8
0000007C00070C
0000001E000706
00000007000703
00000000000003
00000000000003
00000000000003
00000000000007
00000000000006
0000000000000E
0000000000003C
000000000001F8
000000000003E0
00000000000200
FFFF00000FFFC0
FFFF00000FFFE0
FFFF00000FFFC0
7FFE000007FF80
1FF8000001FF00
0FF0000000FE00
0FF00000007E00
0FF00000007E00
0FE00000007E00
0FE00000007E00
0FE00000007E00
0FE00000003E00
0FE00000003E00
0FE00000003E00
0FE00000003E00
0FC00000003E00
0FC00000003E00
0FC00000003E00
1FC00000003E00
1FC00000003E00
1FC00000003E00
1FC00000003E00
1FC00000003E00
1FC00000003E00
1FC00000003E00
1FC00000003F00
1FC00000003F00
1FC00000003F00
1FC00000003F00
1FC00000003F00
1FC00000003F00
1FC00000003F00
1FC00000003F00
1FC00000003F00
1FC00000003F00
1FC00000003F00
1FC00000003F00
1FC00000003F00
1FC00000003E00
1FC00000003E00
0FC00000007E00
0FE00000007E00
0FE00000007E00
0FE00000007C00
07F0000000FC00
07F0000000FC00
07F8000001F800
03F8000003F800
03FC000003F000
01FE000007E000
00FF80001FE000
00FFE0007FC000
007FF803FF8000
003FFFFFFF0000
000FFFFFFC0000
0003FFFFF00000
0000FFFF800000
000001E0000000
ENDCHAR
STARTCHAR 00D9
ENCODING 217
SWIDTH 707 0
DWIDTH 55 0
BBX 56 82 2 -1
BITMAP
000000001F0000
000000003F8000
000000007F8000
00000000FF0000
00000001FE0000
00000001FC0000
00000003F00000
00000007E00000
0000000F800000
0000001F000000
0000003C0001F8
0000007000070C
000000E0000706
00000000000703
00000000000003
00000000000003
00000000000003
00000000000007
00000000000006
0000000000000E
0000000000003C
000000000001F8
000000000003E0
00000000000200
FFFF00000FFFC0
FFFF00000FFFE0
FFFF00000FFFC0
7FFE000007FF80
1FF8000001FF00
0FF0000000FE00
0FF00000007E00
0FF00000007E00
0FE00000007E00
0FE00000007E00
0FE00000007E00
0FE00000003E00
0FE00000003E00
0FE00000003E00
0FE00000003E00
0FC00000003E00
0FC00000003E00
0FC00000003E00
1FC00000003E00
1FC00000003E00
1FC00000003E00
1FC00000003E00
1FC00000003E00
1FC00000003E00
1FC00000003E00
1FC00000003F00
1FC00000003F00
1FC00000003F00
1FC00000003F00
1FC00000003F00
1FC00000003F00
1FC00000003F00
1FC00000003F00
1FC00000003F00
1FC00000003F00
1FC00000003F00
1FC00000003F00
1FC00000003F00
1FC00000003E00
1FC00000003E00
0FC00000007E00
0FE00000007E00
0FE00000007E00
0FE00000007C00
07F0000000FC00
07F0000000FC00
07F8000001F800
03F8000003F800
03FC000003F000
01FE000007E000
00FF80001FE000
00FFE0007FC000
007FF803FF8000
003FFFFFFF0000
000FFFFFFC0000
0003FFFFF00000
0000FFFF800000
000001E0000000
ENDCHAR
STARTCHAR 00DA
ENCODING 218
SWIDTH 707 0
DWIDTH 55 0
BBX 51 77 2 -2
BITMAP
00000000F80000
00000001F80000
00000003F80000
00000007F80000
0000000FF00000
0000001FE00000
0000003F800000
0000007F000000
000000FC000000
000001F8000000
000001E0000000
00000380000000
00000700000000
00000800000000
00000000000000
00000000000000
00000000000000
00000000000000
00000000000000
FFFF00000FFFC0
FFFF00000FFFE0
FFFF00000FFFC0
7FFE000007FF80
1FF8000001FF00
0FF0000000FE00
0FF00000007E00
0FF00000007E00
0FE00000007E00
0FE00000007E00
0FE00000007E00
0FE00000003E00
0FE00000003E00
0FE00000003E00
0FE00000003E00
0FC00000003E00
0FC00000003E00
0FC00000003E00
1FC00000003E00
1FC00000003E00
1FC00000003E00
1FC00000003E00
1FC00000003E00
1FC00000003E00
1FC00000003E00
1FC00000003F00
1FC00000003F00
1FC00000003F00
1FC00000003F00
1FC00000003F00
1FC00000003F00
1FC00000003F00
1FC00000003F00
1FC00000003F00
1FC00000003F00
1FC00000003F00
1FC00000003F00
1FC00000003F00
1FC00000003E00
1FC00000003E00
0FC00000007E00
0FE00000007E00
0FE00000007E00
0FE00000007C00
07F0000000FC00
07F0000000FC00
07F8000001F800
03F8000003F800
03FC000003F000
01FE000007E000
00FF80001FE000
00FFE0007FC000
007FF803FF8000
003FFFFFFF0000
000FFFFFFC0000
0003FFFFF00000
0000FFFF800000
000001E0000000
ENDCHAR
STARTCHAR 00DB
ENCODING 219
SWIDTH 707 0
DWIDTH 55 0
BBX 51 74 2 -2
BITMAP
00000000030000
000000F0070000
000003FF0E0000
000007FFFE0000
00000FFFFC0000
00001FFFFC0000
00001C1FF00000
00001801800000
00003800000000
00000000000000
00000000000000
00000000000000
00000000000000
00000000000000
00000000000000
00000000000000
FFFF00000FFFC0
FFFF00000FFFE0
FFFF00000FFFC0
7FFE000007FF80
1FF8000001FF00
0FF0000000FE00
0FF00000007E00
0FF00000007E00
0FE00000007E00
0FE00000007E00
0FE00000007E00
0FE00000003E00
0FE00000003E00
0FE00000003E00
0FE00000003E00
0FC00000003E00
0FC00000003E00
0FC00000003E00
1FC00000003E00
1FC00000003E00
1FC00000003E00
1FC00000003E00
1FC00000003E00
1FC00000003E00
1FC00000003E00
1FC00000003F00
1FC00000003F00
1FC00000003F00
1FC00000003F00
1FC00000003F00
1FC00000003F00
1FC00000003F00
1FC00000003F00
1FC00000003F00
1FC00000003F00
1FC00000003F00
1FC00000003F00
1FC00000003F00
1FC00000003E00
1FC00000003E00
0FC00000007E00
0FE00000007E00
0FE00000007E00
0FE00000007C00
07F0000000FC00
07F0000000FC00
07F8000001F800
03F8000003F800
03FC000003F000
01FE000007E000
00FF80001FE000
00FFE0007FC000
007FF803FF8000
003FFFFFFF0000
000FFFFFFC0000
0003FFFFF00000
0000FFFF800000
000001E0000000
ENDCHAR
STARTCHAR 00DC
ENCODING 220
SWIDTH 707 0
DWIDTH 55 0
BBX 56 72 2 -2
BITMAP
000000000001F8
0000000000070C
00000000000706
00000000000703
00000000000003
00000000000003
00000000000003
00000000000007
00000000000006
0000000000000E
0000000000003C
000000000001F8
000000000003E0
00000000000200
FFFF00000FFFC0
FFFF00000FFFE0
FFFF00000FFFC0
7FFE000007FF80
1FF8000001FF00
0FF0000000FE00
0FF00000007E00
0FF00000007E00
0FE00000007E00
0FE00000007E00
0FE00000007E00
0FE00000003E00
0FE00000003E00
0FE00000003E00
0FE00000003E00
0FC00000003E00
0FC00000003E00
0FC00000003E00
1FC00000003E00
1FC00000003E00
1FC00000003E00
1FC00000003E00
1FC00000003E00
1FC00000003E00
1FC00000003E00
1FC00000003F00
1FC00000003F00
1FC00000003F00
1FC00000003F00
1FC00000003F00
1FC00000003F00
1FC00000003F00
1FC00000003F00
1FC00000003F00
1FC00000003F00
1FC00000003F00
1FC00000003F00
1FC00000003F00
1FC00000003E00
1FC00000003E00
0FC00000007E00
0FE00000007E00
0FE00000007E00
0FE00000007C00
07F0000000FC00
07F0000000FC00
07F8000001F800
03F8000003F800
03FC000003F000
01FE000007E000
00FF80001FE000
00FFE0007FC000
007FF803FF8000
003FFFFFFF0000
000FFFFFFC0000
0003FFFFF00000
0000FFFF800000
000001E0000000
ENDCHAR
STARTCHAR 00DD
ENCODING 221
SWIDTH 655 0
DWIDTH 51 0
BBX 52 75 -1 0
BITMAP
00000000F80000
00000001F80000
00000003F80000
00000007F80000
0000000FF00000
0000001FE00000
0000003F800000
0000003F000000
0000007C000000
000000F8000000
000001E0000000
00000380000000
00000700000000
00000800000000
00000000000000
00000000000000
00000000000000
00000000000000
00000000000000
FFFE000003FFF0
FFFF000003FFF0
FFFE000003FFE0
7FFC000000FFC0
1FF80000007F80
0FF00000003F80
07F80000003F00
07F80000007E00
03FC0000007E00
01FC0000007C00
01FE000000F800
00FE000000F800
00FF000001F000
007F800001E000
003F800003E000
003FC00007C000
001FE000078000
000FE0000F8000
000FF0001F0000
0007F8001E0000
0003FC003E0000
0003FC007C0000
0001FE00F80000
0000FF00F80000
00007F81F00000
00007F83E00000
00003FC7E00000
00001FE7C00000
00000FFF800000
00000FFF000000
000007FF000000
000003FE000000
000003FC000000
000001FC000000
000001FC000000
000001FC000000
000001FC000000
000001FC000000
000001FC000000
000001FC000000
000001FC000000
000001FC000000
000001FC000000
000001FC000000
000001FC000000
000001FC000000
000001FC000000
000001FC000000
000001FC000000
000001FC000000
000003FC000000
000003FE000000
00000FFF800000
00001FFFC00000
00001FFFC00000
00001FFFC00000
ENDCHAR
STARTCHAR 00DE
ENCODING 222
SWIDTH 604 0
DWIDTH 47 0
BBX 45 79 2 0
BITMAP
000007E00000
00000C700000
000018180000
0000381C0000
0000381C0000
0000000C0000
0000000C0000
0000001C0000
0000001C0000
000000380000
000000780000
000001F00000
000003C00000
000003000000
000002000000
000002000000
000002000000
000000000000
000000000000
000000000000
000000000000
000000000000
000000000000
7FFFFFFFFF80
FFFFFFFFFFC0
7FFFFFFFFFC0
3FFFFFFFFFC0
0FFE0001FFC0
07F800001FC0
07F0000007C0
07F0000003C0
07F0000001C0
07F000000000
07F000000000
07F000000000
07F000000000
07F000000000
07F000000000
07F000000000
07F000000000
07F000000000
07F000000000
07F000000000
07F000000000
07F000003000
07F00000F800
07FFFFFFF800
07FFFFFFF800
07FFFFFFF800
07FFFFFFF800
07FFFFFFF800
07F00000F800
07F000003000
07F000000000
07F000000000
07F000000000
07F000000000
07F000000000
07F000000000
07F000000000
07F000000000
07F000000000
07F000000000
07F000000000
07F000000000
07F000000000
07F000000000
07F000000000
07F000000010
07F000000038
07F000000078
07F0000001F8
07F0000003F8
0FF800001FF8
0FFF800FFFF0
3FFFFFFFFFF0
7FFFFFFFFFF0
7FFFFFFFFFF0
7FFFFFFFFFC0
ENDCHAR
STARTCHAR 00DF
ENCODING 223
SWIDTH 655 0
DWIDTH 51 0
BBX 48 57 1 0
BITMAP
00003FFF8000
0000FFFFF000
0003FFFFFC00
000FF80FFE00
001FC000FF00
003F00003F80
007E00001FC0
00FC00000FE0
01FC00000FE0
01F8000007F0
01F8000007F0
03F0000007F0
03F0000007F0
03F0000007F0
03F0000007F0
07F0000007F0
07E0000007F0
07E0000007E0
07E000000FE0
07E000000FC0
07E000001FC0
07E000003F80
07E00000FE00
07E00007FC00
07E01FFFF000
07E07FFF8000
07E07FFFF000
07E07FFFFE00
07E00007FF80
07E000007FC0
07E000000FE0
07E0000007F0
07E0000003F8
07E0000001FC
07E0000000FC
07E0000000FE
07E00000007E
07E01800007E
07E07C00007F
07E07C00007F
07E0FC00007F
07E1F800007F
07E1F000007F
07E1E000007F
07E1E000007F
07E3E000007E
07E3E00000FE
07E1E00000FE
07E1F00001FC
07E1F00003FC
07E1F80007F8
07F0FC000FF0
0FF0FF003FE0
7FF87FFFFFC0
FFFC1FFFFF80
FFFC0FFFFE00
7FF801FFF000
ENDCHAR
STARTCHAR 00E0
ENCODING 224
SWIDTH 655 0
DWIDTH 51 0
BBX 53 75 -1 0
BITMAP
00007800000000
0000FC00000000
0000FE00000000
0000FF00000000
00007F80000000
00003FC0000000
00000FE0000000
000007F0000000
000001F8000000
0000007C000000
0000003E000000
0000000F000000
00000007800000
00000000000000
00000000000000
00000000000000
00000000000000
00000000000000
00000070000000
000000F0000000
000001F8000000
000001FC000000
000003FC000000
000003FE000000
000007FF000000
000007FF000000
00000FFF800000
00000FBF800000
00001FBFC00000
00001F1FC00000
00003F1FE00000
00003E0FE00000
00007E0FF00000
00007C07F00000
0000FC07F80000
0000F803F80000
0000F803F80000
0001F001FC0000
0001F001FC0000
0003F001FE0000
0003E000FE0000
0007E000FF0000
0007C0007F0000
0007C0007F0000
000F80007F8000
000F80003F8000
001F80003FC000
001F00001FC000
001F00001FC000
003F00001FE000
003E00000FE000
003FFFFFFFE000
007FFFFFFFF000
007FFFFFFFF000
00FFFFFFFFF000
00FC000003F800
00F8000003F800
01F8000003F800
01F0000001FC00
01F0000001FC00
03F0000001FC00
03F0000000FE00
03E0000000FE00
07E0000000FE00
07E00000007F00
07C00000007F00
0FC00000007F00
0FC00000007F80
1FC00000007F80
1FC00000007F80
1FE0000000FFC0
3FF8000001FFE0
7FFC000003FFF0
FFFC000003FFF8
7FF8000003FFF0
ENDCHAR
STARTCHAR 00E1
ENCODING 225
SWIDTH 655 0
DWIDTH 51 0
BBX 53 75 -1 0
BITMAP
00000000780000
00000001F80000
00000003F80000
00000007F80000
00000007F00000
0000000FE00000
0000001FC00000
0000003F000000
0000007C000000
000000F8000000
000001E0000000
00000380000000
00000700000000
00000800000000
00000000000000
00000000000000
00000000000000
00000000000000
00000070000000
000000F0000000
000001F8000000
000001FC000000
000003FC000000
000003FE000000
000007FF000000
000007FF000000
00000FFF800000
00000FBF800000
00001FBFC00000
00001F1FC00000
00003F1FE00000
00003E0FE00000
00007E0FF00000
00007C07F00000
0000FC07F80000
0000F803F80000
0000F803F80000
0001F001FC0000
0001F001FC0000
0003F001FE0000
0003E000FE0000
0007E000FF0000
0007C0007F0000
0007C0007F0000
000F80007F8000
000F80003F8000
001F80003FC000
001F00001FC000
001F00001FC000
003F00001FE000
003E00000FE000
003FFFFFFFE000
007FFFFFFFF000
007FFFFFFFF000
00FFFFFFFFF000
00FC000003F800
00F8000003F800
01F8000003F800
01F0000001FC00
01F0000001FC00
03F0000001FC00
03F0000000FE00
03E0000000FE00
07E0000000FE00
07E00000007F00
07C00000007F00
0FC00000007F00
0FC00000007F80
1FC00000007F80
1FC00000007F80
1FE0000000FFC0
3FF8000001FFE0
7FFC000003FFF0
FFFC000003FFF8
7FF8000003FFF0
ENDCHAR
STARTCHAR 00E2
ENCODING 226
SWIDTH 655 0
DWIDTH 51 0
BBX 53 75 -1 0
BITMAP
000000F8000000
000001FC000000
000001FE000000
000003FE000000
000007FF000000
000007FF800000
00000F8F800000
00001F07C00000
00001E03E00000
00003C01E00000
00007800F00000
00007000780000
0000E000180000
00000000000000
00000000000000
00000000000000
00000000000000
00000000000000
00000070000000
000000F0000000
000001F8000000
000001FC000000
000003FC000000
000003FE000000
000007FF000000
000007FF000000
00000FFF800000
00000FBF800000
00001FBFC00000
00001F1FC00000
00003F1FE00000
00003E0FE00000
00007E0FF00000
00007C07F00000
0000FC07F80000
0000F803F80000
0000F803F80000
0001F001FC0000
0001F001FC0000
0003F001FE0000
0003E000FE0000
0007E000FF0000
0007C0007F0000
0007C0007F0000
000F80007F8000
000F80003F8000
001F80003FC000
001F00001FC000
001F00001FC000
003F00001FE000
003E00000FE000
003FFFFFFFE000
007FFFFFFFF000
007FFFFFFFF000
00FFFFFFFFF000
00FC000003F800
00F8000003F800
01F8000003F800
01F0000001FC00
01F0000001FC00
03F0000001FC00
03F0000000FE00
03E0000000FE00
07E0000000FE00
07E00000007F00
07C00000007F00
0FC00000007F00
0FC00000007F80
1FC00000007F80
1FC00000007F80
1FE0000000FFC0
3FF8000001FFE0
7FFC000003FFF0
FFFC000003FFF8
7FF8000003FFF0
ENDCHAR
STARTCHAR 00E3
ENCODING 227
SWIDTH 655 0
DWIDTH 51 0
BBX 53 73 -1 0
BITMAP
00000000180000
00000000180000
00000FF0380000
00003FFFF80000
00003FFFF00000
00007FFFE00000
000070FFC00000
0000E00F000000
0000C000000000
0000C000000000
00000000000000
00000000000000
00000000000000
00000000000000
00000000000000
00000000000000
00000070000000
000000F0000000
000001F8000000
000001FC000000
000003FC000000
000003FE000000
000007FF000000
000007FF000000
00000FFF800000
00000FBF800000
00001FBFC00000
00001F1FC00000
00003F1FE00000
00003E0FE00000
00007E0FF00000
00007C07F00000
0000FC07F80000
0000F803F80000
0000F803F80000
0001F001FC0000
0001F001FC0000
0003F001FE0000
0003E000FE0000
0007E000FF0000
0007C0007F0000
0007C0007F0000
000F80007F8000
000F80003F8000
001F80003FC000
001F00001FC000
001F00001FC000
003F00001FE000
003E00000FE000
003FFFFFFFE000
007FFFFFFFF000
007FFFFFFFF000
00FFFFFFFFF000
00FC000003F800
00F8000003F800
01F8000003F800
01F0000001FC00
01F0000001FC00
03F0000001FC00
03F0000000FE00
03E0000000FE00
07E0000000FE00
07E00000007F00
07C00000007F00
0FC00000007F00
0FC00000007F80
1FC00000007F80
1FC00000007F80
1FE0000000FFC0
3FF8000001FFE0
7FFC000003FFF0
FFFC000003FFF8
7FF8000003FFF0
ENDCHAR
STARTCHAR 00E4
ENCODING 228
SWIDTH 655 0
DWIDTH 51 0
BBX 53 79 -1 0
BITMAP
000000FC000000
0000018E000000
00000303000000
00000703800000
00000703800000
00000001800000
00000001800000
00000003800000
00000003800000
00000007000000
0000000F000000
0000003E000000
00000078000000
00000060000000
00000040000000
00000040000000
00000040000000
00000000000000
00000000000000
00000000000000
00000000000000
00000000000000
00000070000000
000000F0000000
000001F8000000
000001FC000000
000003FC000000
000003FE000000
000007FF000000
000007FF000000
00000FFF800000
00000FBF800000
00001FBFC00000
00001F1FC00000
00003F1FE00000
00003E0FE00000
00007E0FF00000
00007C07F00000
0000FC07F80000
0000F803F80000
0000F803F80000
0001F001FC0000
0001F001FC0000
0003F001FE0000
0003E000FE0000
0007E000FF0000
0007C0007F0000
0007C0007F0000
000F80007F8000
000F80003F8000
001F80003FC000
001F00001FC000
001F00001FC000
003F00001FE000
003E00000FE000
003FFFFFFFE000
007FFFFFFFF000
007FFFFFFFF000
00FFFFFFFFF000
00FC000003F800
00F8000003F800
01F8000003F800
01F0000001FC00
01F0000001FC00
03F0000001FC00
03F0000000FE00
03E0000000FE00
07E0000000FE00
07E00000007F00
07C00000007F00
0FC00000007F00
0FC00000007F80
1FC00000007F80
1FC00000007F80
1FE0000000FFC0
3FF8000001FFE0
7FFC000003FFF0
FFFC000003FFF8
7FF8000003FFF0
ENDCHAR
STARTCHAR 00E5
ENCODING 229
SWIDTH 655 0
DWIDTH 51 0
BBX 53 69 -1 -12
BITMAP
00000070000000
000000F0000000
000001F8000000
000001FC000000
000003FC000000
000003FE000000
000007FF000000
000007FF000000
00000FFF800000
00000FBF800000
00001FBFC00000
00001F1FC00000
00003F1FE00000
00003E0FE00000
00007E0FF00000
00007C07F00000
0000FC07F80000
0000F803F80000
0000F803F80000
0001F001FC0000
0001F001FC0000
0003F001FE0000
0003E000FE0000
0007E000FF0000
0007C0007F0000
0007C0007F0000
000F80007F8000
000F80003F8000
001F80003FC000
001F00001FC000
001F00001FC000
003F00001FE000
003E00000FE000
003FFFFFFFE000
007FFFFFFFF000
007FFFFFFFF000
00FFFFFFFFF000
00FC000003F800
00F8000003F800
01F8000003F800
01F0000001FC00
01F0000001FC00
03F0000001FC00
03F0000000FE00
03E0000000FE00
07E0000000FE00
07E00000007F00
07C00000007F00
0FC00000007F00
0FC00000007F80
1FC00000007F80
1FC00000007F80
1FE0000000FFC0
3FF8000001FFE0
7FFC000003FFF0
FFFC000003FFF8
7FF8000003FFF0
00000000000000
00000000000000
00000000000000
00000000000000
000007E0000000
000007F0000000
00000FF0000000
00000FF0000000
00000FF0000000
00000FF0000000
000007E0000000
000003C0000000
ENDCHAR
STARTCHAR 00E6
ENCODING 230
SWIDTH 655 0
DWIDTH 51 0
BBX 53 71 -1 0
BITMAP
00008000200000
0000C000600000
0000C000600000
0000E000E00000
00007C07C00000
00007FFF800000
00003FFF800000
00001FFF000000
000007FC000000
00000000000000
00000000000000
00000000000000
00000000000000
00000000000000
00000070000000
000000F0000000
000001F8000000
000001FC000000
000003FC000000
000003FE000000
000007FF000000
000007FF000000
00000FFF800000
00000FBF800000
00001FBFC00000
00001F1FC00000
00003F1FE00000
00003E0FE00000
00007E0FF00000
00007C07F00000
0000FC07F80000
0000F803F80000
0000F803F80000
0001F001FC0000
0001F001FC0000
0003F001FE0000
0003E000FE0000
0007E000FF0000
0007C0007F0000
0007C0007F0000
000F80007F8000
000F80003F8000
001F80003FC000
001F00001FC000
001F00001FC000
003F00001FE000
003E00000FE000
003FFFFFFFE000
007FFFFFFFF000
007FFFFFFFF000
00FFFFFFFFF000
00FC000003F800
00F8000003F800
01F8000003F800
01F0000001FC00
01F0000001FC00
03F0000001FC00
03F0000000FE00
03E0000000FE00
07E0000000FE00
07E00000007F00
07C00000007F00
0FC00000007F00
0FC00000007F80
1FC00000007F80
1FC00000007F80
1FE0000000FFC0
3FF8000001FFE0
7FFC000003FFF0
FFFC000003FFF8
7FF8000003FFF0
ENDCHAR
STARTCHAR 00E7
ENCODING 231
SWIDTH 694 0
DWIDTH 54 0
BBX 50 74 3 -17
BITMAP
00000FFFF80000
00007FFFFF0000
0001FFFFFFE000
0007FFFFFFF800
000FFC007FFC00
003FE0001FFE00
007FC00007FE00
00FF000003FE00
01FE000000FE00
03FC000000FE00
07F80000007E00
07F80000003E00
0FF00000001E00
1FE00000001E00
1FE00000000E00
3FC00000000E00
3FC00000000400
3F800000000000
7F800000000000
7F800000000000
7F800000000000
FF000000000000
FF000000000000
FF000000000000
FF000000000000
FF000000000000
FF000000000000
FF000000000000
FF000000000000
FF000000000000
FF000000000000
FF000000000000
FF000000000000
FF000000000000
FF000000000000
FF000000000000
FF000000000000
FF800000000000
7F800000000000
7F800000000000
7F800000000000
7FC00000000000
3FC00000000000
3FE00000000100
1FE00000000380
1FF000000007C0
0FF80000000F80
0FFC0000001F80
07FE0000003F00
03FF0000007F00
01FF800001FE00
00FFE00003FC00
007FF8001FF800
003FFFC3FFE000
001FFFFFFFC000
0007FFFFFF0000
0001FFFFFC0000
00003FFFF00000
000000FA000000
00000060000000
00000060000000
0000007F800000
0000007FC00000
0000007FE00000
00000003F00000
00000001F00000
00000001F00000
00000001F80000
00002001F00000
00003801F00000
00007F07F00000
00003FFFE00000
000007FFC00000
0000007F000000
ENDCHAR
STARTCHAR 00E8
ENCODING 232
SWIDTH 604 0
DWIDTH 47 0
BBX 45 75 2 0
BITMAP
000780000000
0007E0000000
0007F0000000
0007F0000000
0003F8000000
0001FC000000
0000FE000000
00003F000000
00000F800000
000007C00000
000001E00000
000000700000
000000380000
000000000000
000000000000
000000000000
000000000000
000000000000
000000000000
7FFFFFFFFF80
FFFFFFFFFFC0
7FFFFFFFFFC0
3FFFFFFFFFC0
0FFE0001FFC0
07F800001FC0
07F0000007C0
07F0000003C0
07F0000001C0
07F000000000
07F000000000
07F000000000
07F000000000
07F000000000
07F000000000
07F000000000
07F000000000
07F000000000
07F000000000
07F000000000
07F000000000
07F000003000
07F00000F800
07FFFFFFF800
07FFFFFFF800
07FFFFFFF800
07FFFFFFF800
07FFFFFFF800
07F00000F800
07F000003000
07F000000000
07F000000000
07F000000000
07F000000000
07F000000000
07F000000000
07F000000000
07F000000000
07F000000000
07F000000000
07F000000000
07F000000000
07F000000000
07F000000000
07F000000000
07F000000010
07F000000038
07F000000078
07F0000001F8
07F0000003F8
0FF800001FF8
0FFF800FFFF0
3FFFFFFFFFF0
7FFFFFFFFFF0
7FFFFFFFFFF0
7FFFFFFFFFC0
ENDCHAR
STARTCHAR 00E9
ENCODING 233
SWIDTH 604 0
DWIDTH 47 0
BBX 45 75 2 0
BITMAP
000000078000
0000000FC000
0000001FC000
0000003FC000
0000007F8000
000000FF0000
000001FC0000
000003F80000
000007E00000
00000F800000
00001F000000
00003C000000
000070000000
000000000000
000000000000
000000000000
000000000000
000000000000
000000000000
7FFFFFFFFF80
FFFFFFFFFFC0
7FFFFFFFFFC0
3FFFFFFFFFC0
0FFE0001FFC0
07F800001FC0
07F0000007C0
07F0000003C0
07F0000001C0
07F000000000
07F000000000
07F000000000
07F000000000
07F000000000
07F000000000
07F000000000
07F000000000
07F000000000
07F000000000
07F000000000
07F000000000
07F000003000
07F00000F800
07FFFFFFF800
07FFFFFFF800
07FFFFFFF800
07FFFFFFF800
07FFFFFFF800
07F00000F800
07F000003000
07F000000000
07F000000000
07F000000000
07F000000000
07F000000000
07F000000000
07F000000000
07F000000000
07F000000000
07F000000000
07F000000000
07F000000000
07F000000000
07F000000000
07F000000000
07F000000010
07F000000038
07F000000078
07F0000001F8
07F0000003F8
0FF800001FF8
0FFF800FFFF0
3FFFFFFFFFF0
7FFFFFFFFFF0
7FFFFFFFFFF0
7FFFFFFFFFC0
ENDCHAR
STARTCHAR 00EA
ENCODING 234
SWIDTH 604 0
DWIDTH 47 0
BBX 45 75 2 0
BITMAP
000007C00000
00000FC00000
00001FE00000
00001FF00000
00003FF00000
00007FF80000
00007C7C0000
0000F83C0000
0001F01E0000
0001E00F0000
0003C0070000
000700038000
00060001C000
000000000000
000000000000
000000000000
000000000000
000000000000
000000000000
7FFFFFFFFF80
FFFFFFFFFFC0
7FFFFFFFFFC0
3FFFFFFFFFC0
0FFE0001FFC0
07F800001FC0
07F0000007C0
07F0000003C0
07F0000001C0
07F000000000
07F000000000
07F000000000
07F000000000
07F000000000
07F000000000
07F000000000
07F000000000
07F000000000
07F000000000
07F000000000
07F000000000
07F000003000
07F00000F800
07FFFFFFF800
07FFFFFFF800
07FFFFFFF800
07FFFFFFF800
07FFFFFFF800
07F00000F800
07F000003000
07F000000000
07F000000000
07F000000000
07F000000000
07F000000000
07F000000000
07F000000000
07F000000000
07F000000000
07F000000000
07F000000000
07F000000000
07F000000000
07F000000000
07F000000000
07F000000010
07F000000038
07F000000078
07F0000001F8
07F0000003F8
0FF800001FF8
0FFF800FFFF0
3FFFFFFFFFF0
7FFFFFFFFFF0
7FFFFFFFFFF0
7FFFFFFFFFC0
ENDCHAR
STARTCHAR 00EB
ENCODING 235
SWIDTH 604 0
DWIDTH 47 0
BBX 45 71 2 0
BITMAP
000000030000
0001F8070000
0003FF8F0000
0007FFFE0000
000FFFFE0000
000FFFFC0000
001C07F00000
001800000000
001800000000
000000000000
000000000000
000000000000
000000000000
000000000000
000000000000
7FFFFFFFFF80
FFFFFFFFFFC0
7FFFFFFFFFC0
3FFFFFFFFFC0
0FFE0001FFC0
07F800001FC0
07F0000007C0
07F0000003C0
07F0000001C0
07F000000000
07F000000000
07F000000000
07F000000000
07F000000000
07F000000000
07F000000000
07F000000000
07F000000000
07F000000000
07F000000000
07F000000000
07F000003000
07F00000F800
07FFFFFFF800
07FFFFFFF800
07FFFFFFF800
07FFFFFFF800
07FFFFFFF800
07F00000F800
07F000003000
07F000000000
07F000000000
07F000000000
07F000000000
07F000000000
07F000000000
07F000000000
07F000000000
07F000000000
07F000000000
07F000000000
07F000000000
07F000000000
07F000000000
07F000000000
07F000000010
07F000000038
07F000000078
07F0000001F8
07F0000003F8
0FF800001FF8
0FFF800FFFF0
3FFFFFFFFFF0
7FFFFFFFFFF0
7FFFFFFFFFF0
7FFFFFFFFFC0
ENDCHAR
STARTCHAR 00EC
ENCODING 236
SWIDTH 270 0
DWIDTH 21 0
BBX 19 75 0 0
BITMAP
780000
FC0000
FE0000
FF0000
7F8000
3FC000
0FE000
03F000
01F800
007C00
003E00
000F00
000380
000000
000000
000000
000000
000000
000000
1FFFC0
1FFFE0
1FFFC0
0FFF80
03FE00
01FE00
01FC00
01FC00
01FC00
01FC00
01FC00
01FC00
01FC00
01FC00
01FC00
01FC00
01FC00
01FC00
01FC00
01FC00
01FC00
01FC00
01FC00
01FC00
01FC00
01FC00
01FC00
01FC00
01FC00
01FC00
01FC00
01FC00
01FC00
01FC00
01FC00
01FC00
01FC00
01FC00
01FC00
01FC00
01FC00
01FC00
01FC00
01FC00
01FC00
01FC00
01FC00
01FC00
01FC00
01FC00
01FE00
03FF00
0FFF80
1FFFC0
1FFFE0
1FFFC0
ENDCHAR
STARTCHAR 00ED
ENCODING 237
SWIDTH 270 0
DWIDTH 21 0
BBX 19 75 3 0
BITMAP
0003C0
000FC0
000FE0
001FC0
003F80
007F00
00FE00
01F800
03E000
07C000
0F0000
1E0000
380000
000000
000000
000000
000000
000000
000000
FFFE00
FFFF00
FFFE00
7FFC00
1FF000
0FF000
0FE000
0FE000
0FE000
0FE000
0FE000
0FE000
0FE000
0FE000
0FE000
0FE000
0FE000
0FE000
0FE000
0FE000
0FE000
0FE000
0FE000
0FE000
0FE000
0FE000
0FE000
0FE000
0FE000
0FE000
0FE000
0FE000
0FE000
0FE000
0FE000
0FE000
0FE000
0FE000
0FE000
0FE000
0FE000
0FE000
0FE000
0FE000
0FE000
0FE000
0FE000
0FE000
0FE000
0FE000
0FF000
1FF800
7FFC00
FFFE00
FFFF00
FFFE00
ENDCHAR
STARTCHAR 00EE
ENCODING 238
SWIDTH 270 0
DWIDTH 21 0
BBX 21 75 0 0
BITMAP
00F800
00FC00
01FE00
03FE00
03FF00
07FF80
0FCF80
0F07C0
1E03E0
3C01E0
3800F0
700038
E00018
000000
000000
000000
000000
000000
000000
1FFFC0
1FFFE0
1FFFC0
0FFF80
03FE00
01FE00
01FC00
01FC00
01FC00
01FC00
01FC00
01FC00
01FC00
01FC00
01FC00
01FC00
01FC00
01FC00
01FC00
01FC00
01FC00
01FC00
01FC00
01FC00
01FC00
01FC00
01FC00
01FC00
01FC00
01FC00
01FC00
01FC00
01FC00
01FC00
01FC00
01FC00
01FC00
01FC00
01FC00
01FC00
01FC00
01FC00
01FC00
01FC00
01FC00
01FC00
01FC00
01FC00
01FC00
01FC00
01FE00
03FF00
0FFF80
1FFFC0
1FFFE0
1FFFC0
ENDCHAR
STARTCHAR 00EF
ENCODING 239
SWIDTH 270 0
DWIDTH 21 0
BBX 22 71 -1 0
BITMAP
00000C
07E018
1FFE38
3FFFF8
3FFFF0
7FFFE0
603FC0
E00000
C00000
000000
000000
000000
000000
000000
000000
0FFFE0
0FFFF0
0FFFE0
07FFC0
01FF00
00FF00
00FE00
00FE00
00FE00
00FE00
00FE00
00FE00
00FE00
00FE00
00FE00
00FE00
00FE00
00FE00
00FE00
00FE00
00FE00
00FE00
00FE00
00FE00
00FE00
00FE00
00FE00
00FE00
00FE00
00FE00
00FE00
00FE00
00FE00
00FE00
00FE00
00FE00
00FE00
00FE00
00FE00
00FE00
00FE00
00FE00
00FE00
00FE00
00FE00
00FE00
00FE00
00FE00
00FE00
00FE00
00FF00
01FF80
07FFC0
0FFFE0
0FFFF0
0FFFE0
ENDCHAR
STARTCHAR 00F0
ENCODING 240
SWIDTH 655 0
DWIDTH 51 0
BBX 53 85 -1 0
BITMAP
00000000180000
00000000180000
00000FF0380000
00003FFFF00000
00007FFFF00000
00007FFFE00000
0000F0FFC00000
0000C01F000000
0000C000000000
0000C000000000
00000000000000
00000000000000
00000000000000
00000000000000
00008000200000
0000C000600000
0000C000600000
0000E000E00000
00007C07C00000
00007FFF800000
00003FFF800000
00001FFF000000
000007FC000000
00000000000000
00000000000000
00000000000000
00000000000000
00000000000000
00000070000000
000000F0000000
000001F8000000
000001FC000000
000003FC000000
000003FE000000
000007FF000000
000007FF000000
00000FFF800000
00000FBF800000
00001FBFC00000
00001F1FC00000
00003F1FE00000
00003E0FE00000
00007E0FF00000
00007C07F00000
0000FC07F80000
0000F803F80000
0000F803F80000
0001F001FC0000
0001F001FC0000
0003F001FE0000
0003E000FE0000
0007E000FF0000
0007C0007F0000
0007C0007F0000
000F80007F8000
000F80003F8000
001F80003FC000
001F00001FC000
001F00001FC000
003F00001FE000
003E00000FE000
003FFFFFFFE000
007FFFFFFFF000
007FFFFFFFF000
00FFFFFFFFF000
00FC000003F800
00F8000003F800
01F8000003F800
01F0000001FC00
01F0000001FC00
03F0000001FC00
03F0000000FE00
03E0000000FE00
07E0000000FE00
07E00000007F00
07C00000007F00
0FC00000007F00
0FC00000007F80
1FC00000007F80
1FC00000007F80
1FE0000000FFC0
3FF8000001FFE0
7FFC000003FFF0
FFFC000003FFF8
7FF8000003FFF0
ENDCHAR
STARTCHAR 00F1
ENCODING 241
SWIDTH 720 0
DWIDTH 56 0
BBX 54 56 0 0
BITMAP
1FFFFFFF000000
1FFFFFFFF00000
1FFFFFFFFC0000
07FFFFFFFF0000
03FF8007FFC000
01FE00007FF000
01FE00001FF800
01FC000007FC00
01FC000003FE00
01FC000001FF00
01FC000000FF80
01FC0000007F80
01FC0000003FC0
01FC0000001FE0
01FC0000001FE0
01FC0000000FF0
01FC0000000FF0
01FC0000000FF0
01FC00000007F8
01FC00000007F8
01FC00000007F8
01FC00000007F8
01FC00000003FC
3FFFFFF00003FC
FFFFFFF80003FC
FFFFFFF80003FC
7FFFFFF80003FC
01FC00000003FC
01FC00000003FC
01FC00000003FC
01FC00000003FC
01FC00000003FC
01FC00000003FC
01FC00000003FC
01FC00000007F8
01FC00000007F8
01FC00000007F8
01FC00000007F8
01FC0000000FF0
01FC0000000FF0
01FC0000001FF0
01FC0000001FE0
01FC0000003FE0
01FC0000003FC0
01FC0000007F80
01FC000000FF80
01FC000001FF00
01FE000003FE00
01FE00000FFC00
01FE00001FF800
01FE0000FFE000
03FF8007FFC000
0FFFFFFFFF0000
1FFFFFFFFC0000
1FFFFFFFE00000
1FFFFFFC000000
ENDCHAR
STARTCHAR 00F2
ENCODING 242
SWIDTH 758 0
DWIDTH 59 0
BBX 54 77 3 -2
BITMAP
00007800000000
0000FC00000000
0000FE00000000
0000FF00000000
00007F80000000
00003FC0000000
00000FE0000000
000003F0000000
000001F8000000
0000007C000000
0000003E000000
0000000F000000
00000003800000
00000000000000
00000000000000
00000000000000
00000000000000
00000000000000
00000FFFC00000
00007FFFF80000
0001FFFFFE0000
0007FFFFFF8000
001FFC00FFE000
003FE0001FF000
007F80000FF800
00FF000003FC00
01FE000001FE00
03FC000000FF00
07F80000007F80
07F00000003F80
0FF00000003FC0
1FE00000001FC0
1FC00000001FE0
3FC00000000FE0
3FC00000000FF0
3F800000000FF0
7F8000000007F8
7F8000000007F8
7F0000000007F8
FF0000000007F8
FF0000000003F8
FF0000000003FC
FF0000000003FC
FF0000000003FC
FF0000000003FC
FF0000000003FC
FF0000000003FC
FF0000000003FC
FF0000000003FC
FF0000000003FC
FF0000000003FC
FF0000000003FC
FF0000000003FC
FF0000000003F8
FF0000000007F8
7F0000000007F8
7F8000000007F8
7F8000000007F8
3F800000000FF0
3FC00000000FF0
3FC00000000FF0
1FC00000001FE0
1FE00000001FE0
0FE00000003FC0
0FF00000003F80
07F80000007F80
03FC000000FF00
01FE000001FE00
00FF000003FC00
007F800007F800
003FE0001FF000
001FF8007FE000
000FFFFFFFC000
0003FFFFFF0000
0000FFFFFC0000
00001FFFE00000
00000070000000
ENDCHAR
STARTCHAR 00F3
ENCODING 243
SWIDTH 758 0
DWIDTH 59 0
BBX 54 77 3 -2
BITMAP
00000000780000
00000000FC0000
00000001FC0000
00000003F80000
00000007F80000
0000000FE00000
0000001FC00000
0000003F000000
0000007E000000
000000F8000000
000001E0000000
000003C0000000
00000700000000
00000000000000
00000000000000
00000000000000
00000000000000
00000000000000
00000FFFC00000
00007FFFF80000
0001FFFFFE0000
0007FFFFFF8000
001FFC00FFE000
003FE0001FF000
007F80000FF800
00FF000003FC00
01FE000001FE00
03FC000000FF00
07F80000007F80
07F00000003F80
0FF00000003FC0
1FE00000001FC0
1FC00000001FE0
3FC00000000FE0
3FC00000000FF0
3F800000000FF0
7F8000000007F8
7F8000000007F8
7F0000000007F8
FF0000000007F8
FF0000000003F8
FF0000000003FC
FF0000000003FC
FF0000000003FC
FF0000000003FC
FF0000000003FC
FF0000000003FC
FF0000000003FC
FF0000000003FC
FF0000000003FC
FF0000000003FC
FF0000000003FC
FF0000000003FC
FF0000000003F8
FF0000000007F8
7F0000000007F8
7F8000000007F8
7F8000000007F8
3F800000000FF0
3FC00000000FF0
3FC00000000FF0
1FC00000001FE0
1FE00000001FE0
0FE00000003FC0
0FF00000003F80
07F80000007F80
03FC000000FF00
01FE000001FE00
00FF000003FC00
007F800007F800
003FE0001FF000
001FF8007FE000
000FFFFFFFC000
0003FFFFFF0000
0000FFFFFC0000
00001FFFE00000
00000070000000
ENDCHAR
STARTCHAR 00F4
ENCODING 244
SWIDTH 758 0
DWIDTH 59 0
BBX 54 77 3 -2
BITMAP
000000F8000000
000000FC000000
000001FE000000
000003FE000000
000003FF000000
000007FF800000
00000FCF800000
00000F87C00000
00001E03E00000
00003C01E00000
00003800700000
00007000380000
0000E000180000
00000000000000
00000000000000
00000000000000
00000000000000
00000000000000
00000FFFC00000
00007FFFF80000
0001FFFFFE0000
0007FFFFFF8000
001FFC00FFE000
003FE0001FF000
007F80000FF800
00FF000003FC00
01FE000001FE00
03FC000000FF00
07F80000007F80
07F00000003F80
0FF00000003FC0
1FE00000001FC0
1FC00000001FE0
3FC00000000FE0
3FC00000000FF0
3F800000000FF0
7F8000000007F8
7F8000000007F8
7F0000000007F8
FF0000000007F8
FF0000000003F8
FF0000000003FC
FF0000000003FC
FF0000000003FC
FF0000000003FC
FF0000000003FC
FF0000000003FC
FF0000000003FC
FF0000000003FC
FF0000000003FC
FF0000000003FC
FF0000000003FC
FF0000000003FC
FF0000000003F8
FF0000000007F8
7F0000000007F8
7F8000000007F8
7F8000000007F8
3F800000000FF0
3FC00000000FF0
3FC00000000FF0
1FC00000001FE0
1FE00000001FE0
0FE00000003FC0
0FF00000003F80
07F80000007F80
03FC000000FF00
01FE000001FE00
00FF000003FC00
007F800007F800
003FE0001FF000
001FF8007FE000
000FFFFFFFC000
0003FFFFFF0000
0000FFFFFC0000
00001FFFE00000
00000070000000
ENDCHAR
STARTCHAR 00F5
ENCODING 245
SWIDTH 758 0
DWIDTH 59 0
BBX 54 75 3 -2
BITMAP
000000000C0000
00000000180000
00000FF8380000
00001FFFF80000
00003FFFF00000
00007FFFF00000
000070FFC00000
0000E00F000000
0000C000000000
0000C000000000
00000000000000
00000000000000
00000000000000
00000000000000
00000000000000
00000000000000
00000FFFC00000
00007FFFF80000
0001FFFFFE0000
0007FFFFFF8000
001FFC00FFE000
003FE0001FF000
007F80000FF800
00FF000003FC00
01FE000001FE00
03FC000000FF00
07F80000007F80
07F00000003F80
0FF00000003FC0
1FE00000001FC0
1FC00000001FE0
3FC00000000FE0
3FC00000000FF0
3F800000000FF0
7F8000000007F8
7F8000000007F8
7F0000000007F8
FF0000000007F8
FF0000000003F8
FF0000000003FC
FF0000000003FC
FF0000000003FC
FF0000000003FC
FF0000000003FC
FF0000000003FC
FF0000000003FC
FF0000000003FC
FF0000000003FC
FF0000000003FC
FF0000000003FC
FF0000000003FC
FF0000000003F8
FF0000000007F8
7F0000000007F8
7F8000000007F8
7F8000000007F8
3F800000000FF0
3FC00000000FF0
3FC00000000FF0
1FC00000001FE0
1FE00000001FE0
0FE00000003FC0
0FF00000003F80
07F80000007F80
03FC000000FF00
01FE000001FE00
00FF000003FC00
007F800007F800
003FE0001FF000
001FF8007FE000
000FFFFFFFC000
0003FFFFFF0000
0000FFFFFC0000
00001FFFE00000
00000070000000
ENDCHAR
STARTCHAR 00F6
ENCODING 246
SWIDTH 758 0
DWIDTH 59 0
BBX 54 73 3 -2
BITMAP
00003E01F00000
00007E03F80000
00007F03F80000
00007F03F80000
00007F03F80000
00007E03F80000
00003C01F00000
00000000000000
00000000000000
00000000000000
00000000000000
00000000000000
00000000000000
00000000000000
00000FFFC00000
00007FFFF80000
0001FFFFFE0000
0007FFFFFF8000
001FFC00FFE000
003FE0001FF000
007F80000FF800
00FF000003FC00
01FE000001FE00
03FC000000FF00
07F80000007F80
07F00000003F80
0FF00000003FC0
1FE00000001FC0
1FC00000001FE0
3FC00000000FE0
3FC00000000FF0
3F800000000FF0
7F8000000007F8
7F8000000007F8
7F0000000007F8
FF0000000007F8
FF0000000003F8
FF0000000003FC
FF0000000003FC
FF0000000003FC
FF0000000003FC
FF0000000003FC
FF0000000003FC
FF0000000003FC
FF0000000003FC
FF0000000003FC
FF0000000003FC
FF0000000003FC
FF0000000003FC
FF0000000003F8
FF0000000007F8
7F0000000007F8
7F8000000007F8
7F8000000007F8
3F800000000FF0
3FC00000000FF0
3FC00000000FF0
1FC00000001FE0
1FE00000001FE0
0FE00000003FC0
0FF00000003F80
07F80000007F80
03FC000000FF00
01FE000001FE00
00FF000003FC00
007F800007F800
003FE0001FF000
001FF8007FE000
000FFFFFFFC000
0003FFFFFF0000
0000FFFFFC0000
00001FFFE00000
00000070000000
ENDCHAR
STARTCHAR 00F7
ENCODING 247
SWIDTH 758 0
DWIDTH 59 0
BBX 54 72 3 -2
BITMAP
00000000003F00
000000000071C0
0000000000E0C0
0000000000E060
00000000000060
00000000000060
00000000000060
000000000000E0
000000000000E0
000000000001C0
00000000000780
00000000003F00
00000000007C00
00000FFFC06000
00007FFFF84000
0001FFFFFEC000
0007FFFFFF8000
001FFC00FFE000
003FE0001FF000
007F80000FF800
00FF000003FC00
01FE000001FE00
03FC000000FF00
07F80000007F80
07F00000003F80
0FF00000003FC0
1FE00000001FC0
1FC00000001FE0
3FC00000000FE0
3FC00000000FF0
3F800000000FF0
7F8000000007F8
7F8000000007F8
7F0000000007F8
FF0000000007F8
FF0000000003F8
FF0000000003FC
FF0000000003FC
FF0000000003FC
FF0000000003FC
FF0000000003FC
FF0000000003FC
FF0000000003FC
FF0000000003FC
FF0000000003FC
FF0000000003FC
FF0000000003FC
FF0000000003FC
FF0000000003F8
FF0000000007F8
7F0000000007F8
7F8000000007F8
7F8000000007F8
3F800000000FF0
3FC00000000FF0
3FC00000000FF0
1FC00000001FE0
1FE00000001FE0
0FE00000003FC0
0FF00000003F80
07F80000007F80
03FC000000FF00
01FE000001FE00
00FF000003FC00
007F800007F800
003FE0001FF000
001FF8007FE000
000FFFFFFFC000
0003FFFFFF0000
0000FFFFFC0000
00001FFFE00000
00000070000000
ENDCHAR
STARTCHAR 00F8
ENCODING 248
SWIDTH 707 0
DWIDTH 55 0
BBX 51 70 2 -14
BITMAP
FFFF00000FFFC0
FFFF00000FFFE0
FFFF00000FFFC0
7FFE000007FF80
1FF8000001FF00
0FF0000000FE00
0FF00000007E00
0FF00000007E00
0FE00000007E00
0FE00000007E00
0FE00000007E00
0FE00000003E00
0FE00000003E00
0FE00000003E00
0FE00000003E00
0FC00000003E00
0FC00000003E00
0FC00000003E00
1FC00000003E00
1FC00000003E00
1FC00000003E00
1FC00000003E00
1FC00000003E00
1FC00000003E00
1FC00000003E00
1FC00000003F00
1FC00000003F00
1FC00000003F00
1FC00000003F00
1FC00000003F00
1FC00000003F00
1FC00000003F00
1FC00000003F00
1FC00000003F00
1FC00000003F00
1FC00000003F00
1FC00000003F00
1FC00000003F00
1FC00000003E00
1FC00000003E00
0FC00000007E00
0FE00000007E00
0FE00000007E00
0FE00000007C00
07F0000000FC00
07F0000000FC00
07F8000001F800
03F8000003F800
03FC000003F000
01FE000007E000
00FF80001FE000
00FFE0007FC000
007FF803FF8000
003FFFFFFF0000
000FFFFFFC0000
0003FFFFF00000
0000FFFF800000
000001E0000000
00000000000000
00000000000000
00000000000000
000000C0000000
000003F0000000
000007F8000000
000007F8000000
000007F8000000
000007F8000000
000007F8000000
000003F0000000
000000C0000000
ENDCHAR
STARTCHAR 00F9
ENCODING 249
SWIDTH 707 0
DWIDTH 55 0
BBX 51 77 2 -2
BITMAP
0000F800000000
0000FC00000000
0000FE00000000
0000FF00000000
00007F80000000
00003FC0000000
00000FE0000000
000007F0000000
000001F8000000
000000F8000000
0000003C000000
0000000E000000
00000007000000
00000000800000
00000000000000
00000000000000
00000000000000
00000000000000
00000000000000
FFFF00000FFFC0
FFFF00000FFFE0
FFFF00000FFFC0
7FFE000007FF80
1FF8000001FF00
0FF0000000FE00
0FF00000007E00
0FF00000007E00
0FE00000007E00
0FE00000007E00
0FE00000007E00
0FE00000003E00
0FE00000003E00
0FE00000003E00
0FE00000003E00
0FC00000003E00
0FC00000003E00
0FC00000003E00
1FC00000003E00
1FC00000003E00
1FC00000003E00
1FC00000003E00
1FC00000003E00
1FC00000003E00
1FC00000003E00
1FC00000003F00
1FC00000003F00
1FC00000003F00
1FC00000003F00
1FC00000003F00
1FC00000003F00
1FC00000003F00
1FC00000003F00
1FC00000003F00
1FC00000003F00
1FC00000003F00
1FC00000003F00
1FC00000003F00
1FC00000003E00
1FC00000003E00
0FC00000007E00
0FE00000007E00
0FE00000007E00
0FE00000007C00
07F0000000FC00
07F0000000FC00
07F8000001F800
03F8000003F800
03FC000003F000
01FE000007E000
00FF80001FE000
00FFE0007FC000
007FF803FF8000
003FFFFFFF0000
000FFFFFFC0000
0003FFFFF00000
0000FFFF800000
000001E0000000
ENDCHAR
STARTCHAR 00FA
ENCODING 250
SWIDTH 707 0
DWIDTH 55 0
BBX 51 77 2 -2
BITMAP
00000000F80000
00000001F80000
00000003F80000
00000007F80000
0000000FF00000
0000001FE00000
0000003F800000
0000007F000000
000000FC000000
000001F8000000
000001E0000000
00000380000000
00000700000000
00000800000000
00000000000000
00000000000000
00000000000000
00000000000000
00000000000000
FFFF00000FFFC0
FFFF00000FFFE0
FFFF00000FFFC0
7FFE000007FF80
1FF8000001FF00
0FF0000000FE00
0FF00000007E00
0FF00000007E00
0FE00000007E00
0FE00000007E00
0FE00000007E00
0FE00000003E00
0FE00000003E00
0FE00000003E00
0FE00000003E00
0FC00000003E00
0FC00000003E00
0FC00000003E00
1FC00000003E00
1FC00000003E00
1FC00000003E00
1FC00000003E00
1FC00000003E00
1FC00000003E00
1FC00000003E00
1FC00000003F00
1FC00000003F00
1FC00000003F00
1FC00000003F00
1FC00000003F00
1FC00000003F00
1FC00000003F00
1FC00000003F00
1FC00000003F00
1FC00000003F00
1FC00000003F00
1FC00000003F00
1FC00000003F00
1FC00000003E00
1FC00000003E00
0FC00000007E00
0FE00000007E00
0FE00000007E00
0FE00000007C00
07F0000000FC00
07F0000000FC00
07F8000001F800
03F8000003F800
03FC000003F000
01FE000007E000
00FF80001FE000
00FFE0007FC000
007FF803FF8000
003FFFFFFF0000
000FFFFFFC0000
0003FFFFF00000
0000FFFF800000
000001E0000000
ENDCHAR
STARTCHAR 00FB
ENCODING 251
SWIDTH 707 0
DWIDTH 55 0
BBX 51 81 2 -2
BITMAP
0000007F000000
000000C3800000
000001C1C00000
000001C0C00000
000001C0C00000
00000000E00000
00000000E00000
00000000C00000
00000001C00000
00000001C00000
00000007800000
0000001F000000
0000003C000000
00000030000000
00000030000000
00000030000000
00000030000000
00000000000000
00000000000000
00000000000000
00000000000000
00000000000000
00000000000000
FFFF00000FFFC0
FFFF00000FFFE0
FFFF00000FFFC0
7FFE000007FF80
1FF8000001FF00
0FF0000000FE00
0FF00000007E00
0FF00000007E00
0FE00000007E00
0FE00000007E00
0FE00000007E00
0FE00000003E00
0FE00000003E00
0FE00000003E00
0FE00000003E00
0FC00000003E00
0FC00000003E00
0FC00000003E00
1FC00000003E00
1FC00000003E00
1FC00000003E00
1FC00000003E00
1FC00000003E00
1FC00000003E00
1FC00000003E00
1FC00000003F00
1FC00000003F00
1FC00000003F00
1FC00000003F00
1FC00000003F00
1FC00000003F00
1FC00000003F00
1FC00000003F00
1FC00000003F00
1FC00000003F00
1FC00000003F00
1FC00000003F00
1FC00000003F00
1FC00000003E00
1FC00000003E00
0FC00000007E00
0FE00000007E00
0FE00000007E00
0FE00000007C00
07F0000000FC00
07F0000000FC00
07F8000001F800
03F8000003F800
03FC000003F000
01FE000007E000
00FF80001FE000
00FFE0007FC000
007FF803FF8000
003FFFFFFF0000
000FFFFFFC0000
0003FFFFF00000
0000FFFF800000
000001E0000000
ENDCHAR
STARTCHAR 00FC
ENCODING 252
SWIDTH 707 0
DWIDTH 55 0
BBX 51 73 2 -2
BITMAP
00003C01E00000
00007E03F00000
0000FE03F80000
0000FF07F80000
0000FE07F80000
00007E03F00000
00003C01E00000
00000000000000
00000000000000
00000000000000
00000000000000
00000000000000
00000000000000
00000000000000
00000000000000
FFFF00000FFFC0
FFFF00000FFFE0
FFFF00000FFFC0
7FFE000007FF80
1FF8000001FF00
0FF0000000FE00
0FF00000007E00
0FF00000007E00
0FE00000007E00
0FE00000007E00
0FE00000007E00
0FE00000003E00
0FE00000003E00
0FE00000003E00
0FE00000003E00
0FC00000003E00
0FC00000003E00
0FC00000003E00
1FC00000003E00
1FC00000003E00
1FC00000003E00
1FC00000003E00
1FC00000003E00
1FC00000003E00
1FC00000003E00
1FC00000003F00
1FC00000003F00
1FC00000003F00
1FC00000003F00
1FC00000003F00
1FC00000003F00
1FC00000003F00
1FC00000003F00
1FC00000003F00
1FC00000003F00
1FC00000003F00
1FC00000003F00
1FC00000003F00
1FC00000003E00
1FC00000003E00
0FC00000007E00
0FE00000007E00
0FE00000007E00
0FE00000007C00
07F0000000FC00
07F0000000FC00
07F8000001F800
03F8000003F800
03FC000003F000
01FE000007E000
00FF80001FE000
00FFE0007FC000
007FF803FF8000
003FFFFFFF0000
000FFFFFFC0000
0003FFFFF00000
0000FFFF800000
000001E0000000
ENDCHAR
STARTCHAR 00FD
ENCODING 253
SWIDTH 655 0
DWIDTH 51 0
BBX 52 79 -1 0
BITMAP
000000FC000000
0000018E000000
00000303000000
00000703800000
00000703800000
00000001800000
00000001800000
00000003800000
00000003800000
00000007000000
0000000F000000
0000003E000000
00000078000000
00000060000000
00000040000000
00000040000000
00000040000000
00000000000000
00000000000000
00000000000000
00000000000000
00000000000000
00000000000000
FFFE000003FFF0
FFFF000003FFF0
FFFE000003FFE0
7FFC000000FFC0
1FF80000007F80
0FF00000003F80
07F80000003F00
07F80000007E00
03FC0000007E00
01FC0000007C00
01FE000000F800
00FE000000F800
00FF000001F000
007F800001E000
003F800003E000
003FC00007C000
001FE000078000
000FE0000F8000
000FF0001F0000
0007F8001E0000
0003FC003E0000
0003FC007C0000
0001FE00F80000
0000FF00F80000
00007F81F00000
00007F83E00000
00003FC7E00000
00001FE7C00000
00000FFF800000
00000FFF000000
000007FF000000
000003FE000000
000003FC000000
000001FC000000
000001FC000000
000001FC000000
000001FC000000
000001FC000000
000001FC000000
000001FC000000
000001FC000000
000001FC000000
000001FC000000
000001FC000000
000001FC000000
000001FC000000
000001FC000000
000001FC000000
000001FC000000
000001FC000000
000003FC000000
000003FE000000
00000FFF800000
00001FFFC00000
00001FFFC00000
00001FFFC00000
ENDCHAR
STARTCHAR 00FE
ENCODING 254
SWIDTH 604 0
DWIDTH 47 0
BBX 45 71 2 0
BITMAP
000000030000
0001F8070000
0003FF8F0000
0007FFFE0000
000FFFFE0000
000FFFFC0000
001C07F00000
001800000000
001800000000
000000000000
000000000000
000000000000
000000000000
000000000000
000000000000
7FFFFFFFFF80
FFFFFFFFFFC0
7FFFFFFFFFC0
3FFFFFFFFFC0
0FFE0001FFC0
07F800001FC0
07F0000007C0
07F0000003C0
07F0000001C0
07F000000000
07F000000000
07F000000000
07F000000000
07F000000000
07F000000000
07F000000000
07F000000000
07F000000000
07F000000000
07F000000000
07F000000000
07F000003000
07F00000F800
07FFFFFFF800
07FFFFFFF800
07FFFFFFF800
07FFFFFFF800
07FFFFFFF800
07F00000F800
07F000003000
07F000000000
07F000000000
07F000000000
07F000000000
07F000000000
07F000000000
07F000000000
07F000000000
07F000000000
07F000000000
07F000000000
07F000000000
07F000000000
07F000000000
07F000000000
07F000000010
07F000000038
07F000000078
07F0000001F8
07F0000003F8
0FF800001FF8
0FFF800FFFF0
3FFFFFFFFFF0
7FFFFFFFFFF0
7FFFFFFFFFF0
7FFFFFFFFFC0
ENDCHAR
ENDFONT
